<svg width="1920" height="971" viewBox="0 0 1920 971" fill="none" xmlns="http://www.w3.org/2000/svg">
<path d="M0 0.000244141L1920 7.62889e-05L1920 892L7.79811e-05 892L0 0.000244141Z" fill="url(#paint0_linear_879_271)"/>
<path d="M3.74219 446.356C132.304 434.397 223.037 396.361 282.499 363.431C342.628 330.13 385.933 293.599 465.065 273.959C552.343 252.137 609.37 261.913 631.926 267.412C663.198 275.05 661.254 280.244 712.412 297.964C810.683 332.007 829.352 316.862 873.384 339.426C946.391 376.83 924.62 433.59 1000.98 496.547C1056.28 542.156 1147.84 578.447 1230.66 553.286C1308.66 529.587 1317.43 470.077 1399.49 461.632C1433.19 458.162 1461.23 465.865 1517.27 481.272C1589.1 500.912 1637.33 525.135 1656.65 533.646C1713.87 558.894 1806.24 574.781 1957 524.917" stroke="#273773" stroke-width="3" stroke-miterlimit="10"/>
<path d="M2.875 465.604C127.236 455.282 220.207 420.846 285.067 386.716C337.756 358.608 377.94 327.795 433.318 305.776C445.43 300.975 458.19 296.327 471.932 292.312C558.523 267.042 615.334 271.21 639.048 273.763C670.85 277.167 670.85 281.052 720.987 298.27C756.322 310.381 781.489 317.299 800.982 321.838C834.119 329.541 850.707 330.065 876.855 344.882C886.612 350.366 895.768 357.08 904.142 364.893C942.873 401.009 941.224 446.793 1005.48 495.326C1061.4 537.574 1152.35 569.522 1233.76 544.535C1240.21 542.551 1246.57 540.206 1252.8 537.509C1315.74 510.252 1329.87 462.309 1402 454.78C1409.6 453.974 1417.24 453.734 1424.87 454.06C1450.5 455.063 1477.01 462.178 1518.98 473.7C1588.51 492.904 1636 516.668 1657.29 526.074C1672.9 532.899 1688.98 538.257 1705.39 542.091C1762.16 555.534 1842.41 556.93 1955.31 522.626" stroke="#273773" stroke-width="3" stroke-miterlimit="10"/>
<path d="M2.01172 486.552C122.152 477.823 217.459 447.272 287.639 411.527C343.371 383.158 385.42 350.752 439.777 327.62C452.184 322.317 465.042 316.949 478.842 312.344C564.746 283.604 621.263 280.134 646.234 281.793C678.408 283.975 680.548 283.56 729.586 300.255C763.92 311.973 788.988 319.895 808.109 325.459C840.323 334.778 855.811 336.654 880.271 352.039C889.592 357.964 898.352 364.917 906.419 372.792C943.836 408.668 945.681 451.702 1010.01 495.871C1066.57 534.736 1156.91 562.342 1236.9 537.53C1243.68 535.347 1249.94 533.165 1255.81 530.546C1320.73 502.788 1335.1 457.07 1404.57 449.803C1412.11 448.978 1419.69 448.708 1427.26 448.996C1453.33 449.847 1479.79 456.765 1520.74 468.178C1588 486.858 1634.7 510.23 1658 520.312C1673.48 527.075 1689.42 532.446 1705.67 536.373C1761.93 550.121 1841.8 553.023 1953.58 522.123" stroke="#273773" stroke-width="3" stroke-miterlimit="10"/>
<path d="M1.17188 508.92C117.091 501.872 214.676 474.921 290.234 437.866C348.93 409.061 392.903 375.171 446.201 350.904C458.921 345.099 471.897 339.033 485.717 333.817C570.934 301.651 627.059 294.908 653.384 291.242C685.951 286.724 690.211 287.488 738.169 303.659C771.541 314.941 796.511 323.888 815.357 330.478C846.629 341.39 861.057 344.663 883.829 360.593C892.641 366.97 900.955 374.16 908.681 382.088C944.782 417.703 950.24 457.965 1014.49 497.747C1071.75 533.23 1161.41 556.515 1239.99 531.856C1246.7 529.673 1252.93 527.491 1258.76 524.938C1325.62 496.569 1340.28 453.164 1407.07 445.941C1414.55 445.095 1422.08 444.796 1429.6 445.046C1456.1 445.723 1482.61 452.487 1522.48 463.682C1587.41 481.817 1633.37 504.774 1658.65 515.707C1674.04 522.368 1689.84 527.744 1705.94 531.79C1761.7 545.844 1841.2 550.274 1951.84 522.756" stroke="#273773" stroke-width="3" stroke-miterlimit="10"/>
<path d="M0.304688 531.332C112.023 525.92 211.846 502.613 292.803 464.228C354.482 434.964 400.36 399.568 452.636 374.21C465.651 367.904 478.725 361.117 492.604 355.312C577.134 319.785 632.748 307.696 660.545 300.756C693.388 292.551 699.807 291.482 746.764 307.128C779.252 318.039 804.007 327.947 822.538 335.497C852.868 347.98 866.217 352.693 887.32 369.148C895.609 375.96 903.479 383.382 910.876 391.363C945.682 426.671 954.751 464.184 1018.94 499.711C1076.91 531.79 1165.86 550.775 1243.05 526.291C1249.68 524.108 1255.87 521.926 1261.68 519.417C1330.5 490.458 1345.42 449.585 1409.54 442.274C1416.97 441.44 1424.44 441.112 1431.92 441.292C1458.81 441.816 1485.23 448.406 1524.18 459.383C1586.84 477.016 1632.03 499.58 1659.3 511.299C1674.57 517.894 1690.24 523.283 1706.2 527.425C1761.46 541.806 1840.59 547.72 1950.11 523.628" stroke="#273773" stroke-width="3" stroke-miterlimit="10"/>
<path d="M-0.515625 545.779C107.002 542.003 209.082 522.363 295.418 482.647C360.062 452.903 407.863 415.935 459.119 389.574C472.409 382.744 485.62 375.324 499.538 368.864C583.342 329.977 638.504 312.65 667.695 302.284C700.832 290.544 709.528 287.467 755.346 302.612C780.649 311.005 805.485 321.047 829.727 332.683C859.173 346.715 871.403 352.912 890.779 369.781C899.24 377.179 905.953 385.057 913.217 392.716C946.726 427.632 959.428 462.548 1023.5 493.71C1082.24 522.363 1170.44 537.072 1246.21 512.761C1252.79 510.579 1258.93 508.397 1264.71 505.931C1335.51 476.449 1350.69 437.736 1412.13 430.644C1419.51 429.807 1426.92 429.457 1434.33 429.596C1461.66 430.011 1488.04 436.361 1525.93 447.054C1586.3 464.119 1630.74 486.334 1659.97 498.839C1675.15 505.364 1690.69 510.759 1706.51 514.987C1761.26 529.696 1840 537.137 1948.4 516.428" stroke="#273773" stroke-width="3" stroke-miterlimit="10"/>
<path d="M-1.42188 556.08C101.875 553.898 206.212 537.902 297.947 496.898C365.555 466.674 415.241 428.092 465.515 400.879C479.099 393.503 492.409 385.429 506.386 378.358C589.562 336.176 644.292 313.633 674.857 299.798C708.229 284.631 719.183 279.438 763.941 294.059C789.02 302.252 813.425 312.809 836.889 325.614C865.373 341.151 876.563 348.876 894.25 366.334C902.103 374.038 908.286 382.243 915.491 389.99C947.724 424.687 964.077 456.592 1027.99 483.63C1087.53 508.813 1174.97 519.288 1249.33 495.13C1255.83 492.948 1261.91 490.766 1267.69 488.343C1340.48 458.403 1355.97 421.916 1414.66 415.086C1421.98 414.227 1429.34 413.848 1436.71 413.951C1464.43 414.213 1490.81 420.367 1527.66 430.929C1585.72 447.492 1629.4 469.292 1660.63 482.626C1675.7 489.069 1691.12 494.469 1706.79 498.796C1761.05 513.832 1839.41 522.801 1946.69 505.452" stroke="#273773" stroke-width="3" stroke-miterlimit="10"/>
<path d="M-2.26562 566.531C96.8107 566.03 203.366 553.591 300.539 511.299C371.091 480.573 422.642 440.333 471.935 412.138C485.813 404.173 499.261 395.444 513.277 387.806C595.785 342.372 650.123 314.701 682.003 297.243C715.827 278.738 728.842 271.362 772.521 285.459C797.418 293.567 821.419 304.752 844.075 318.804C871.558 335.803 881.726 345.143 897.745 363.038C904.93 371.068 910.623 379.535 917.749 387.435C948.726 421.762 968.789 450.829 1032.51 473.699C1092.87 495.369 1179.49 501.632 1252.37 477.671C1258.81 475.488 1264.86 473.306 1270.59 470.906C1345.37 440.354 1361.03 406.159 1417.14 399.372C1424.4 398.513 1431.7 398.105 1439 398.15C1467.15 398.15 1493.5 404.216 1529.31 414.604C1585.1 430.6 1627.99 452.051 1661.22 466.148C1676.19 472.536 1691.47 477.957 1707 482.384C1760.75 497.66 1838.74 508.157 1944.89 494.256" stroke="#273773" stroke-width="3" stroke-miterlimit="10"/>
<path d="M-3.13281 577.029C91.7426 578.163 200.536 569.325 303.107 525.746C376.624 494.518 430.039 452.597 478.37 423.552C492.504 415.063 506.108 405.745 520.144 397.365C602.004 348.679 655.989 315.88 689.165 294.8C723.401 272.977 738.497 263.375 781.115 276.949C805.823 284.963 829.424 296.711 851.256 311.865C877.895 330.348 886.866 341.303 901.216 359.634C907.753 368.014 912.995 376.699 920.022 384.751C949.743 418.729 973.477 444.894 1037 463.661C1098.23 481.752 1184 483.891 1255.53 460.082C1261.91 457.9 1267.92 455.718 1273.61 453.383C1350.39 422.373 1366.27 390.36 1419.72 383.704C1426.93 382.843 1434.18 382.406 1441.43 382.395C1470 382.198 1496.4 388.134 1531.13 398.303C1584.6 413.775 1626.75 434.856 1661.97 449.739C1676.82 456.083 1691.97 461.539 1707.35 466.084C1760.61 481.752 1838.23 493.689 1943.26 483.192" stroke="#273773" stroke-width="3" stroke-miterlimit="10"/>
<path d="M-3.99219 587.48C86.6822 590.186 197.753 584.927 305.722 540.082C382.282 508.33 437.444 464.708 484.853 434.854C499.261 425.776 513.003 415.869 527.078 406.878C608.271 355.006 661.922 317.101 696.374 292.289C731.1 267.258 748.218 255.343 789.757 268.393C814.293 276.38 837.498 288.747 858.465 305.011C884.181 324.913 892.033 337.57 904.715 356.316C910.604 365.045 915.335 373.926 922.382 382.153C950.886 415.76 978.33 438.892 1041.62 453.687C1103.71 468.155 1188.61 466.213 1258.76 442.58C1265.06 440.397 1271.02 438.215 1276.7 436.033C1355.46 404.543 1371.57 374.712 1422.34 368.231C1429.51 367.324 1436.72 366.857 1443.93 366.834C1472.91 366.616 1499.21 372.224 1533 382.11C1584.17 397.058 1625.56 417.768 1662.78 433.436C1676.22 439.11 1691.12 444.718 1707.79 449.737C1760.54 465.711 1837.78 479.176 1941.67 472.062" stroke="#273773" stroke-width="3" stroke-miterlimit="10"/>
<path d="M-4.85938 597.63C81.5159 601.994 194.844 600.336 308.251 554.247C387.677 521.972 444.743 476.603 491.249 445.964C505.913 436.297 519.811 425.822 533.926 416.177C614.53 361.119 667.886 318.128 703.477 289.607C738.694 261.237 757.815 247.14 798.293 259.666C822.686 267.632 845.523 280.6 865.627 297.899C890.459 319.241 897.036 333.622 908.166 352.739C913.408 361.817 917.668 370.917 924.558 379.297C951.845 412.489 982.979 432.718 1046.01 443.455C1109.05 454.191 1193.03 448.255 1261.76 424.796C1268 422.614 1273.93 420.432 1279.56 418.25C1360.32 386.28 1376.67 358.631 1424.83 352.302C1431.92 351.381 1439.06 350.892 1446.21 350.84C1475.65 350.426 1501.88 355.881 1534.54 365.636C1583.44 380.039 1624.04 400.399 1663.26 416.831C1676.65 422.461 1691.43 428.048 1707.9 433.176C1760.14 449.456 1837.01 464.426 1939.78 460.738" stroke="#273773" stroke-width="3" stroke-miterlimit="10"/>
<path d="M-5.70312 607.645C76.53 613.69 191.998 615.545 310.843 568.234C393.292 535.5 452.066 488.277 497.668 456.94C512.607 446.661 526.663 435.641 540.856 425.341C620.832 367.075 673.913 319.066 710.623 286.703C746.409 255.235 767.552 238.694 806.813 250.718C832.883 258.705 856.557 275.225 872.753 290.566C896.722 313.305 902.199 329.453 911.602 348.941C916.156 358.368 919.965 367.686 926.757 376.24C952.846 408.974 987.612 426.192 1050.43 432.979C1114.29 439.94 1197.46 430.076 1264.78 406.792C1270.94 404.61 1276.83 402.427 1282.45 400.245C1365.19 367.773 1381.76 342.307 1427.2 336.153C1434.25 335.217 1441.33 334.7 1448.42 334.603C1478.24 333.97 1504.47 339.295 1536.21 348.853C1582.82 362.732 1622.59 382.722 1663.81 399.94C1677.14 405.504 1691.81 411.113 1708.06 416.306C1759.81 432.913 1836.31 449.389 1937.94 449.04" stroke="#273773" stroke-width="3" stroke-miterlimit="10"/>
<path d="M-6.5625 617.532C71.4697 625.235 189.077 630.363 313.419 582.07C398.675 548.551 459.373 499.8 504.111 467.699C519.286 456.788 533.558 445.244 547.711 434.289C627.137 372.946 679.964 319.743 717.792 283.715C754.168 249.061 777.116 230.206 815.475 241.685C840.622 249.279 864.178 266.671 880.001 283.147C903.106 307.283 907.268 325.177 915.14 345.057C919.066 354.834 922.384 364.327 929.097 373.055C953.989 405.44 992.446 419.494 1055.03 422.527C1119.81 425.648 1202.08 411.921 1267.98 388.789C1274.09 386.622 1279.94 384.44 1285.51 382.243C1370.28 349.335 1387.06 326.006 1429.84 320.027C1436.82 319.066 1443.85 318.52 1450.88 318.39C1481.11 317.583 1507.34 322.755 1538.06 332.095C1582.35 345.428 1621.39 365.156 1664.64 383.072C1677.91 388.615 1692.44 394.18 1708.52 399.461C1759.75 416.395 1835.88 434.376 1936.39 437.475" stroke="#273773" stroke-width="3" stroke-miterlimit="10"/>
<path d="M-7.42969 627.263C66.3819 636.581 186.247 645.31 315.987 595.751C404.207 561.73 466.692 511.102 510.547 478.368C525.957 466.868 540.386 454.757 554.598 443.147C633.455 378.684 686.124 320.374 724.934 280.548C761.938 242.687 786.771 221.432 823.971 232.408C848.215 239.588 871.674 257.875 887.084 275.529C909.365 301.061 912.211 320.745 918.493 340.996C921.674 351.144 924.638 360.833 931.234 369.715C955.085 401.663 997.213 414.756 1059.54 411.81C1125.07 408.711 1206.61 393.501 1271.12 370.544C1277.17 368.376 1282.96 366.194 1288.51 363.997C1375.32 330.784 1392.28 309.441 1432.39 303.637C1439.32 302.668 1446.29 302.1 1453.27 301.934C1483.92 300.974 1510.2 305.95 1539.81 315.028C1581.72 327.947 1620.08 347.434 1665.31 366.005C1678.52 371.504 1692.93 377.069 1708.79 382.437C1759.53 399.699 1835.29 419.186 1934.66 425.689" stroke="#273773" stroke-width="3" stroke-miterlimit="10"/>
<path d="M-8.36719 636.887C61.2434 647.798 183.347 660.171 318.485 609.325C409.669 574.802 473.823 522.319 516.892 488.844C532.597 476.71 547.183 464.097 561.395 451.746C639.722 384.096 692.097 320.811 732.026 277.166C769.736 236.14 796.493 212.616 832.653 223.047C855.974 229.812 879.335 248.972 894.352 267.805C915.809 294.69 917.281 316.163 922.091 336.763C924.564 347.282 927.136 357.146 933.633 366.224C956.209 397.735 1001.83 405.504 1064.04 400.965C1130.43 396.186 1211.11 374.953 1274.21 352.17C1280.1 349.988 1285.99 347.806 1291.46 345.623C1380.25 311.908 1397.47 292.726 1434.9 287.117C1441.78 286.123 1448.69 285.525 1455.61 285.328C1486.67 284.193 1512.86 289.016 1541.52 297.92C1581.23 310.206 1618.75 329.213 1665.96 348.678C1679.13 354.134 1693.44 359.59 1709.15 365.154C1759.38 382.612 1834.78 403.715 1932.94 413.622" stroke="#273773" stroke-width="3" stroke-miterlimit="10"/>
<path d="M-9.13672 646.402C56.2533 658.994 180.575 674.924 321.15 622.812C415.378 587.787 481.141 533.34 523.347 499.276C539.209 486.488 554.089 473.394 568.301 460.432C646.216 389.902 698.257 321.205 739.089 273.807C777.408 229.485 805.932 203.691 841.169 213.642C863.567 219.993 886.869 240.026 901.474 260.015C922.126 288.384 922.185 311.516 925.522 332.509C927.23 343.42 929.448 353.437 935.828 362.689C957.265 393.764 1006.5 398.216 1068.47 390.076C1135.67 381.347 1215.59 356.361 1277.25 333.731C1283.14 331.549 1288.89 329.366 1294.36 327.359C1385.16 293.141 1402.57 276.054 1437.35 270.621C1444.22 269.64 1451.13 269.057 1458.04 268.875C1486.84 267.669 1515.62 271.724 1543.24 280.877C1580.66 292.639 1617.41 311.276 1666.62 331.527C1679.73 336.917 1693.91 342.438 1709.36 348.025C1781.58 373.717 1855.85 391.7 1931.15 401.73" stroke="#273773" stroke-width="3" stroke-miterlimit="10"/>
<path d="M-10 655.851C51.189 670.079 177.748 689.611 323.723 636.211C420.836 600.684 488.346 544.404 529.845 509.641C714.041 355.204 772.344 182.72 849.826 204.127C871.302 210.063 894.545 230.969 908.719 252.137C938.989 297.309 919.908 331.57 938.165 359.067C982.923 426.498 1184.26 351.189 1297.41 308.875C1407.73 267.609 1411.82 254.319 1460.34 252.137C1545.05 248.274 1589.08 286.092 1709.65 330.697C1781.34 357.091 1854.88 376.799 1929.52 389.618" stroke="#273773" stroke-width="3" stroke-miterlimit="10"/>
<path d="M-10 662.092C52.8184 677.652 175.452 695.481 315.007 644.373C411.335 608.998 475.979 552.173 520.521 515.62C698.454 369.781 753.95 211.831 832.885 225.928C863.725 231.427 895.036 242.448 915.707 259.338C956.323 292.552 941.227 322.252 964.784 348.81C1016.35 406.988 1204.14 341.674 1311.88 302.852C1416.82 264.903 1421.06 254.166 1472.36 256.348C1557.59 259.971 1599.62 293.447 1713.21 336.262C1784.07 362.961 1857.04 382.184 1931.15 393.677" stroke="#273773" stroke-width="3" stroke-miterlimit="10"/>
<path d="M-10 668.596C94.7618 695.404 204.118 689.934 306.29 652.774C401.833 617.575 463.493 560.16 511.196 521.84C682.631 384.228 736.302 238.454 815.963 247.969C856.383 252.813 894.388 254.036 922.696 266.802C971.262 288.624 961.8 312.847 991.403 338.816C1047.96 388.374 1224.03 332.4 1326.36 297.069C1425.75 262.437 1430.17 254.036 1484.39 260.8C1569.94 271.45 1610.16 301.259 1716.76 342.089C1786.78 369.074 1859.16 387.813 1932.7 397.998" stroke="#273773" stroke-width="3" stroke-miterlimit="10"/>
<path d="M-10 680.162C91.7114 707.292 198.204 702.472 297.594 666.239C392.332 631.192 451.028 573.189 501.872 533.123C666.456 403.454 719.223 285.264 799.022 275.073C848.943 268.7 893.092 271.319 929.704 279.306C985.023 291.352 981.804 308.526 1018.04 333.862C1078.03 375.805 1243.95 328.407 1340.83 296.349C1434.82 265.253 1439.2 258.771 1496.4 270.294C1582.23 287.577 1620.69 314.091 1720.33 352.957C1789.52 380.26 1861.32 398.525 1934.31 407.382" stroke="#273773" stroke-width="3" stroke-miterlimit="10"/>
<path d="M-10 697.773C88.653 725.21 192.28 721.018 288.878 685.683C382.831 650.767 438.543 592.174 492.547 550.384C650.162 428.419 702.38 321.511 782.1 308.156C841.326 298.248 893.623 283.104 936.692 297.79C995.958 317.998 998.176 319.394 1044.66 334.888C1100.59 382.046 1263.86 330.327 1355.32 301.609C1443.85 273.894 1448.21 269.312 1508.44 285.788C1594.48 309.334 1631.19 332.99 1723.89 369.804C1792.24 397.417 1863.49 415.201 1935.9 422.723" stroke="#273773" stroke-width="3" stroke-miterlimit="10"/>
<path d="M-10 715.797C85.5901 743.559 186.357 740.058 280.201 705.716C373.369 670.974 426.077 611.726 483.262 568.234C633.751 453.754 685.38 357.146 765.08 341.827C833.788 328.646 890.953 307.74 943.72 316.884C1011.76 328.668 1017.79 324.042 1071.32 336.524C1130 378.489 1283.74 332.662 1369.71 307.457C1452.78 283.125 1457.14 280.222 1520.37 301.87C1606.75 331.374 1641.59 352.52 1727.36 387.239C1794.88 415.165 1865.58 432.47 1937.41 438.653" stroke="#273773" stroke-width="3" stroke-miterlimit="10"/>
<path d="M-10 734.172C82.5053 762.203 180.385 759.357 271.446 725.988C363.828 691.4 413.494 631.497 473.898 586.325C617.202 479.155 668.242 392.324 748.237 375.739C826.23 359.568 889.304 346.3 950.669 336.196C1026.44 323.714 1037.32 328.886 1097.9 338.379C1159.42 375.28 1303.63 335.324 1384.27 313.545C1461.89 292.595 1466.25 291.242 1532.49 318.193C1619.02 353.414 1652.13 372.378 1730.91 404.937C1797.61 433.164 1867.77 449.991 1939 454.845" stroke="#273773" stroke-width="3" stroke-miterlimit="10"/>
<path d="M-10 752.785C63.0852 776.288 161.769 784.209 262.749 746.522C354.405 712.305 400.95 651.486 464.573 604.676C600.555 504.643 651.065 427.26 731.296 409.912C818.771 391.013 888.342 372.53 957.678 355.77C1040.72 335.672 1058.78 321.64 1124.54 340.494C1192.68 360.026 1323.52 338.312 1398.74 319.894C1470.9 302.305 1475.3 302.436 1544.5 334.755C1631.46 375.498 1662.6 392.541 1734.56 422.874C1779.3 441.729 1846.79 466.388 1940.69 471.276" stroke="#273773" stroke-width="3" stroke-miterlimit="10"/>
<path d="M-10 771.727C64.7931 796.517 159.472 802.78 254.033 767.363C344.904 733.32 388.367 671.715 455.249 623.335C583.81 530.306 633.594 462.155 714.374 444.391C811.35 423.049 887.557 399.197 964.666 375.651C1055.18 348.002 1077.78 326.965 1151.16 342.917C1221.1 358.193 1343.38 341.433 1413.23 326.55C1479.97 312.322 1484.53 313.631 1556.53 351.646C1643.93 397.757 1673.02 413.098 1738.12 441.118C1782.21 460.103 1848.7 484.763 1942.28 488.036" stroke="#273773" stroke-width="3" stroke-miterlimit="10"/>
<path d="M-10 790.888C66.5599 817.075 157.175 821.571 245.317 788.444C335.403 754.576 375.744 692.164 445.924 642.234C567.006 556.079 616.122 497.072 697.433 479.112C804.008 455.565 886.87 426.171 971.655 395.772C1069.81 360.594 1096.8 333.033 1177.78 345.581C1249.63 356.71 1363.25 344.904 1427.7 333.447C1488.91 322.536 1493.75 325.046 1568.55 368.778C1656.49 420.169 1683.43 433.961 1741.67 459.603C1785.13 478.741 1850.58 503.487 1943.87 505.015" stroke="#273773" stroke-width="3" stroke-miterlimit="10"/>
<path d="M-10 810.331C68.1892 837.762 154.898 840.621 236.601 809.786C325.902 776.07 363.082 712.785 436.599 661.393C550.124 582.003 597.238 521.49 680.511 514.092C798.57 503.596 886.241 453.426 978.643 416.153C1084.51 373.469 1119.98 317.952 1204.4 348.504C1274.91 374.101 1383.04 348.504 1442.18 340.604C1497.9 333.075 1503.04 336.632 1580.58 386.147C1669.13 442.733 1693.79 455.172 1745.22 478.347C1788.04 497.66 1852.49 522.428 1945.46 522.276" stroke="#273773" stroke-width="3" stroke-miterlimit="10"/>
<path d="M-10 830.408C69.8971 859.17 152.601 860.261 227.905 831.892C316.4 798.329 350.381 734.084 427.275 681.317C533.281 608.583 579.747 558.741 663.57 549.837C791.17 536.242 885.692 481.468 985.651 437.299C1099.31 387.108 1137.53 327.947 1231.04 352.192C1305.2 371.439 1402.96 353.021 1456.65 348.525C1506.89 344.314 1512.48 348.896 1592.59 404.304C1681.86 466.017 1704.16 477.212 1748.8 497.856C1790.94 517.365 1854.39 542.112 1947.07 540.279" stroke="#273773" stroke-width="3" stroke-miterlimit="10"/>
<path d="M-10 851.751C71.5854 881.844 150.285 881.255 219.189 855.025C306.899 821.615 337.621 756.322 417.95 702.268C516.222 636.124 562.236 597.018 646.648 586.609C783.828 569.697 885.181 510.558 992.64 459.494C1114.19 401.73 1155.58 340.169 1257.65 356.928C1335.27 369.673 1422.79 358.456 1471.14 357.474C1515.86 356.557 1521.96 362.144 1604.63 423.487C1694.64 490.285 1714.56 500.367 1752.35 518.414C1793.83 538.185 1856.39 562.845 1948.66 559.331" stroke="#273773" stroke-width="3" stroke-miterlimit="10"/>
<path d="M-10 873.465C73.2932 904.889 147.988 902.576 210.473 878.659C297.398 845.38 324.802 778.909 408.625 723.72C499.221 664.057 544.667 635.754 629.707 623.882C776.388 603.413 884.71 540.128 999.629 482.168C1129.19 416.853 1174.07 353.787 1284.27 362.144C1365.15 368.277 1442.64 364.327 1485.61 366.924C1524.79 369.259 1531.5 375.805 1616.64 443.171C1707.51 515.032 1724.77 524.198 1755.9 539.473C1796.68 559.572 1858.18 584.1 1950.25 578.885" stroke="#273773" stroke-width="3" stroke-miterlimit="10"/>
<path d="M-10 897.099C75.0011 929.833 145.632 925.687 201.757 904.192C287.838 870.847 311.885 803.219 399.301 747.07C482.182 693.824 527.077 676.366 612.785 663.054C768.889 638.809 884.278 571.618 1006.54 506.74C1143.95 433.875 1193.4 379.21 1310.81 369.259C1394.48 362.189 1462.38 372.096 1500.02 378.272C1533.72 383.815 1541.04 391.365 1628.6 464.732C1720.35 541.678 1734.96 549.839 1759.38 562.387C1799.38 582.966 1860 607.211 1951.76 600.315" stroke="#273773" stroke-width="3" stroke-miterlimit="10"/>
<path d="M-10 920.492C76.6893 954.557 143.336 948.708 193.06 929.505C278.336 896.313 298.85 827.07 389.976 770.201C465.123 723.305 509.449 716.736 595.844 702.006C761.351 673.79 883.866 602.867 1013.63 531.115C1159.07 450.656 1213.17 391.451 1337.53 376.176C1423.91 365.614 1482.35 379.515 1514.56 389.4C1542.81 398.129 1550.8 406.64 1640.69 486.095C1733.43 568.06 1745.24 575.414 1763.03 585.125C1802.13 606.468 1861.99 630.101 1953.45 621.525" stroke="#273773" stroke-width="3" stroke-miterlimit="10"/>
<path d="M-10 943.909C78.3383 979.283 141.157 971.754 184.344 954.82C268.757 921.781 285.678 850.574 380.652 793.334C448.064 752.701 491.801 757.109 578.922 740.961C753.734 708.554 883.473 634.031 1020.61 555.47C1174.09 467.439 1233 403.608 1364.15 383.073C1453.57 369.085 1502.29 386.827 1529.05 400.531C1551.88 412.228 1560.46 421.895 1652.72 507.461C1746.46 594.467 1755.39 601.079 1766.58 607.844C1804.41 630.736 1863.87 653.016 1955.04 642.76" stroke="#273773" stroke-width="3" stroke-miterlimit="10"/>
<defs>
<linearGradient id="paint0_linear_879_271" x1="3620" y1="703.037" x2="1360.6" y2="806.544" gradientUnits="userSpaceOnUse">
<stop offset="0.276747" stop-color="#6D95FC" stop-opacity="0.67"/>
<stop offset="1" stop-color="#6D95FC" stop-opacity="0"/>
</linearGradient>
</defs>
</svg>
