<svg width="3524" height="3331" viewBox="0 0 3524 3331" fill="none" xmlns="http://www.w3.org/2000/svg">
<path d="M1086.45 2247.98L1093.57 2226.34L1100.43 2204.24L1115.4 2223.43L1130.37 2242.61L1108.54 2245.53L1086.45 2247.98Z" stroke="url(#paint0_linear_2224_129)" stroke-opacity="0.6" stroke-miterlimit="10"/>
<path d="M1085.42 2247.94L1093.95 2224.91L1102.07 2202.11L1117.4 2222.93L1132.99 2244.22L1109.13 2246.43L1085.42 2247.94Z" stroke="url(#paint1_linear_2224_129)" stroke-opacity="0.6" stroke-miterlimit="10"/>
<path d="M1083.63 2248.32L1093.58 2223.9L1103.52 2199.48L1119.05 2222.63L1135.26 2246.02L1109.78 2247.29L1083.63 2248.32Z" stroke="url(#paint2_linear_2224_129)" stroke-opacity="0.6" stroke-miterlimit="10"/>
<path d="M1082.61 2248.27L1093.96 2222.46L1105.32 2196.65L1121.72 2222.37L1137.87 2247.63L1110.37 2248.18L1082.61 2248.27Z" stroke="url(#paint3_linear_2224_129)" stroke-opacity="0.6" stroke-miterlimit="10"/>
<path d="M1080.56 2248.18L1094 2221.22L1107.19 2193.78L1123.79 2221.84L1140.4 2249.89L1110.61 2249.27L1080.56 2248.18Z" stroke="url(#paint4_linear_2224_129)" stroke-opacity="0.6" stroke-miterlimit="10"/>
<path d="M1079.28 2247.67L1094.55 2219.09L1110.08 2190.96L1126.88 2221.35L1143.94 2252.2L1111.61 2249.94L1079.28 2247.67Z" stroke="url(#paint5_linear_2224_129)" stroke-opacity="0.6" stroke-miterlimit="10"/>
<path d="M1076.46 2248.01L1093.82 2218.27L1111.6 2188.29L1128.44 2221.71L1145.96 2255.36L1111.34 2251.92L1076.46 2248.01Z" stroke="url(#paint6_linear_2224_129)" stroke-opacity="0.6" stroke-miterlimit="10"/>
<path d="M1073.65 2248.34L1093.68 2216.52L1113.54 2185.39L1131.1 2222.07L1148.24 2258.98L1110.82 2253.43L1073.65 2248.34Z" stroke="url(#paint7_linear_2224_129)" stroke-opacity="0.6" stroke-miterlimit="10"/>
<path d="M1069.81 2248.64L1092.18 2216.12L1114.71 2182.91L1132.15 2223.32L1149.75 2263.03L1109.78 2255.83L1069.81 2248.64Z" stroke="url(#paint8_linear_2224_129)" stroke-opacity="0.6" stroke-miterlimit="10"/>
<path d="M1065.97 2248.93L1091.27 2214.8L1116.98 2180.44L1134.04 2224.11L1151.52 2267.55L1108.74 2258.24L1065.97 2248.93Z" stroke="url(#paint9_linear_2224_129)" stroke-opacity="0.6" stroke-miterlimit="10"/>
<path d="M1062.64 2248.33L1091.12 2213.05L1120.01 2177.54L1137.11 2224.24L1154.05 2271.64L1108.47 2260.22L1062.64 2248.33Z" stroke="url(#paint10_linear_2224_129)" stroke-opacity="0.6" stroke-miterlimit="10"/>
<path d="M1057.78 2248.58L1090.27 2211.69L1122.08 2174.56L1139.16 2226.16L1155.99 2277.28L1106.67 2263.05L1057.78 2248.58Z" stroke="url(#paint11_linear_2224_129)" stroke-opacity="0.6" stroke-miterlimit="10"/>
<path d="M1053.42 2247.93L1089.51 2209.66L1125.61 2171.39L1142.15 2226.95L1158.27 2282.73L1106.06 2265.22L1053.42 2247.93Z" stroke="url(#paint12_linear_2224_129)" stroke-opacity="0.6" stroke-miterlimit="10"/>
<path d="M1048.3 2247.71L1088.67 2208.3L1129.03 2168.89L1144.62 2228.63L1160.05 2289.07L1104.51 2268.51L1048.3 2247.71Z" stroke="url(#paint13_linear_2224_129)" stroke-opacity="0.6" stroke-miterlimit="10"/>
<path d="M1043.18 2247.49L1087.98 2206.24L1132.62 2165.68L1147.36 2230.78L1162.09 2295.88L1102.72 2271.34L1043.18 2247.49Z" stroke="url(#paint14_linear_2224_129)" stroke-opacity="0.6" stroke-miterlimit="10"/>
<path d="M1036.77 2246.76L1086.37 2205.3L1136.12 2163.14L1149.58 2233.82L1163.2 2303.81L1099.99 2275.29L1036.77 2246.76Z" stroke="url(#paint15_linear_2224_129)" stroke-opacity="0.6" stroke-miterlimit="10"/>
<path d="M1030.37 2246.03L1085.33 2203.43L1140.45 2160.13L1152.64 2236.4L1164.99 2311.98L1097.68 2279.01L1030.37 2246.03Z" stroke="url(#paint16_linear_2224_129)" stroke-opacity="0.6" stroke-miterlimit="10"/>
<path d="M1023.71 2244.83L1084.72 2201.33L1145.47 2157.36L1155.96 2239.45L1166.2 2321.08L1094.95 2282.95L1023.71 2244.83Z" stroke="url(#paint17_linear_2224_129)" stroke-opacity="0.6" stroke-miterlimit="10"/>
<path d="M1016.02 2243.59L1083.33 2199.65L1150.39 2155.25L1158.52 2242.92L1166.91 2331.06L1091.46 2287.33L1016.02 2243.59Z" stroke="url(#paint18_linear_2224_129)" stroke-opacity="0.6" stroke-miterlimit="10"/>
<path d="M1008.33 2242.35L1082.52 2197.05L1156.56 2152.45L1162.42 2246.87L1168.29 2341.29L1088.39 2291.47L1008.33 2242.35Z" stroke="url(#paint19_linear_2224_129)" stroke-opacity="0.6" stroke-miterlimit="10"/>
<path d="M1000.13 2240.17L1081.56 2195.14L1162.99 2150.11L1165.75 2251.74L1168.93 2353.14L1084.32 2296.77L1000.13 2240.17Z" stroke="url(#paint20_linear_2224_129)" stroke-opacity="0.6" stroke-miterlimit="10"/>
<path d="M990.904 2237.94L1080.67 2193.19L1169.75 2148.2L1169.41 2257.04L1168.81 2365.41L1080.07 2301.56L990.904 2237.94Z" stroke="url(#paint21_linear_2224_129)" stroke-opacity="0.6" stroke-miterlimit="10"/>
<path d="M980.648 2235.68L1078.74 2191.2L1176.83 2146.73L1172.56 2263.24L1168.28 2379.75L1074.46 2307.71L980.648 2235.68Z" stroke="url(#paint22_linear_2224_129)" stroke-opacity="0.6" stroke-miterlimit="10"/>
<path d="M970.137 2232.95L1077.24 2188.98L1185.02 2145.25L1175.96 2269.9L1167.33 2394.31L1068.86 2313.86L970.137 2232.95Z" stroke="url(#paint23_linear_2224_129)" stroke-opacity="0.6" stroke-miterlimit="10"/>
<path d="M959.113 2229.28L1076.42 2187L1193.88 2144.02L1179.64 2277.02L1166.07 2410.27L1062.59 2319.77L959.113 2229.28Z" stroke="url(#paint24_linear_2224_129)" stroke-opacity="0.6" stroke-miterlimit="10"/>
<path d="M947.057 2225.57L1074.98 2184.74L1202.9 2143.91L1183.31 2285.98L1163.46 2427.58L1055.39 2326.81L947.057 2225.57Z" stroke="url(#paint25_linear_2224_129)" stroke-opacity="0.6" stroke-miterlimit="10"/>
<path d="M934.746 2221.39L1074.22 2182.72L1213.43 2143.58L1186.98 2294.93L1160.95 2446.06L1047.77 2334.07L934.746 2221.39Z" stroke="url(#paint26_linear_2224_129)" stroke-opacity="0.6" stroke-miterlimit="10"/>
<path d="M921.154 2216.7L1072.86 2180.42L1224.14 2144.37L1190.67 2305.71L1156.94 2466.59L1039.13 2341.29L921.154 2216.7Z" stroke="url(#paint27_linear_2224_129)" stroke-opacity="0.6" stroke-miterlimit="10"/>
<path d="M907.045 2211.07L1071.75 2178.59L1236.46 2146.11L1194.2 2317.19L1151.94 2488.28L1029.49 2349.67L907.045 2211.07Z" stroke="url(#paint28_linear_2224_129)" stroke-opacity="0.6" stroke-miterlimit="10"/>
<path d="M892.156 2204.04L1070.8 2176.06L1249.87 2147.85L1198.24 2329.6L1147.03 2511.13L1019.6 2357.59L892.156 2204.04Z" stroke="url(#paint29_linear_2224_129)" stroke-opacity="0.6" stroke-miterlimit="10"/>
<path d="M876.248 2196.97L1070.19 2173.96L1263.71 2151.18L1202.04 2343.38L1139.95 2535.8L1008.1 2366.38L876.248 2196.97Z" stroke="url(#paint30_linear_2224_129)" stroke-opacity="0.6" stroke-miterlimit="10"/>
<path d="M859.055 2189.39L1068.8 2172.28L1278.81 2155.65L1204.75 2358.97L1131.37 2562.52L995.421 2375.84L859.055 2189.39Z" stroke="url(#paint31_linear_2224_129)" stroke-opacity="0.6" stroke-miterlimit="10"/>
<path d="M841.084 2180.4L1068.09 2170.85L1294.42 2161.06L1207.82 2376.19L1121.63 2591.1L981.487 2385.98L841.084 2180.4Z" stroke="url(#paint32_linear_2224_129)" stroke-opacity="0.6" stroke-miterlimit="10"/>
<path d="M822.598 2170.48L1067.38 2169.41L1311.91 2167.87L1211.24 2395.05L1110.32 2621.77L966.46 2396.13L822.598 2170.48Z" stroke="url(#paint33_linear_2224_129)" stroke-opacity="0.6" stroke-miterlimit="10"/>
<path d="M802.57 2159.58L1066.74 2167.93L1330.49 2176.51L1213.59 2415.73L1096.84 2654.26L949.833 2407.15L802.57 2159.58Z" stroke="url(#paint34_linear_2224_129)" stroke-opacity="0.6" stroke-miterlimit="10"/>
<path d="M781.264 2148.17L1065.18 2167.57L1349.77 2187.21L1214.85 2438.23L1080.6 2689.48L930.932 2418.82L781.264 2148.17Z" stroke="url(#paint35_linear_2224_129)" stroke-opacity="0.6" stroke-miterlimit="10"/>
<path d="M768.454 2129.61L1074.24 2161.95L1380.03 2194.29L1226.26 2457.56L1072.32 2721.53L920.05 2425.45L768.454 2129.61Z" stroke="url(#paint36_linear_2224_129)" stroke-opacity="0.6" stroke-miterlimit="10"/>
<path d="M756.258 2108.89L1084.7 2155.56L1413.39 2202.7L1238.16 2478.44L1062.77 2754.89L909.305 2432.01L756.258 2108.89Z" stroke="url(#paint37_linear_2224_129)" stroke-opacity="0.6" stroke-miterlimit="10"/>
<path d="M744.331 2086.19L1096.71 2149.53L1449.51 2212.64L1250.47 2501.54L1051.44 2790.45L897.676 2438.44L744.331 2086.19Z" stroke="url(#paint38_linear_2224_129)" stroke-opacity="0.6" stroke-miterlimit="10"/>
<path d="M733.108 2060.65L1110.88 2142.3L1488.91 2224.42L1264.04 2525.78L1039.6 2826.91L886.014 2443.66L733.108 2060.65Z" stroke="url(#paint39_linear_2224_129)" stroke-opacity="0.6" stroke-miterlimit="10"/>
<path d="M721.966 2032.63L1126.26 2135.63L1530.98 2238.39L1278.1 2552.19L1025.21 2865.99L873.381 2449.43L721.966 2032.63Z" stroke="url(#paint40_linear_2224_129)" stroke-opacity="0.6" stroke-miterlimit="10"/>
<path d="M713.2 2000.85L1145.73 2127.3L1578.27 2253.75L1294.5 2579.74L1010.06 2905.5L861.969 2453.3L713.2 2000.85Z" stroke="url(#paint41_linear_2224_129)" stroke-opacity="0.6" stroke-miterlimit="10"/>
<path d="M704.444 1966.63L1166.76 2119.33L1628.67 2272.27L1310.9 2609.74L993.132 2947.22L848.997 2456.81L704.444 1966.63Z" stroke="url(#paint42_linear_2224_129)" stroke-opacity="0.6" stroke-miterlimit="10"/>
<path d="M697.016 1929.23L1189.84 2111.46L1682.4 2293.22L1327.77 2641.92L973.393 2991.09L835.204 2460.16L697.016 1929.23Z" stroke="url(#paint43_linear_2224_129)" stroke-opacity="0.6" stroke-miterlimit="10"/>
<path d="M692.195 1887.34L1217.07 2101.89L1741.53 2316.68L1347.17 2676.36L952.126 3035.81L822.29 2461.81L692.195 1887.34Z" stroke="url(#paint44_linear_2224_129)" stroke-opacity="0.6" stroke-miterlimit="10"/>
<path d="M688.796 1841.61L1246.96 2092.69L1805.54 2343.54L1366.97 2713.02L928.561 3081.81L808.808 2461.94L688.796 1841.61Z" stroke="url(#paint45_linear_2224_129)" stroke-opacity="0.6" stroke-miterlimit="10"/>
<path d="M688.744 1791.58L1281.59 2082.7L1874.85 2373.58L1388.69 2751.67L902.955 3129.54L795.85 2460.56L688.744 1791.58Z" stroke="url(#paint46_linear_2224_129)" stroke-opacity="0.6" stroke-miterlimit="10"/>
<path d="M691.528 1736.33L1320.28 2071.68L1949.04 2407.02L1411.92 2792.55L874.796 3178.07L783.162 2457.2L691.528 1736.33Z" stroke="url(#paint47_linear_2224_129)" stroke-opacity="0.6" stroke-miterlimit="10"/>
<path d="M696.379 1676.27L1362.79 2060.99L2028.95 2445.24L1436.13 2836.53L843.314 3227.83L769.717 2451.82L696.379 1676.27Z" stroke="url(#paint48_linear_2224_129)" stroke-opacity="0.6" stroke-miterlimit="10"/>
<path d="M705.643 1610.72L1410.12 2049.47L2114.75 2487.52L1461.5 2882.93L808.252 3278.35L757.027 2444.18L705.643 1610.72Z" stroke="url(#paint49_linear_2224_129)" stroke-opacity="0.6" stroke-miterlimit="10"/>
<path d="M718.576 1539.47L1462.86 2037.39L2207.14 2535.31L1488.89 2932.49L770.635 3329.67L744.606 2434.57L718.576 1539.47Z" stroke="url(#paint50_linear_2224_129)" stroke-opacity="0.6" stroke-miterlimit="10"/>
<path d="M2416.85 1068.96L2438.66 1062.38L2460.7 1055.33L2453.57 1078.6L2446.43 1101.86L2431.52 1085.65L2416.85 1068.96Z" stroke="url(#paint51_linear_2224_129)" stroke-opacity="0.6" stroke-miterlimit="10"/>
<path d="M2416.3 1068.09L2440.06 1061.87L2463.39 1055.45L2455.12 1079.95L2446.62 1104.93L2431.13 1086.64L2416.3 1068.09Z" stroke="url(#paint52_linear_2224_129)" stroke-opacity="0.6" stroke-miterlimit="10"/>
<path d="M2414.96 1066.84L2440.67 1060.99L2466.38 1055.13L2456.31 1081.13L2446.44 1107.82L2430.8 1087.67L2414.96 1066.84Z" stroke="url(#paint53_linear_2224_129)" stroke-opacity="0.6" stroke-miterlimit="10"/>
<path d="M2414.41 1065.98L2442.07 1060.48L2469.72 1054.98L2458.06 1083.17L2446.62 1110.88L2430.4 1088.67L2414.41 1065.98Z" stroke="url(#paint54_linear_2224_129)" stroke-opacity="0.6" stroke-miterlimit="10"/>
<path d="M2413.31 1064.25L2443.11 1059.8L2473.14 1054.87L2459.68 1084.56L2446.22 1114.25L2429.65 1089.49L2413.31 1064.25Z" stroke="url(#paint55_linear_2224_129)" stroke-opacity="0.6" stroke-miterlimit="10"/>
<path d="M2412.99 1062.9L2445.17 1059.02L2477.11 1055.62L2461.85 1086.81L2446.36 1118.48L2429.67 1090.69L2412.99 1062.9Z" stroke="url(#paint56_linear_2224_129)" stroke-opacity="0.6" stroke-miterlimit="10"/>
<path d="M2411.1 1060.79L2445.42 1057.96L2480.17 1055.34L2462.45 1088.3L2444.93 1121.94L2427.9 1091.61L2411.1 1060.79Z" stroke="url(#paint57_linear_2224_129)" stroke-opacity="0.6" stroke-miterlimit="10"/>
<path d="M2409.21 1058.68L2446.77 1056.83L2483.66 1055.26L2463.68 1090.68L2443.27 1125.89L2426.36 1092.04L2409.21 1058.68Z" stroke="url(#paint58_linear_2224_129)" stroke-opacity="0.6" stroke-miterlimit="10"/>
<path d="M2406.77 1055.7L2446.24 1055.39L2486.37 1054.8L2463.26 1092.26L2440.82 1129.44L2423.79 1092.57L2406.77 1055.7Z" stroke="url(#paint59_linear_2224_129)" stroke-opacity="0.6" stroke-miterlimit="10"/>
<path d="M2404.33 1052.72L2446.8 1053.88L2489.69 1055.24L2463.7 1094.26L2438.13 1133.48L2421.23 1093.1L2404.33 1052.72Z" stroke="url(#paint60_linear_2224_129)" stroke-opacity="0.6" stroke-miterlimit="10"/>
<path d="M2402.91 1049.65L2448.14 1052.75L2493.8 1056.06L2465.35 1096.85L2436.23 1137.91L2419.45 1094.02L2402.91 1049.65Z" stroke="url(#paint61_linear_2224_129)" stroke-opacity="0.6" stroke-miterlimit="10"/>
<path d="M2399.92 1045.81L2448.77 1051.27L2497.43 1056.05L2464.96 1099.63L2432.72 1142.73L2416.1 1094.16L2399.92 1045.81Z" stroke="url(#paint62_linear_2224_129)" stroke-opacity="0.6" stroke-miterlimit="10"/>
<path d="M2397.95 1041.87L2450 1049.49L2502.05 1057.12L2466.02 1102.53L2429.56 1147.73L2413.97 1094.9L2397.95 1041.87Z" stroke="url(#paint63_linear_2224_129)" stroke-opacity="0.6" stroke-miterlimit="10"/>
<path d="M2395.19 1037.55L2450.63 1048.02L2506.07 1058.49L2466.06 1105.52L2425.39 1152.82L2410.39 1095.53L2395.19 1037.55Z" stroke="url(#paint64_linear_2224_129)" stroke-opacity="0.6" stroke-miterlimit="10"/>
<path d="M2392.44 1033.23L2451.93 1046.27L2510.75 1059.59L2465.87 1108.99L2420.98 1158.39L2407.04 1095.67L2392.44 1033.23Z" stroke="url(#paint65_linear_2224_129)" stroke-opacity="0.6" stroke-miterlimit="10"/>
<path d="M2389.36 1027.56L2451.77 1044.41L2514.84 1061L2464.65 1112.56L2415.12 1163.85L2402.24 1095.7L2389.36 1027.56Z" stroke="url(#paint66_linear_2224_129)" stroke-opacity="0.6" stroke-miterlimit="10"/>
<path d="M2386.29 1021.89L2452.71 1042.49L2519.79 1062.83L2464.29 1116.55L2409.45 1170L2397.87 1095.95L2386.29 1021.89Z" stroke="url(#paint67_linear_2224_129)" stroke-opacity="0.6" stroke-miterlimit="10"/>
<path d="M2383.45 1015.75L2454.08 1040.78L2524.93 1065.34L2463.7 1121.01L2402.69 1176.21L2393.07 1095.98L2383.45 1015.75Z" stroke="url(#paint68_linear_2224_129)" stroke-opacity="0.6" stroke-miterlimit="10"/>
<path d="M2380.06 1008.74L2454.66 1038.69L2529.48 1068.16L2462.32 1125.1L2394.91 1182.51L2387.49 1095.62L2380.06 1008.74Z" stroke="url(#paint69_linear_2224_129)" stroke-opacity="0.6" stroke-miterlimit="10"/>
<path d="M2376.67 1001.73L2456.33 1036.53L2535.32 1071.61L2461.32 1130.56L2387.33 1189.5L2382.33 1095.48L2376.67 1001.73Z" stroke="url(#paint70_linear_2224_129)" stroke-opacity="0.6" stroke-miterlimit="10"/>
<path d="M2373.75 993.755L2457.34 1034.65L2540.92 1075.54L2459.24 1136.08L2377.99 1196.83L2375.66 1095.19L2373.75 993.755Z" stroke="url(#paint71_linear_2224_129)" stroke-opacity="0.6" stroke-miterlimit="10"/>
<path d="M2370.29 984.923L2458.42 1032.8L2546.36 1079.99L2457 1142.12L2367.87 1203.77L2369.29 1094.45L2370.29 984.923Z" stroke="url(#paint72_linear_2224_129)" stroke-opacity="0.6" stroke-miterlimit="10"/>
<path d="M2366.26 975.223L2458.95 1030.09L2551.63 1084.95L2453.72 1148.25L2355.82 1211.55L2361.04 1093.39L2366.26 975.223Z" stroke="url(#paint73_linear_2224_129)" stroke-opacity="0.6" stroke-miterlimit="10"/>
<path d="M2362.47 965.044L2459.9 1027.58L2557.53 1090.81L2450.22 1154.86L2343.35 1219.13L2352.79 1092.32L2362.47 965.044Z" stroke="url(#paint74_linear_2224_129)" stroke-opacity="0.6" stroke-miterlimit="10"/>
<path d="M2359.16 953.907L2461.06 1025.77L2563.62 1097.35L2446.49 1161.95L2329.55 1227.24L2344.35 1090.57L2359.16 953.907Z" stroke="url(#paint75_linear_2224_129)" stroke-opacity="0.6" stroke-miterlimit="10"/>
<path d="M2355.29 941.903L2462.08 1023.29L2568.88 1104.69L2441.26 1170.1L2313.87 1235.03L2334.46 1088.71L2355.29 941.903Z" stroke="url(#paint76_linear_2224_129)" stroke-opacity="0.6" stroke-miterlimit="10"/>
<path d="M2351.65 929.42L2463.3 1021.51L2575.2 1113.13L2436.03 1178.24L2297.29 1243.57L2324.14 1086.63L2351.65 929.42Z" stroke="url(#paint77_linear_2224_129)" stroke-opacity="0.6" stroke-miterlimit="10"/>
<path d="M2347.7 915.595L2464.41 1019.08L2580.69 1122.36L2429.31 1187.45L2278.17 1252.06L2313.27 1083.69L2347.7 915.595Z" stroke="url(#paint78_linear_2224_129)" stroke-opacity="0.6" stroke-miterlimit="10"/>
<path d="M2344.22 900.809L2465.27 1017.12L2586.33 1133.44L2421.93 1196.92L2257.53 1260.4L2300.88 1080.6L2344.22 900.809Z" stroke="url(#paint79_linear_2224_129)" stroke-opacity="0.6" stroke-miterlimit="10"/>
<path d="M2341.44 884.582L2466.8 1014.9L2592.59 1145.42L2414.08 1207.35L2236 1269.48L2288.72 1077.03L2341.44 884.582Z" stroke="url(#paint80_linear_2224_129)" stroke-opacity="0.6" stroke-miterlimit="10"/>
<path d="M2338.11 867.492L2468.17 1013.19L2597.79 1158.67L2404.97 1218.35L2211.72 1277.83L2274.92 1072.66L2338.11 867.492Z" stroke="url(#paint81_linear_2224_129)" stroke-opacity="0.6" stroke-miterlimit="10"/>
<path d="M2334.47 849.058L2468.75 1011.09L2602.79 1173.61L2393.75 1229.52L2184.91 1286.12L2259.9 1067.69L2334.47 849.058Z" stroke="url(#paint82_linear_2224_129)" stroke-opacity="0.6" stroke-miterlimit="10"/>
<path d="M2331.52 829.184L2469.52 1009.69L2607.32 1189.5L2381.4 1241.91L2155.91 1294.53L2243.6 1062.09L2331.52 829.184Z" stroke="url(#paint83_linear_2224_129)" stroke-opacity="0.6" stroke-miterlimit="10"/>
<path d="M2329.05 808.35L2470.29 1008.28L2611.76 1207.73L2367.91 1255.53L2124.3 1302.85L2226.68 1055.6L2329.05 808.35Z" stroke="url(#paint84_linear_2224_129)" stroke-opacity="0.6" stroke-miterlimit="10"/>
<path d="M2326.5 785.692L2471.13 1006.91L2615.34 1227.91L2352.32 1269.3L2089.95 1310.42L2208.11 1048.3L2326.5 785.692Z" stroke="url(#paint85_linear_2224_129)" stroke-opacity="0.6" stroke-miterlimit="10"/>
<path d="M2323.63 761.691L2470.53 1005.42L2617.62 1249.85L2334.61 1283.24L2051.78 1317.32L2187.71 1039.51L2323.63 761.691Z" stroke="url(#paint86_linear_2224_129)" stroke-opacity="0.6" stroke-miterlimit="10"/>
<path d="M2331.49 740.558L2480.33 1009.63L2629.18 1278.69L2325.31 1303.67L2020.78 1328.91L2176.04 1034.39L2331.49 740.558Z" stroke="url(#paint87_linear_2224_129)" stroke-opacity="0.6" stroke-miterlimit="10"/>
<path d="M2341.47 718.683L2491.56 1014.52L2641.42 1310.85L2315.03 1325.4L1987.97 1340.22L2164.51 1029.35L2341.47 718.683Z" stroke="url(#paint88_linear_2224_129)" stroke-opacity="0.6" stroke-miterlimit="10"/>
<path d="M2353.23 695.893L2503.39 1020.91L2653.98 1346.13L2303.16 1348.73L1952.34 1351.33L2152.57 1023.5L2353.23 695.893Z" stroke="url(#paint89_linear_2224_129)" stroke-opacity="0.6" stroke-miterlimit="10"/>
<path d="M2367.72 672.058L2517.44 1028.37L2666.92 1385.17L2291.09 1373.75L1915.68 1362.53L2141.6 1016.95L2367.72 672.058Z" stroke="url(#paint90_linear_2224_129)" stroke-opacity="0.6" stroke-miterlimit="10"/>
<path d="M2384.28 646.861L2531.73 1037.15L2679.6 1427.65L2277.51 1400.4L1875.41 1373.16L2129.63 1009.9L2384.28 646.861Z" stroke="url(#paint91_linear_2224_129)" stroke-opacity="0.6" stroke-miterlimit="10"/>
<path d="M2405.29 621.459L2549.71 1048.33L2694.13 1475.2L2264.34 1429.64L1834.36 1383.4L2119.92 1002.77L2405.29 621.459Z" stroke="url(#paint92_linear_2224_129)" stroke-opacity="0.6" stroke-miterlimit="10"/>
<path d="M2428.31 594.662L2568.3 1060.99L2707.86 1527.11L2249.17 1460.28L1790.47 1393.45L2109.61 994.159L2428.31 594.662Z" stroke="url(#paint93_linear_2224_129)" stroke-opacity="0.6" stroke-miterlimit="10"/>
<path d="M2454.69 567.131L2587.98 1075.38L2721.51 1583.14L2232.48 1492.55L1743.21 1402.43L2098.95 984.782L2454.69 567.131Z" stroke="url(#paint94_linear_2224_129)" stroke-opacity="0.6" stroke-miterlimit="10"/>
<path d="M2486.25 539.16L2611.44 1092.2L2736.2 1645.04L2215.38 1528.19L1694.38 1410.65L2090.19 975.146L2486.25 539.16Z" stroke="url(#paint95_linear_2224_129)" stroke-opacity="0.6" stroke-miterlimit="10"/>
<path d="M2521.77 510.152L2636.11 1111.41L2750.89 1712.88L2196.7 1565.44L1643.18 1417.72L2082.36 964.175L2521.77 510.152Z" stroke="url(#paint96_linear_2224_129)" stroke-opacity="0.6" stroke-miterlimit="10"/>
<path d="M2562.72 481.427L2664.15 1134.05L2766.02 1786.89L2177.49 1605.39L1589.4 1424.11L2076.06 952.769L2562.72 481.427Z" stroke="url(#paint97_linear_2224_129)" stroke-opacity="0.6" stroke-miterlimit="10"/>
<path d="M2609.59 452.024L2695.37 1159.44L2781.16 1866.85L2157.32 1647.86L1533.49 1428.87L2071.54 940.446L2609.59 452.024Z" stroke="url(#paint98_linear_2224_129)" stroke-opacity="0.6" stroke-miterlimit="10"/>
<path d="M2661.57 421.56L2728.51 1188.13L2795.67 1954.23L2135.17 1692.92L1474.67 1431.61L2068.24 926.344L2661.57 421.56Z" stroke="url(#paint99_linear_2224_129)" stroke-opacity="0.6" stroke-miterlimit="10"/>
<path d="M2720.59 391.562L2765.08 1220.3L2810.23 2048.77L2111.7 1740.31L1413.18 1431.85L2067.22 911.571L2720.59 391.562Z" stroke="url(#paint100_linear_2224_129)" stroke-opacity="0.6" stroke-miterlimit="10"/>
<path d="M2786.37 361.307L2805.21 1256.59L2824.05 2151.87L2086.8 1791.16L1349.56 1430.46L2067.97 895.883L2786.37 361.307Z" stroke="url(#paint101_linear_2224_129)" stroke-opacity="0.6" stroke-miterlimit="10"/>
<defs>
<linearGradient id="paint0_linear_2224_129" x1="1089.15" y1="2210.47" x2="1112.42" y2="2252.54" gradientUnits="userSpaceOnUse">
<stop stop-color="#4D58FF"/>
<stop offset="1" stop-color="#4D58FF"/>
</linearGradient>
<linearGradient id="paint1_linear_2224_129" x1="1088.91" y1="2209.38" x2="1113.99" y2="2254.73" gradientUnits="userSpaceOnUse">
<stop stop-color="#4D58FF"/>
<stop offset="1" stop-color="#4D58FF"/>
</linearGradient>
<linearGradient id="paint2_linear_2224_129" x1="1087.86" y1="2208.14" x2="1115" y2="2257.22" gradientUnits="userSpaceOnUse">
<stop stop-color="#4D58FF"/>
<stop offset="1" stop-color="#4D58FF"/>
</linearGradient>
<linearGradient id="paint3_linear_2224_129" x1="1087.36" y1="2206.58" x2="1116.57" y2="2259.4" gradientUnits="userSpaceOnUse">
<stop stop-color="#4D58FF"/>
<stop offset="1" stop-color="#4D58FF"/>
</linearGradient>
<linearGradient id="paint4_linear_2224_129" x1="1086.31" y1="2205.33" x2="1117.85" y2="2262.36" gradientUnits="userSpaceOnUse">
<stop stop-color="#4D58FF"/>
<stop offset="1" stop-color="#4D58FF"/>
</linearGradient>
<linearGradient id="paint5_linear_2224_129" x1="1086.28" y1="2204.13" x2="1120.14" y2="2265.36" gradientUnits="userSpaceOnUse">
<stop stop-color="#4D58FF"/>
<stop offset="1" stop-color="#4D58FF"/>
</linearGradient>
<linearGradient id="paint6_linear_2224_129" x1="1085.5" y1="2202.72" x2="1121.95" y2="2268.64" gradientUnits="userSpaceOnUse">
<stop stop-color="#4D58FF"/>
<stop offset="1" stop-color="#4D58FF"/>
</linearGradient>
<linearGradient id="paint7_linear_2224_129" x1="1084.94" y1="2201.21" x2="1124.23" y2="2272.26" gradientUnits="userSpaceOnUse">
<stop stop-color="#4D58FF"/>
<stop offset="1" stop-color="#4D58FF"/>
</linearGradient>
<linearGradient id="paint8_linear_2224_129" x1="1083.6" y1="2200.11" x2="1125.74" y2="2276.31" gradientUnits="userSpaceOnUse">
<stop stop-color="#4D58FF"/>
<stop offset="1" stop-color="#4D58FF"/>
</linearGradient>
<linearGradient id="paint9_linear_2224_129" x1="1082.95" y1="2199.26" x2="1127.92" y2="2280.59" gradientUnits="userSpaceOnUse">
<stop stop-color="#4D58FF"/>
<stop offset="1" stop-color="#4D58FF"/>
</linearGradient>
<linearGradient id="paint10_linear_2224_129" x1="1083.05" y1="2197.98" x2="1130.87" y2="2284.46" gradientUnits="userSpaceOnUse">
<stop stop-color="#4D58FF"/>
<stop offset="1" stop-color="#4D58FF"/>
</linearGradient>
<linearGradient id="paint11_linear_2224_129" x1="1081.79" y1="2196.84" x2="1133.23" y2="2289.87" gradientUnits="userSpaceOnUse">
<stop stop-color="#4D58FF"/>
<stop offset="1" stop-color="#4D58FF"/>
</linearGradient>
<linearGradient id="paint12_linear_2224_129" x1="1081.76" y1="2195.64" x2="1136.56" y2="2294.74" gradientUnits="userSpaceOnUse">
<stop stop-color="#4D58FF"/>
<stop offset="1" stop-color="#4D58FF"/>
</linearGradient>
<linearGradient id="paint13_linear_2224_129" x1="1081.43" y1="2195.21" x2="1139.59" y2="2300.39" gradientUnits="userSpaceOnUse">
<stop stop-color="#4D58FF"/>
<stop offset="1" stop-color="#4D58FF"/>
</linearGradient>
<linearGradient id="paint14_linear_2224_129" x1="1081.05" y1="2194.2" x2="1143.09" y2="2306.39" gradientUnits="userSpaceOnUse">
<stop stop-color="#4D58FF"/>
<stop offset="1" stop-color="#4D58FF"/>
</linearGradient>
<linearGradient id="paint15_linear_2224_129" x1="1080.37" y1="2193.96" x2="1146.29" y2="2313.17" gradientUnits="userSpaceOnUse">
<stop stop-color="#4D58FF"/>
<stop offset="1" stop-color="#4D58FF"/>
</linearGradient>
<linearGradient id="paint16_linear_2224_129" x1="1080.11" y1="2193.5" x2="1150.16" y2="2320.18" gradientUnits="userSpaceOnUse">
<stop stop-color="#4D58FF"/>
<stop offset="1" stop-color="#4D58FF"/>
</linearGradient>
<linearGradient id="paint17_linear_2224_129" x1="1080.32" y1="2193.38" x2="1154.51" y2="2327.54" gradientUnits="userSpaceOnUse">
<stop stop-color="#4D58FF"/>
<stop offset="1" stop-color="#4D58FF"/>
</linearGradient>
<linearGradient id="paint18_linear_2224_129" x1="1080.23" y1="2194.04" x2="1158.55" y2="2335.68" gradientUnits="userSpaceOnUse">
<stop stop-color="#4D58FF"/>
<stop offset="1" stop-color="#4D58FF"/>
</linearGradient>
<linearGradient id="paint19_linear_2224_129" x1="1080.76" y1="2194.36" x2="1163.48" y2="2343.94" gradientUnits="userSpaceOnUse">
<stop stop-color="#4D58FF"/>
<stop offset="1" stop-color="#4D58FF"/>
</linearGradient>
<linearGradient id="paint20_linear_2224_129" x1="1081.56" y1="2195.14" x2="1168.93" y2="2353.14" gradientUnits="userSpaceOnUse">
<stop stop-color="#4D58FF"/>
<stop offset="1" stop-color="#4D58FF"/>
</linearGradient>
<linearGradient id="paint21_linear_2224_129" x1="1078.39" y1="2189.57" x2="1174.03" y2="2362.53" gradientUnits="userSpaceOnUse">
<stop stop-color="#4D58FF"/>
<stop offset="1" stop-color="#4D58FF"/>
</linearGradient>
<linearGradient id="paint22_linear_2224_129" x1="1074.61" y1="2183.72" x2="1179.55" y2="2373.51" gradientUnits="userSpaceOnUse">
<stop stop-color="#4D58FF"/>
<stop offset="1" stop-color="#4D58FF"/>
</linearGradient>
<linearGradient id="paint23_linear_2224_129" x1="1070.98" y1="2177.18" x2="1185.5" y2="2384.26" gradientUnits="userSpaceOnUse">
<stop stop-color="#4D58FF"/>
<stop offset="1" stop-color="#4D58FF"/>
</linearGradient>
<linearGradient id="paint24_linear_2224_129" x1="1067.06" y1="2169.59" x2="1192.17" y2="2395.83" gradientUnits="userSpaceOnUse">
<stop stop-color="#4D58FF"/>
<stop offset="1" stop-color="#4D58FF"/>
</linearGradient>
<linearGradient id="paint25_linear_2224_129" x1="1062.31" y1="2161.83" x2="1198.54" y2="2408.18" gradientUnits="userSpaceOnUse">
<stop stop-color="#4D58FF"/>
<stop offset="1" stop-color="#4D58FF"/>
</linearGradient>
<linearGradient id="paint26_linear_2224_129" x1="1057.93" y1="2153.27" x2="1206.05" y2="2421.12" gradientUnits="userSpaceOnUse">
<stop stop-color="#4D58FF"/>
<stop offset="1" stop-color="#4D58FF"/>
</linearGradient>
<linearGradient id="paint27_linear_2224_129" x1="1052.49" y1="2144.07" x2="1213.53" y2="2435.3" gradientUnits="userSpaceOnUse">
<stop stop-color="#4D58FF"/>
<stop offset="1" stop-color="#4D58FF"/>
</linearGradient>
<linearGradient id="paint28_linear_2224_129" x1="1046.94" y1="2133.71" x2="1221.68" y2="2449.71" gradientUnits="userSpaceOnUse">
<stop stop-color="#4D58FF"/>
<stop offset="1" stop-color="#4D58FF"/>
</linearGradient>
<linearGradient id="paint29_linear_2224_129" x1="1041.03" y1="2121.72" x2="1230.76" y2="2464.83" gradientUnits="userSpaceOnUse">
<stop stop-color="#4D58FF"/>
<stop offset="1" stop-color="#4D58FF"/>
</linearGradient>
<linearGradient id="paint30_linear_2224_129" x1="1034.31" y1="2109.57" x2="1239.55" y2="2480.73" gradientUnits="userSpaceOnUse">
<stop stop-color="#4D58FF"/>
<stop offset="1" stop-color="#4D58FF"/>
</linearGradient>
<linearGradient id="paint31_linear_2224_129" x1="1026.93" y1="2096.56" x2="1248.71" y2="2497.63" gradientUnits="userSpaceOnUse">
<stop stop-color="#4D58FF"/>
<stop offset="1" stop-color="#4D58FF"/>
</linearGradient>
<linearGradient id="paint32_linear_2224_129" x1="1018.77" y1="2082.14" x2="1258.39" y2="2515.48" gradientUnits="userSpaceOnUse">
<stop stop-color="#4D58FF"/>
<stop offset="1" stop-color="#4D58FF"/>
</linearGradient>
<linearGradient id="paint33_linear_2224_129" x1="1010.51" y1="2066.57" x2="1269.01" y2="2534.02" gradientUnits="userSpaceOnUse">
<stop stop-color="#4D58FF"/>
<stop offset="1" stop-color="#4D58FF"/>
</linearGradient>
<linearGradient id="paint34_linear_2224_129" x1="1001.13" y1="2049.78" x2="1279.53" y2="2553.23" gradientUnits="userSpaceOnUse">
<stop stop-color="#4D58FF"/>
<stop offset="1" stop-color="#4D58FF"/>
</linearGradient>
<linearGradient id="paint35_linear_2224_129" x1="990.684" y1="2032.36" x2="1290.02" y2="2573.68" gradientUnits="userSpaceOnUse">
<stop stop-color="#4D58FF"/>
<stop offset="1" stop-color="#4D58FF"/>
</linearGradient>
<linearGradient id="paint36_linear_2224_129" x1="979.963" y1="2012.65" x2="1301.79" y2="2594.64" gradientUnits="userSpaceOnUse">
<stop stop-color="#4D58FF"/>
<stop offset="1" stop-color="#4D58FF"/>
</linearGradient>
<linearGradient id="paint37_linear_2224_129" x1="968.601" y1="1991.47" x2="1313.95" y2="2615.99" gradientUnits="userSpaceOnUse">
<stop stop-color="#4D58FF"/>
<stop offset="1" stop-color="#4D58FF"/>
</linearGradient>
<linearGradient id="paint38_linear_2224_129" x1="956.048" y1="1969.11" x2="1326.21" y2="2638.51" gradientUnits="userSpaceOnUse">
<stop stop-color="#4D58FF"/>
<stop offset="1" stop-color="#4D58FF"/>
</linearGradient>
<linearGradient id="paint39_linear_2224_129" x1="942.946" y1="1944.62" x2="1339.22" y2="2661.23" gradientUnits="userSpaceOnUse">
<stop stop-color="#4D58FF"/>
<stop offset="1" stop-color="#4D58FF"/>
</linearGradient>
<linearGradient id="paint40_linear_2224_129" x1="927.837" y1="1918.79" x2="1351.77" y2="2685.42" gradientUnits="userSpaceOnUse">
<stop stop-color="#4D58FF"/>
<stop offset="1" stop-color="#4D58FF"/>
</linearGradient>
<linearGradient id="paint41_linear_2224_129" x1="913.016" y1="1890.36" x2="1365.64" y2="2708.88" gradientUnits="userSpaceOnUse">
<stop stop-color="#4D58FF"/>
<stop offset="1" stop-color="#4D58FF"/>
</linearGradient>
<linearGradient id="paint42_linear_2224_129" x1="896.535" y1="1860.41" x2="1379.4" y2="2733.62" gradientUnits="userSpaceOnUse">
<stop stop-color="#4D58FF"/>
<stop offset="1" stop-color="#4D58FF"/>
</linearGradient>
<linearGradient id="paint43_linear_2224_129" x1="878.249" y1="1829.01" x2="1392.65" y2="2759.25" gradientUnits="userSpaceOnUse">
<stop stop-color="#4D58FF"/>
<stop offset="1" stop-color="#4D58FF"/>
</linearGradient>
<linearGradient id="paint44_linear_2224_129" x1="859.439" y1="1794.86" x2="1406.67" y2="2784.46" gradientUnits="userSpaceOnUse">
<stop stop-color="#4D58FF"/>
<stop offset="1" stop-color="#4D58FF"/>
</linearGradient>
<linearGradient id="paint45_linear_2224_129" x1="839.337" y1="1758.36" x2="1420.69" y2="2809.67" gradientUnits="userSpaceOnUse">
<stop stop-color="#4D58FF"/>
<stop offset="1" stop-color="#4D58FF"/>
</linearGradient>
<linearGradient id="paint46_linear_2224_129" x1="818.406" y1="1719.88" x2="1435.17" y2="2835.23" gradientUnits="userSpaceOnUse">
<stop stop-color="#4D58FF"/>
<stop offset="1" stop-color="#4D58FF"/>
</linearGradient>
<linearGradient id="paint47_linear_2224_129" x1="795.926" y1="1678.6" x2="1449.4" y2="2860.33" gradientUnits="userSpaceOnUse">
<stop stop-color="#4D58FF"/>
<stop offset="1" stop-color="#4D58FF"/>
</linearGradient>
<linearGradient id="paint48_linear_2224_129" x1="771.545" y1="1634.7" x2="1463.02" y2="2885.15" gradientUnits="userSpaceOnUse">
<stop stop-color="#4D58FF"/>
<stop offset="1" stop-color="#4D58FF"/>
</linearGradient>
<linearGradient id="paint49_linear_2224_129" x1="745.731" y1="1588.55" x2="1475.98" y2="2909.11" gradientUnits="userSpaceOnUse">
<stop stop-color="#4D58FF"/>
<stop offset="1" stop-color="#4D58FF"/>
</linearGradient>
<linearGradient id="paint50_linear_2224_129" x1="718.576" y1="1539.47" x2="1488.89" y2="2932.49" gradientUnits="userSpaceOnUse">
<stop stop-color="#4D58FF"/>
<stop offset="1" stop-color="#4D58FF"/>
</linearGradient>
<linearGradient id="paint51_linear_2224_129" x1="2449.13" y1="1049.66" x2="2428" y2="1092.85" gradientUnits="userSpaceOnUse">
<stop stop-color="#4D58FF"/>
<stop offset="1" stop-color="#4D58FF"/>
</linearGradient>
<linearGradient id="paint52_linear_2224_129" x1="2449.89" y1="1048.84" x2="2427.11" y2="1095.39" gradientUnits="userSpaceOnUse">
<stop stop-color="#4D58FF"/>
<stop offset="1" stop-color="#4D58FF"/>
</linearGradient>
<linearGradient id="paint53_linear_2224_129" x1="2450.3" y1="1047.26" x2="2425.65" y2="1097.65" gradientUnits="userSpaceOnUse">
<stop stop-color="#4D58FF"/>
<stop offset="1" stop-color="#4D58FF"/>
</linearGradient>
<linearGradient id="paint54_linear_2224_129" x1="2451.29" y1="1045.96" x2="2424.76" y2="1100.18" gradientUnits="userSpaceOnUse">
<stop stop-color="#4D58FF"/>
<stop offset="1" stop-color="#4D58FF"/>
</linearGradient>
<linearGradient id="paint55_linear_2224_129" x1="2451.71" y1="1044.39" x2="2423.07" y2="1102.92" gradientUnits="userSpaceOnUse">
<stop stop-color="#4D58FF"/>
<stop offset="1" stop-color="#4D58FF"/>
</linearGradient>
<linearGradient id="paint56_linear_2224_129" x1="2452.68" y1="1043.67" x2="2421.93" y2="1106.53" gradientUnits="userSpaceOnUse">
<stop stop-color="#4D58FF"/>
<stop offset="1" stop-color="#4D58FF"/>
</linearGradient>
<linearGradient id="paint57_linear_2224_129" x1="2453.38" y1="1042.23" x2="2420.28" y2="1109.88" gradientUnits="userSpaceOnUse">
<stop stop-color="#4D58FF"/>
<stop offset="1" stop-color="#4D58FF"/>
</linearGradient>
<linearGradient id="paint58_linear_2224_129" x1="2454.3" y1="1040.9" x2="2418.62" y2="1113.83" gradientUnits="userSpaceOnUse">
<stop stop-color="#4D58FF"/>
<stop offset="1" stop-color="#4D58FF"/>
</linearGradient>
<linearGradient id="paint59_linear_2224_129" x1="2454.43" y1="1039.18" x2="2416.17" y2="1117.39" gradientUnits="userSpaceOnUse">
<stop stop-color="#4D58FF"/>
<stop offset="1" stop-color="#4D58FF"/>
</linearGradient>
<linearGradient id="paint60_linear_2224_129" x1="2454.76" y1="1038.15" x2="2413.91" y2="1121.63" gradientUnits="userSpaceOnUse">
<stop stop-color="#4D58FF"/>
<stop offset="1" stop-color="#4D58FF"/>
</linearGradient>
<linearGradient id="paint61_linear_2224_129" x1="2455.87" y1="1037.5" x2="2412.44" y2="1126.27" gradientUnits="userSpaceOnUse">
<stop stop-color="#4D58FF"/>
<stop offset="1" stop-color="#4D58FF"/>
</linearGradient>
<linearGradient id="paint62_linear_2224_129" x1="2456.07" y1="1035.81" x2="2409.36" y2="1131.3" gradientUnits="userSpaceOnUse">
<stop stop-color="#4D58FF"/>
<stop offset="1" stop-color="#4D58FF"/>
</linearGradient>
<linearGradient id="paint63_linear_2224_129" x1="2457.04" y1="1035.1" x2="2407.28" y2="1136.82" gradientUnits="userSpaceOnUse">
<stop stop-color="#4D58FF"/>
<stop offset="1" stop-color="#4D58FF"/>
</linearGradient>
<linearGradient id="paint64_linear_2224_129" x1="2457.2" y1="1034.58" x2="2404.38" y2="1142.54" gradientUnits="userSpaceOnUse">
<stop stop-color="#4D58FF"/>
<stop offset="1" stop-color="#4D58FF"/>
</linearGradient>
<linearGradient id="paint65_linear_2224_129" x1="2457.82" y1="1033.69" x2="2401.48" y2="1148.85" gradientUnits="userSpaceOnUse">
<stop stop-color="#4D58FF"/>
<stop offset="1" stop-color="#4D58FF"/>
</linearGradient>
<linearGradient id="paint66_linear_2224_129" x1="2457.62" y1="1033" x2="2397.76" y2="1155.36" gradientUnits="userSpaceOnUse">
<stop stop-color="#4D58FF"/>
<stop offset="1" stop-color="#4D58FF"/>
</linearGradient>
<linearGradient id="paint67_linear_2224_129" x1="2457.85" y1="1032.52" x2="2394.23" y2="1162.55" gradientUnits="userSpaceOnUse">
<stop stop-color="#4D58FF"/>
<stop offset="1" stop-color="#4D58FF"/>
</linearGradient>
<linearGradient id="paint68_linear_2224_129" x1="2458.07" y1="1032.63" x2="2390.69" y2="1170.34" gradientUnits="userSpaceOnUse">
<stop stop-color="#4D58FF"/>
<stop offset="1" stop-color="#4D58FF"/>
</linearGradient>
<linearGradient id="paint69_linear_2224_129" x1="2457.47" y1="1032.93" x2="2386.34" y2="1178.32" gradientUnits="userSpaceOnUse">
<stop stop-color="#4D58FF"/>
<stop offset="1" stop-color="#4D58FF"/>
</linearGradient>
<linearGradient id="paint70_linear_2224_129" x1="2457.52" y1="1033.55" x2="2382.4" y2="1187.09" gradientUnits="userSpaceOnUse">
<stop stop-color="#4D58FF"/>
<stop offset="1" stop-color="#4D58FF"/>
</linearGradient>
<linearGradient id="paint71_linear_2224_129" x1="2457.34" y1="1034.65" x2="2377.99" y2="1196.83" gradientUnits="userSpaceOnUse">
<stop stop-color="#4D58FF"/>
<stop offset="1" stop-color="#4D58FF"/>
</linearGradient>
<linearGradient id="paint72_linear_2224_129" x1="2460.08" y1="1028.86" x2="2373.22" y2="1206.39" gradientUnits="userSpaceOnUse">
<stop stop-color="#4D58FF"/>
<stop offset="1" stop-color="#4D58FF"/>
</linearGradient>
<linearGradient id="paint73_linear_2224_129" x1="2462.7" y1="1022.41" x2="2367.39" y2="1217.21" gradientUnits="userSpaceOnUse">
<stop stop-color="#4D58FF"/>
<stop offset="1" stop-color="#4D58FF"/>
</linearGradient>
<linearGradient id="paint74_linear_2224_129" x1="2465.99" y1="1015.69" x2="2361.99" y2="1228.25" gradientUnits="userSpaceOnUse">
<stop stop-color="#4D58FF"/>
<stop offset="1" stop-color="#4D58FF"/>
</linearGradient>
<linearGradient id="paint75_linear_2224_129" x1="2469.96" y1="1008.12" x2="2356.34" y2="1240.35" gradientUnits="userSpaceOnUse">
<stop stop-color="#4D58FF"/>
<stop offset="1" stop-color="#4D58FF"/>
</linearGradient>
<linearGradient id="paint76_linear_2224_129" x1="2473.59" y1="999.783" x2="2349.87" y2="1252.65" gradientUnits="userSpaceOnUse">
<stop stop-color="#4D58FF"/>
<stop offset="1" stop-color="#4D58FF"/>
</linearGradient>
<linearGradient id="paint77_linear_2224_129" x1="2478.09" y1="991.285" x2="2343.58" y2="1266.22" gradientUnits="userSpaceOnUse">
<stop stop-color="#4D58FF"/>
<stop offset="1" stop-color="#4D58FF"/>
</linearGradient>
<linearGradient id="paint78_linear_2224_129" x1="2482.51" y1="981.549" x2="2336.25" y2="1280.48" gradientUnits="userSpaceOnUse">
<stop stop-color="#4D58FF"/>
<stop offset="1" stop-color="#4D58FF"/>
</linearGradient>
<linearGradient id="paint79_linear_2224_129" x1="2487.81" y1="971.062" x2="2329.12" y2="1295.42" gradientUnits="userSpaceOnUse">
<stop stop-color="#4D58FF"/>
<stop offset="1" stop-color="#4D58FF"/>
</linearGradient>
<linearGradient id="paint80_linear_2224_129" x1="2494.25" y1="959.344" x2="2321.94" y2="1311.53" gradientUnits="userSpaceOnUse">
<stop stop-color="#4D58FF"/>
<stop offset="1" stop-color="#4D58FF"/>
</linearGradient>
<linearGradient id="paint81_linear_2224_129" x1="2500.35" y1="946.868" x2="2313.95" y2="1327.84" gradientUnits="userSpaceOnUse">
<stop stop-color="#4D58FF"/>
<stop offset="1" stop-color="#4D58FF"/>
</linearGradient>
<linearGradient id="paint82_linear_2224_129" x1="2506.78" y1="933.362" x2="2305.36" y2="1345.05" gradientUnits="userSpaceOnUse">
<stop stop-color="#4D58FF"/>
<stop offset="1" stop-color="#4D58FF"/>
</linearGradient>
<linearGradient id="paint83_linear_2224_129" x1="2513.91" y1="918.416" x2="2296.29" y2="1363.21" gradientUnits="userSpaceOnUse">
<stop stop-color="#4D58FF"/>
<stop offset="1" stop-color="#4D58FF"/>
</linearGradient>
<linearGradient id="paint84_linear_2224_129" x1="2521.93" y1="902.72" x2="2287.18" y2="1382.54" gradientUnits="userSpaceOnUse">
<stop stop-color="#4D58FF"/>
<stop offset="1" stop-color="#4D58FF"/>
</linearGradient>
<linearGradient id="paint85_linear_2224_129" x1="2530.31" y1="885.41" x2="2277.48" y2="1402.17" gradientUnits="userSpaceOnUse">
<stop stop-color="#4D58FF"/>
<stop offset="1" stop-color="#4D58FF"/>
</linearGradient>
<linearGradient id="paint86_linear_2224_129" x1="2538.59" y1="866.862" x2="2266.74" y2="1422.49" gradientUnits="userSpaceOnUse">
<stop stop-color="#4D58FF"/>
<stop offset="1" stop-color="#4D58FF"/>
</linearGradient>
<linearGradient id="paint87_linear_2224_129" x1="2548.59" y1="846.777" x2="2256.32" y2="1444.15" gradientUnits="userSpaceOnUse">
<stop stop-color="#4D58FF"/>
<stop offset="1" stop-color="#4D58FF"/>
</linearGradient>
<linearGradient id="paint88_linear_2224_129" x1="2559.43" y1="825.321" x2="2245.8" y2="1466.36" gradientUnits="userSpaceOnUse">
<stop stop-color="#4D58FF"/>
<stop offset="1" stop-color="#4D58FF"/>
</linearGradient>
<linearGradient id="paint89_linear_2224_129" x1="2570.55" y1="802.217" x2="2234.38" y2="1489.32" gradientUnits="userSpaceOnUse">
<stop stop-color="#4D58FF"/>
<stop offset="1" stop-color="#4D58FF"/>
</linearGradient>
<linearGradient id="paint90_linear_2224_129" x1="2583.1" y1="777.438" x2="2223.22" y2="1513" gradientUnits="userSpaceOnUse">
<stop stop-color="#4D58FF"/>
<stop offset="1" stop-color="#4D58FF"/>
</linearGradient>
<linearGradient id="paint91_linear_2224_129" x1="2595.6" y1="750.249" x2="2210.6" y2="1537.15" gradientUnits="userSpaceOnUse">
<stop stop-color="#4D58FF"/>
<stop offset="1" stop-color="#4D58FF"/>
</linearGradient>
<linearGradient id="paint92_linear_2224_129" x1="2610.39" y1="721.805" x2="2199.34" y2="1561.97" gradientUnits="userSpaceOnUse">
<stop stop-color="#4D58FF"/>
<stop offset="1" stop-color="#4D58FF"/>
</linearGradient>
<linearGradient id="paint93_linear_2224_129" x1="2625.48" y1="691.129" x2="2186.96" y2="1587.43" gradientUnits="userSpaceOnUse">
<stop stop-color="#4D58FF"/>
<stop offset="1" stop-color="#4D58FF"/>
</linearGradient>
<linearGradient id="paint94_linear_2224_129" x1="2640.72" y1="658.146" x2="2173.55" y2="1612.98" gradientUnits="userSpaceOnUse">
<stop stop-color="#4D58FF"/>
<stop offset="1" stop-color="#4D58FF"/>
</linearGradient>
<linearGradient id="paint95_linear_2224_129" x1="2657.92" y1="623.15" x2="2160.94" y2="1638.92" gradientUnits="userSpaceOnUse">
<stop stop-color="#4D58FF"/>
<stop offset="1" stop-color="#4D58FF"/>
</linearGradient>
<linearGradient id="paint96_linear_2224_129" x1="2676.29" y1="585.753" x2="2148.32" y2="1664.86" gradientUnits="userSpaceOnUse">
<stop stop-color="#4D58FF"/>
<stop offset="1" stop-color="#4D58FF"/>
</linearGradient>
<linearGradient id="paint97_linear_2224_129" x1="2695.81" y1="546.543" x2="2135.69" y2="1691.39" gradientUnits="userSpaceOnUse">
<stop stop-color="#4D58FF"/>
<stop offset="1" stop-color="#4D58FF"/>
</linearGradient>
<linearGradient id="paint98_linear_2224_129" x1="2716.74" y1="504.452" x2="2123.28" y2="1717.43" gradientUnits="userSpaceOnUse">
<stop stop-color="#4D58FF"/>
<stop offset="1" stop-color="#4D58FF"/>
</linearGradient>
<linearGradient id="paint99_linear_2224_129" x1="2738.73" y1="459.308" x2="2110.76" y2="1742.82" gradientUnits="userSpaceOnUse">
<stop stop-color="#4D58FF"/>
<stop offset="1" stop-color="#4D58FF"/>
</linearGradient>
<linearGradient id="paint100_linear_2224_129" x1="2761.74" y1="411.694" x2="2098.56" y2="1767.18" gradientUnits="userSpaceOnUse">
<stop stop-color="#4D58FF"/>
<stop offset="1" stop-color="#4D58FF"/>
</linearGradient>
<linearGradient id="paint101_linear_2224_129" x1="2786.37" y1="361.307" x2="2086.8" y2="1791.16" gradientUnits="userSpaceOnUse">
<stop stop-color="#4D58FF"/>
<stop offset="1" stop-color="#4D58FF"/>
</linearGradient>
</defs>
</svg>
