<svg width="2622" height="1956" viewBox="0 0 2622 1956" fill="none" xmlns="http://www.w3.org/2000/svg">
<path d="M1590.94 1081.44L1656.41 1156.78C1681.99 1186.21 1729.83 1176.92 1742.54 1140.05L1775.05 1045.69C1787.76 1008.82 1755.77 972.036 1717.5 979.465L1619.53 998.5C1581.23 1005.93 1565.37 1052.01 1590.94 1081.44Z" stroke="#293DFF" stroke-width="0.566897" stroke-miterlimit="10"/>
<path d="M1574.26 1085.47L1663.12 1176.05C1689.99 1205.07 1738.2 1194.13 1749.91 1156.35L1783.91 1034.11C1795.61 996.322 1762.03 960.045 1723.46 968.796L1600.58 1000.48C1562.01 1009.22 1547.38 1056.44 1574.26 1085.47Z" stroke="#4051FF" stroke-width="0.566897" stroke-miterlimit="10"/>
<path d="M1557.57 1089.5L1669.85 1195.31C1698.02 1223.93 1746.59 1211.33 1757.31 1172.63L1792.81 1022.5C1803.52 983.793 1768.32 948.02 1729.45 958.102L1581.68 1002.43C1542.78 1012.5 1529.41 1060.87 1557.57 1089.5Z" stroke="#5764FF" stroke-width="0.566897" stroke-miterlimit="10"/>
<path d="M1540.88 1093.52L1676.56 1214.57C1706.01 1242.79 1754.96 1228.54 1764.66 1188.92L1801.66 1010.9C1811.37 971.284 1774.55 936.009 1735.39 947.419L1562.72 1004.39C1523.56 1015.79 1511.44 1065.31 1540.88 1093.52Z" stroke="#6E78FF" stroke-width="0.566897" stroke-miterlimit="10"/>
<path d="M1524.2 1097.55L1683.28 1233.84C1714.02 1261.65 1763.34 1245.75 1772.05 1205.21L1810.55 999.302C1819.26 958.777 1780.83 924.005 1741.37 936.737L1543.81 1006.36C1504.33 1019.08 1493.45 1069.74 1524.2 1097.55Z" stroke="#848CFF" stroke-width="0.566897" stroke-miterlimit="10"/>
<path d="M1507.51 1101.58L1689.99 1253.1C1722.02 1280.51 1771.72 1262.95 1779.43 1221.5L1819.42 987.702C1827.13 946.251 1787.09 911.998 1747.33 926.046L1524.86 1008.31C1485.11 1022.37 1475.47 1074.17 1507.51 1101.58Z" stroke="#9B9FFF" stroke-width="0.566897" stroke-miterlimit="10"/>
<path d="M1491.67 1104.58L1697.56 1271.36C1730.88 1298.35 1780.94 1279.15 1787.65 1236.79L1829.14 975.104C1835.85 932.742 1794.2 898.993 1754.15 914.354L1506.78 1009.26C1466.74 1024.63 1458.33 1077.58 1491.67 1104.58Z" stroke="#B2B3FF" stroke-width="0.566897" stroke-miterlimit="10"/>
<path d="M1489.59 1109.35L1703.64 1271.88C1738.29 1298.19 1788.43 1277.13 1793.89 1233.96L1827.62 967.326C1833.08 924.155 1789.77 891.272 1749.66 908.129L1501.87 1012.24C1461.77 1029.09 1454.94 1083.05 1489.59 1109.35Z" stroke="#94A0FD" stroke-width="0.566897" stroke-miterlimit="10"/>
<path d="M1487.52 1114.14L1709.74 1272.43C1745.71 1298.05 1795.94 1275.13 1800.14 1231.16L1826.11 959.559C1830.32 915.596 1785.35 883.564 1745.17 901.907L1496.98 1015.2C1456.8 1033.55 1451.54 1088.51 1487.52 1114.14Z" stroke="#778CFC" stroke-width="0.566897" stroke-miterlimit="10"/>
<path d="M1485.44 1118.91L1715.82 1272.96C1753.12 1297.89 1803.43 1273.12 1806.38 1228.35L1824.6 951.8C1827.55 907.028 1780.93 875.863 1740.68 895.686L1492.07 1018.18C1451.83 1038.01 1448.14 1093.98 1485.44 1118.91Z" stroke="#5979FA" stroke-width="0.566897" stroke-miterlimit="10"/>
<path d="M1483.36 1123.68L1721.91 1273.49C1760.53 1297.74 1810.92 1271.09 1812.62 1225.53L1823.09 944.03C1824.78 898.457 1776.52 868.142 1736.2 889.46L1487.18 1021.15C1446.86 1042.47 1444.75 1099.43 1483.36 1123.68Z" stroke="#3B66F8" stroke-width="0.566897" stroke-miterlimit="10"/>
<path d="M1481.29 1128.46L1728.01 1274.03C1767.95 1297.59 1818.42 1269.09 1818.86 1222.72L1821.58 936.261C1822.02 889.896 1772.1 860.431 1731.72 883.236L1482.29 1024.11C1441.9 1046.93 1441.35 1104.88 1481.29 1128.46Z" stroke="#1E52F7" stroke-width="0.566897" stroke-miterlimit="10"/>
<path d="M1479.21 1133.23L1734.1 1274.57C1775.36 1297.44 1825.92 1267.07 1825.11 1219.9L1820.06 928.493C1819.24 881.319 1767.67 852.721 1727.23 877.013L1477.38 1027.09C1436.93 1051.39 1437.95 1110.35 1479.21 1133.23Z" stroke="#003FF5" stroke-width="0.566897" stroke-miterlimit="10"/>
<path d="M1479.06 1138.39L1741.98 1273.58C1784.54 1295.46 1834.84 1263.06 1832.5 1215.26L1818.11 919.965C1815.78 872.163 1762.58 844.803 1722.34 870.728L1473.8 1030.84C1433.59 1056.76 1436.49 1116.51 1479.06 1138.39Z" stroke="#0843F7" stroke-width="0.566897" stroke-miterlimit="10"/>
<path d="M1478.91 1143.56L1749.87 1272.59C1793.74 1293.47 1843.76 1259.05 1839.93 1210.61L1816.18 911.441C1812.34 863.004 1757.51 836.897 1717.49 864.439L1470.25 1034.59C1430.25 1062.13 1435.05 1122.66 1478.91 1143.56Z" stroke="#0F47F8" stroke-width="0.566897" stroke-miterlimit="10"/>
<path d="M1478.77 1148.72L1757.77 1271.6C1802.93 1291.49 1852.69 1255.03 1847.34 1205.97L1814.25 902.896C1808.89 853.831 1752.44 828.977 1712.62 858.144L1466.71 1038.32C1426.91 1067.49 1433.6 1128.83 1478.77 1148.72Z" stroke="#174CFA" stroke-width="0.566897" stroke-miterlimit="10"/>
<path d="M1478.62 1153.87L1765.66 1270.6C1812.13 1289.49 1861.62 1251 1854.75 1201.31L1812.32 894.362C1805.45 844.676 1747.37 821.053 1707.76 851.844L1463.16 1042.06C1423.57 1072.86 1432.15 1134.97 1478.62 1153.87Z" stroke="#1E50FC" stroke-width="0.566897" stroke-miterlimit="10"/>
<path d="M1478.47 1159.03L1773.54 1269.61C1821.3 1287.51 1870.54 1246.98 1862.15 1196.66L1810.39 885.831C1802 835.517 1742.29 813.14 1702.91 845.555L1459.62 1045.81C1420.22 1078.24 1430.7 1141.13 1478.47 1159.03Z" stroke="#2554FD" stroke-width="0.566897" stroke-miterlimit="10"/>
<path d="M1478.31 1164.19L1781.43 1268.62C1830.5 1285.52 1879.46 1242.97 1869.57 1192.03L1808.45 877.311C1798.55 826.362 1737.21 805.23 1698.03 839.278L1456.05 1049.57C1416.87 1083.61 1429.25 1147.3 1478.31 1164.19Z" stroke="#2D58FF" stroke-width="0.566897" stroke-miterlimit="10"/>
<path d="M1479.78 1170.7L1790.43 1266.93C1840.72 1282.5 1889.01 1237.81 1877.36 1186.47L1805.36 869.334C1793.71 817.998 1730.84 798.523 1692.21 834.288L1453.55 1055.21C1414.92 1090.95 1429.49 1155.12 1479.78 1170.7Z" stroke="#4167FF" stroke-width="0.566897" stroke-miterlimit="10"/>
<path d="M1481.24 1177.21L1799.42 1265.22C1850.93 1279.47 1898.55 1232.61 1885.14 1180.88L1802.28 861.332C1788.86 809.594 1724.48 791.783 1686.39 829.275L1451.07 1060.81C1412.97 1098.29 1429.74 1162.95 1481.24 1177.21Z" stroke="#5576FF" stroke-width="0.566897" stroke-miterlimit="10"/>
<path d="M1482.71 1183.71L1808.42 1263.53C1861.15 1276.45 1908.1 1227.45 1892.92 1175.32L1799.19 853.338C1784.02 801.213 1718.11 785.06 1680.56 824.269L1448.57 1066.43C1411.03 1105.63 1429.99 1170.78 1482.71 1183.71Z" stroke="#6A85FF" stroke-width="0.566897" stroke-miterlimit="10"/>
<path d="M1484.18 1190.22L1817.42 1261.84C1871.36 1273.43 1917.63 1222.28 1900.7 1169.77L1796.1 845.362C1779.17 792.851 1711.73 778.354 1674.72 819.274L1446.07 1072.06C1409.06 1112.98 1430.23 1178.63 1484.18 1190.22Z" stroke="#7E95FF" stroke-width="0.566897" stroke-miterlimit="10"/>
<path d="M1485.64 1196.73L1826.41 1260.15C1881.58 1270.42 1927.16 1217.11 1908.47 1164.21L1793 837.38C1774.31 784.467 1705.36 771.634 1668.88 814.28L1443.56 1077.69C1407.11 1120.33 1430.47 1186.47 1485.64 1196.73Z" stroke="#92A4FF" stroke-width="0.566897" stroke-miterlimit="10"/>
<path d="M1488.46 1204.36L1836.76 1259.57C1893.15 1268.51 1938.07 1213.06 1917.62 1159.76L1791.28 830.513C1770.82 777.213 1700.34 766.038 1664.41 810.402L1442.44 1084.43C1406.51 1128.79 1432.06 1195.41 1488.46 1204.36Z" stroke="#A6B3FF" stroke-width="0.566897" stroke-miterlimit="10"/>
<path d="M1491.85 1212.65L1847.67 1257.54C1904.92 1264.81 1948.58 1207.38 1926.24 1154.16L1787.2 823.579C1764.87 770.364 1693.31 761.278 1658.39 807.214L1441.61 1092.92C1406.69 1138.87 1434.6 1205.38 1491.85 1212.65Z" stroke="#9DAFFF" stroke-width="0.566897" stroke-miterlimit="10"/>
<path d="M1495.24 1220.97L1858.57 1255.51C1916.68 1261.12 1959.07 1201.72 1934.87 1148.59L1783.12 816.657C1758.92 763.534 1686.28 756.523 1652.38 804.046L1440.8 1101.43C1406.88 1148.96 1437.13 1215.36 1495.24 1220.97Z" stroke="#94AAFF" stroke-width="0.566897" stroke-miterlimit="10"/>
<path d="M1498.64 1229.28L1869.49 1253.48C1928.47 1257.42 1969.59 1196.03 1943.51 1142.99L1779.05 809.724C1752.97 756.686 1679.25 751.765 1646.35 800.868L1439.97 1109.93C1407.07 1159.03 1439.67 1225.33 1498.64 1229.28Z" stroke="#8BA6FF" stroke-width="0.566897" stroke-miterlimit="10"/>
<path d="M1502.03 1237.57L1880.39 1251.44C1940.23 1253.7 1980.08 1190.35 1952.14 1137.39L1774.97 802.789C1747.01 749.836 1672.22 746.997 1640.34 797.687L1439.15 1118.43C1407.26 1169.11 1442.2 1235.31 1502.03 1237.57Z" stroke="#81A2FF" stroke-width="0.566897" stroke-miterlimit="10"/>
<path d="M1505.43 1245.89L1891.31 1249.41C1952.01 1250.01 1990.6 1184.67 1960.77 1131.81L1770.88 795.866C1741.06 743.004 1665.18 742.248 1634.31 794.51L1438.32 1126.93C1407.45 1179.2 1444.74 1245.28 1505.43 1245.89Z" stroke="#789DFF" stroke-width="0.566897" stroke-miterlimit="10"/>
<path d="M1508.83 1254.19L1902.21 1247.38C1963.78 1246.31 2001.09 1179 1969.39 1126.22L1766.8 788.935C1735.09 736.158 1658.15 737.491 1628.29 791.333L1437.49 1135.42C1407.63 1189.28 1447.26 1255.26 1508.83 1254.19Z" stroke="#6F99FF" stroke-width="0.566897" stroke-miterlimit="10"/>
<path d="M1512.84 1264.65L1916 1244.34C1977.37 1241.49 2012.66 1173.27 1979.5 1121.55L1760.33 782.55C1727.18 730.814 1650.47 734.377 1622.24 788.954L1438.25 1148.26C1410.03 1202.83 1451.46 1267.49 1512.84 1264.65Z" stroke="#639CFA" stroke-width="0.566897" stroke-miterlimit="10"/>
<path d="M1516.87 1275.09L1929.81 1241.28C1990.99 1236.66 2024.23 1167.53 1989.64 1116.85L1753.89 776.14C1719.29 725.461 1642.8 731.241 1616.22 786.549L1439.02 1161.07C1412.42 1216.37 1455.67 1279.71 1516.87 1275.09Z" stroke="#589FF5" stroke-width="0.566897" stroke-miterlimit="10"/>
<path d="M1520.87 1285.54L1943.59 1238.23C2004.59 1231.83 2035.78 1161.79 1999.74 1112.17L1747.42 769.737C1711.37 720.108 1635.12 728.11 1610.16 784.137L1439.77 1173.88C1414.82 1229.91 1459.88 1291.94 1520.87 1285.54Z" stroke="#4CA2F1" stroke-width="0.566897" stroke-miterlimit="10"/>
<path d="M1524.89 1295.99L1957.39 1235.18C2018.2 1227 2047.36 1156.05 2009.86 1107.47L1740.95 763.328C1703.46 714.756 1627.44 724.981 1604.12 781.734L1440.53 1186.69C1417.21 1243.45 1464.08 1304.17 1524.89 1295.99Z" stroke="#40A5EC" stroke-width="0.566897" stroke-miterlimit="10"/>
<path d="M1528.91 1306.45L1971.18 1232.14C2031.8 1222.19 2058.91 1150.33 2019.97 1102.81L1734.48 756.929C1695.54 709.406 1619.76 721.853 1598.07 779.34L1441.28 1199.51C1419.61 1257.01 1468.28 1316.4 1528.91 1306.45Z" stroke="#35A8E7" stroke-width="0.566897" stroke-miterlimit="10"/>
<path d="M1532.93 1316.89L1984.98 1229.09C2045.42 1217.34 2070.48 1144.58 2030.1 1098.11L1728.04 750.518C1687.64 704.045 1612.1 718.722 1592.04 776.935L1442.05 1212.33C1422 1270.54 1472.49 1328.64 1532.93 1316.89Z" stroke="#29ABE2" stroke-width="0.566897" stroke-miterlimit="10"/>
<path d="M1538.15 1328.7L1997.99 1223.63C2057.94 1210.16 2080.84 1136.86 2039.21 1091.67L1718.3 745.968C1676.68 700.782 1601.74 717.599 1583.42 776.254L1444.49 1227.03C1426.17 1285.67 1478.21 1342.15 1538.15 1328.7Z" stroke="#22A1DC" stroke-width="0.566897" stroke-miterlimit="10"/>
<path d="M1543.39 1340.5L2011.02 1218.16C2070.48 1202.99 2091.21 1129.14 2048.33 1085.24L1708.57 741.428C1665.7 697.53 1591.38 716.501 1574.8 775.577L1446.92 1241.72C1430.34 1300.8 1483.93 1355.68 1543.39 1340.5Z" stroke="#1B98D5" stroke-width="0.566897" stroke-miterlimit="10"/>
<path d="M1548.61 1352.29L2024.04 1212.7C2083 1195.8 2101.56 1121.41 2057.45 1078.79L1698.84 736.857C1654.73 694.245 1581.02 715.365 1566.17 774.883L1449.35 1256.42C1434.51 1315.92 1489.65 1369.19 1548.61 1352.29Z" stroke="#158ECF" stroke-width="0.566897" stroke-miterlimit="10"/>
<path d="M1553.84 1364.09L2037.06 1207.23C2095.53 1188.61 2111.92 1113.69 2066.56 1072.35L1689.11 732.301C1643.75 690.976 1570.67 714.243 1557.55 774.189L1451.78 1271.1C1438.67 1331.05 1495.37 1382.7 1553.84 1364.09Z" stroke="#0E84C9" stroke-width="0.566897" stroke-miterlimit="10"/>
<path d="M1559.06 1375.89L2050.08 1201.77C2108.05 1181.43 2122.27 1105.95 2075.67 1065.93L1679.38 727.76C1632.77 687.715 1560.3 713.137 1548.93 773.518L1454.22 1285.8C1442.84 1346.18 1501.09 1396.23 1559.06 1375.89Z" stroke="#077BC2" stroke-width="0.566897" stroke-miterlimit="10"/>
<path d="M1562.6 1389.74L2061.4 1198.36C2118.89 1176.3 2130.94 1100.29 2083.1 1061.54L1667.94 725.26C1620.1 686.51 1548.25 714.079 1538.6 774.889L1454.95 1302.55C1445.32 1363.35 1505.12 1411.8 1562.6 1389.74Z" stroke="white" stroke-width="0.566897" stroke-miterlimit="10"/>
<path d="M1568.54 1403.34L2072.13 1191.04C2128.82 1167.37 2138.65 1091.21 2089.8 1053.93L1654.14 723.96C1605.3 686.692 1534.42 716.265 1526.57 777.201L1458.63 1319.48C1450.79 1380.41 1511.84 1427.01 1568.54 1403.34Z" stroke="white" stroke-width="0.566897" stroke-miterlimit="10"/>
<path d="M1574.48 1416.94L2082.86 1183.72C2138.77 1158.45 2146.37 1082.13 2096.52 1046.33L1640.36 722.666C1590.51 686.873 1520.62 718.466 1514.55 779.528L1462.34 1336.41C1456.27 1397.47 1518.57 1442.21 1574.48 1416.94Z" stroke="white" stroke-width="0.566897" stroke-miterlimit="10"/>
<path d="M1580.43 1430.53L2093.6 1176.4C2148.73 1149.52 2154.09 1073.04 2103.24 1038.74L1626.57 721.383C1575.73 687.072 1506.82 720.676 1502.52 781.867L1466.02 1353.34C1461.74 1414.53 1525.29 1457.41 1580.43 1430.53Z" stroke="white" stroke-width="0.566897" stroke-miterlimit="10"/>
<path d="M1586.37 1444.12L2104.32 1169.08C2158.66 1140.59 2161.8 1063.95 2109.95 1031.13L1612.77 720.09C1560.93 687.269 1492.99 722.877 1490.5 784.185L1469.71 1370.27C1467.21 1431.58 1532.02 1472.61 1586.37 1444.12Z" stroke="white" stroke-width="0.566897" stroke-miterlimit="10"/>
<path d="M1592.31 1457.73L2115.06 1161.77C2168.63 1131.67 2169.51 1054.88 2116.68 1023.54L1599 718.796C1546.15 687.458 1479.19 725.07 1478.48 786.513L1473.41 1387.21C1472.69 1448.64 1538.75 1487.81 1592.31 1457.73Z" stroke="white" stroke-width="0.566897" stroke-miterlimit="10"/>
<path d="M1598.25 1471.32L2125.79 1154.45C2178.57 1122.75 2177.23 1045.8 2123.39 1015.94L1585.21 717.508C1531.37 687.651 1465.39 727.283 1466.45 788.845L1477.11 1404.14C1478.16 1465.7 1545.47 1503.02 1598.25 1471.32Z" stroke="white" stroke-width="0.566897" stroke-miterlimit="10"/>
<path d="M1605.22 1485.99L2133.47 1144.9C2185.21 1111.75 2181.64 1035.04 2127.07 1006.81L1567.54 719.88C1512.97 691.652 1448.31 733.099 1451.16 794.469L1482.42 1422.5C1485.27 1483.87 1553.49 1519.15 1605.22 1485.99Z" stroke="#0866B5" stroke-width="0.566897" stroke-miterlimit="10"/>
<path d="M1612.18 1500.67L2141.15 1135.36C2191.83 1100.76 2186.05 1024.27 2130.74 997.685L1549.88 722.232C1494.58 695.64 1431.24 738.888 1435.85 800.082L1487.74 1440.85C1492.38 1502.04 1561.51 1535.27 1612.18 1500.67Z" stroke="#0F5CAE" stroke-width="0.566897" stroke-miterlimit="10"/>
<path d="M1619.14 1515.36L2148.84 1125.83C2198.47 1089.78 2190.47 1013.53 2134.44 988.575L1532.24 724.61C1476.21 699.654 1414.18 744.71 1420.58 805.712L1493.08 1459.22C1499.48 1520.21 1569.51 1551.41 1619.14 1515.36Z" stroke="#1751A7" stroke-width="0.566897" stroke-miterlimit="10"/>
<path d="M1626.11 1530.03L2156.53 1116.26C2205.11 1078.78 2194.88 1002.75 2138.13 979.43L1514.59 726.946C1457.84 703.625 1397.11 750.49 1405.29 811.299L1498.41 1477.53C1506.59 1538.37 1577.53 1567.53 1626.11 1530.03Z" stroke="#1F46A0" stroke-width="0.566897" stroke-miterlimit="10"/>
<path d="M1633.07 1544.71L2164.21 1106.72C2211.73 1067.78 2199.29 991.997 2141.8 970.305L1496.93 729.316C1439.44 707.624 1380.04 756.304 1389.99 816.929L1503.73 1495.91C1513.7 1556.55 1585.55 1583.65 1633.07 1544.71Z" stroke="#263C99" stroke-width="0.566897" stroke-miterlimit="10"/>
<path d="M1640.04 1559.4L2171.9 1097.19C2218.37 1056.8 2203.7 981.252 2145.48 961.195L1479.27 731.695C1421.06 711.639 1362.96 762.128 1374.71 822.567L1509.06 1514.27C1520.79 1574.71 1593.56 1599.79 1640.04 1559.4Z" stroke="#2E3192" stroke-width="0.566897" stroke-miterlimit="10"/>
<path d="M1649.53 1572.57L2176.97 1083.43C2222.16 1041.8 2205.34 966.865 2146.69 948.549L1459.37 736.345C1400.73 718.028 1344.24 770.064 1357.7 830.006L1517.59 1531.35C1531.04 1591.3 1604.35 1614.2 1649.53 1572.57Z" stroke="#2B2C8A" stroke-width="0.566897" stroke-miterlimit="10"/>
<path d="M1659.04 1585.75L2182.05 1069.67C2225.95 1026.79 2206.98 952.48 2147.9 935.896L1439.46 740.998C1380.38 724.414 1325.51 778.004 1340.68 837.463L1526.12 1548.44C1541.29 1607.89 1615.13 1628.62 1659.04 1585.75Z" stroke="#282783" stroke-width="0.566897" stroke-miterlimit="10"/>
<path d="M1668.55 1598.92L2187.14 1055.9C2229.75 1011.8 2208.63 938.083 2149.11 923.24L1419.55 745.639C1360.04 730.788 1306.77 785.94 1323.67 844.901L1534.64 1565.52C1551.54 1624.48 1625.93 1643.04 1668.55 1598.92Z" stroke="#25237B" stroke-width="0.566897" stroke-miterlimit="10"/>
<path d="M1678.05 1612.1L2192.21 1042.15C2233.54 996.791 2210.27 923.711 2150.33 910.592L1399.65 750.297C1339.71 737.185 1288.05 793.885 1306.67 852.347L1543.18 1582.6C1561.78 1641.08 1636.72 1657.46 1678.05 1612.1Z" stroke="#211E73" stroke-width="0.566897" stroke-miterlimit="10"/>
<path d="M1687.55 1625.28L2197.28 1028.39C2237.33 981.786 2211.91 909.315 2151.52 897.945L1379.73 754.947C1319.36 743.568 1269.3 801.814 1289.64 859.801L1551.69 1599.69C1572.03 1657.66 1647.5 1671.88 1687.55 1625.28Z" stroke="#1E196C" stroke-width="0.566897" stroke-miterlimit="10"/>
<path d="M1693.97 1635.91L2199.28 1012.08C2238.03 964.242 2210.46 892.388 2149.65 882.743L1356.75 757.049C1295.94 747.403 1247.5 807.211 1269.55 864.692L1557.15 1614.22C1579.21 1671.71 1655.22 1683.75 1693.97 1635.91Z" stroke="#1B1464" stroke-width="0.566897" stroke-miterlimit="10"/>
<path d="M1705.07 1645.6L2199.78 992.995C2237.05 944.155 2207.48 873.279 2146.54 865.423L1334.02 763.3C1273.08 755.443 1226.49 816.501 1250.15 873.199L1567.96 1627.93C1591.63 1684.63 1667.81 1694.44 1705.07 1645.6Z" stroke="#273276" stroke-width="0.566897" stroke-miterlimit="10"/>
<path d="M1716.18 1655.3L2200.29 973.906C2236.08 924.06 2204.49 854.163 2143.42 848.096L1311.27 769.545C1250.21 763.477 1205.47 825.778 1230.75 881.698L1578.8 1641.64C1604.07 1697.56 1680.4 1705.14 1716.18 1655.3Z" stroke="#345088" stroke-width="0.566897" stroke-miterlimit="10"/>
<path d="M1727.29 1665L2200.78 954.825C2235.09 903.982 2201.49 835.071 2140.3 830.777L1288.53 775.803C1227.35 771.517 1184.46 835.076 1211.35 890.205L1589.63 1655.36C1616.5 1710.49 1692.99 1715.85 1727.29 1665Z" stroke="#406E9A" stroke-width="0.566897" stroke-miterlimit="10"/>
<path d="M1738.4 1674.69L2201.28 935.727C2234.1 883.88 2198.49 815.946 2137.18 813.448L1265.78 782.055C1204.47 779.557 1163.44 844.351 1191.93 898.712L1600.44 1669.06C1628.95 1723.4 1705.58 1726.54 1738.4 1674.69Z" stroke="#4C8CAC" stroke-width="0.566897" stroke-miterlimit="10"/>
<path d="M1749.51 1684.38L2201.78 916.637C2233.12 863.792 2195.51 796.837 2134.07 796.121L1243.04 788.305C1181.6 787.582 1142.43 853.641 1172.53 907.21L1611.28 1682.77C1641.37 1736.33 1718.17 1737.23 1749.51 1684.38Z" stroke="#59AABE" stroke-width="0.566897" stroke-miterlimit="10"/>
<path d="M1760.61 1694.08L2202.28 897.546C2232.14 843.704 2192.51 777.727 2130.95 778.792L1220.29 794.556C1158.73 795.621 1121.41 862.931 1153.11 915.717L1622.1 1696.48C1653.81 1749.25 1730.76 1747.92 1760.61 1694.08Z" stroke="#65C8D0" stroke-width="0.566897" stroke-miterlimit="10"/>
<path d="M1773.84 1699.46L2197.8 873.451C2226.03 818.874 2184.58 754.216 2123.21 757.063L1195.88 802.914C1134.51 805.762 1099.22 873.979 1132.38 925.706L1635.75 1705.87C1668.9 1757.6 1745.62 1754.04 1773.84 1699.46Z" stroke="#54D1D8" stroke-width="0.566897" stroke-miterlimit="10"/>
<path d="M1787.06 1704.85L2193.29 849.349C2219.88 794.047 2176.63 730.705 2115.44 735.321L1171.44 811.268C1110.25 815.891 1077.01 885.019 1111.61 935.698L1649.38 1715.25C1683.99 1765.93 1760.47 1760.15 1787.06 1704.85Z" stroke="#43DAE0" stroke-width="0.566897" stroke-miterlimit="10"/>
<path d="M1800.29 1710.23L2188.81 825.252C2213.76 769.224 2168.71 707.192 2107.7 713.59L1147.03 819.624C1086.03 826.023 1054.84 896.064 1090.88 945.686L1663.04 1724.63C1699.09 1774.26 1775.34 1766.26 1800.29 1710.23Z" stroke="#33E3E8" stroke-width="0.566897" stroke-miterlimit="10"/>
<path d="M1813.51 1715.62L2184.3 801.148C2207.62 744.395 2160.75 683.672 2099.94 691.852L1122.6 827.974C1061.79 836.154 1032.63 907.102 1070.13 955.681L1676.69 1734.02C1714.17 1782.6 1790.2 1772.38 1813.51 1715.62Z" stroke="#22EDEF" stroke-width="0.566897" stroke-miterlimit="10"/>
<path d="M1826.74 1721.01L2179.81 777.055C2201.5 719.569 2152.82 660.164 2092.2 670.12L1098.18 836.337C1037.55 846.293 1010.44 918.153 1049.38 965.675L1690.33 1743.41C1729.27 1790.94 1805.05 1778.49 1826.74 1721.01Z" stroke="white" stroke-width="0.566897" stroke-miterlimit="10"/>
<path d="M1839.97 1726.4L2175.3 752.968C2195.36 694.756 2144.87 636.661 2084.43 648.407L1073.74 844.712C1013.3 856.459 988.233 929.224 1028.62 975.689L1703.97 1752.82C1744.36 1799.29 1819.91 1784.61 1839.97 1726.4Z" stroke="#00FFFF" stroke-width="0.566897" stroke-miterlimit="10"/>
<path d="M1857.98 1728.3L2167.71 726.108C2186.02 667.469 2133.99 610.986 2074.04 624.439L1051.26 857.303C991.308 870.764 968.413 944.072 1010.04 989.258L1723.1 1758.58C1764.72 1803.77 1839.66 1786.94 1857.98 1728.3Z" stroke="#00D4FF" stroke-width="0.566897" stroke-miterlimit="10"/>
<path d="M1875.98 1730.2L2160.1 699.263C2176.68 640.188 2123.09 585.31 2063.63 600.487L1028.76 869.902C969.297 885.078 948.574 958.928 991.449 1002.83L1742.21 1764.35C1785.08 1808.25 1859.41 1789.28 1875.98 1730.2Z" stroke="#00AAFF" stroke-width="0.566897" stroke-miterlimit="10"/>
<path d="M1894 1732.1L2152.5 672.42C2167.35 612.909 2112.2 559.645 2053.24 576.544L1006.27 882.51C947.314 899.408 928.753 973.793 972.871 1016.41L1761.33 1770.13C1805.44 1812.74 1879.15 1791.61 1894 1732.1Z" stroke="#0080FF" stroke-width="0.566897" stroke-miterlimit="10"/>
<path d="M1912 1734L2144.89 645.574C2158 585.636 2101.3 533.969 2042.84 552.589L983.781 895.114C925.31 913.728 908.921 988.654 954.281 1029.99L1780.44 1775.9C1825.81 1817.23 1898.89 1793.96 1912 1734Z" stroke="#0055FF" stroke-width="0.566897" stroke-miterlimit="10"/>
<path d="M1930.02 1735.91L2137.3 618.726C2148.68 558.352 2090.43 508.296 2032.44 528.634L961.295 907.709C903.323 928.045 889.099 1003.52 935.699 1043.55L1799.57 1781.65C1846.17 1821.71 1918.64 1796.29 1930.02 1735.91Z" stroke="white" stroke-width="0.566897" stroke-miterlimit="10"/>
<path d="M1951.69 1733.37L2133.36 587.438C2143.01 526.628 2083.2 478.187 2025.72 500.238L942.474 915.872C884.992 937.923 872.94 1013.94 920.782 1052.69L1822.35 1782.98C1870.2 1821.76 1942.06 1794.19 1951.69 1733.37Z" stroke="#0000FF" stroke-width="0.566897" stroke-miterlimit="10"/>
<g opacity="0.6">
<path d="M484.032 599.311L513.927 654.234C525.607 675.69 556.132 676.461 568.878 655.618L601.498 602.27C614.245 581.427 599.64 554.606 575.219 553.988L512.708 552.419C488.278 551.8 472.353 577.855 484.032 599.311Z" stroke="#293DFF" stroke-width="0.566897" stroke-miterlimit="10"/>
<path d="M473.279 599.526L515.433 666.929C527.954 688.312 558.931 688.119 571.189 666.585L608.484 596.378C620.738 574.838 605.083 548.113 580.303 548.264L500.849 551.072C476.075 551.219 460.754 578.137 473.279 599.526Z" stroke="#4051FF" stroke-width="0.566897" stroke-miterlimit="10"/>
<path d="M462.53 599.737L516.953 679.621C530.326 700.932 561.744 699.775 573.52 677.545L615.494 590.475C627.266 568.239 610.556 541.604 585.412 542.529L489.025 549.715C463.866 550.633 449.158 578.425 462.53 599.737Z" stroke="#5764FF" stroke-width="0.566897" stroke-miterlimit="10"/>
<path d="M451.773 599.946L518.455 692.31C532.669 713.549 564.543 711.434 575.823 688.5L622.471 584.573C633.755 561.645 615.986 535.095 590.487 536.794L477.157 548.358C451.664 550.053 437.563 578.713 451.773 599.946Z" stroke="#6E78FF" stroke-width="0.566897" stroke-miterlimit="10"/>
<path d="M441.024 600.159L519.969 705.009C535.03 726.17 567.35 723.096 578.148 699.467L629.475 578.676C640.271 555.057 621.448 528.598 595.59 531.066L465.321 547.012C439.454 549.469 425.963 578.998 441.024 600.159Z" stroke="#848CFF" stroke-width="0.566897" stroke-miterlimit="10"/>
<path d="M430.268 600.375L521.478 717.7C537.381 738.788 570.152 734.751 580.461 710.429L636.469 572.776C646.778 548.455 626.899 522.097 600.677 525.328L453.466 545.652C427.249 548.889 414.365 579.286 430.268 600.375Z" stroke="#9B9FFF" stroke-width="0.566897" stroke-miterlimit="10"/>
<path d="M420.17 600.078L523.643 729.888C540.393 750.9 573.611 745.903 583.432 720.89L644.114 566.379C653.935 541.366 633.002 515.098 606.426 519.094L442.272 543.795C415.701 547.797 403.416 579.061 420.17 600.078Z" stroke="#B2B3FF" stroke-width="0.566897" stroke-miterlimit="10"/>
<path d="M418.256 602.717L527.296 731.032C544.948 751.802 578.465 745.681 587.628 720.004L644.236 561.416C653.399 535.739 631.336 509.778 604.517 514.679L438.869 544.953C412.06 549.856 400.604 581.947 418.256 602.717Z" stroke="#94A0FD" stroke-width="0.566897" stroke-miterlimit="10"/>
<path d="M416.342 605.362L530.953 732.188C549.507 752.716 583.33 745.467 591.829 719.13L644.359 556.46C652.863 530.129 629.671 504.465 602.614 510.268L435.478 546.109C408.421 551.912 397.784 584.829 416.342 605.362Z" stroke="#778CFC" stroke-width="0.566897" stroke-miterlimit="10"/>
<path d="M414.426 608.003L534.605 733.334C554.06 753.62 588.182 745.247 596.028 718.252L644.479 551.509C652.325 524.514 628.003 499.157 600.703 505.856L432.074 547.269C404.778 553.973 394.971 587.717 414.426 608.003Z" stroke="#5979FA" stroke-width="0.566897" stroke-miterlimit="10"/>
<path d="M412.509 610.641L538.259 734.482C558.616 754.526 593.04 745.02 600.227 717.371L644.604 546.551C651.786 518.896 626.344 493.837 598.801 501.442L428.679 548.427C401.135 556.032 392.158 590.593 412.509 610.641Z" stroke="#3B66F8" stroke-width="0.566897" stroke-miterlimit="10"/>
<path d="M410.599 613.286L541.916 735.632C563.174 755.434 597.898 744.804 604.427 716.491L644.73 541.594C651.253 513.285 624.682 488.524 596.901 497.03L425.286 549.577C397.499 558.087 389.342 593.474 410.599 613.286Z" stroke="#1E52F7" stroke-width="0.566897" stroke-miterlimit="10"/>
<path d="M408.682 615.925L545.571 736.781C567.731 756.342 602.76 744.583 608.625 715.61L644.845 536.636C650.71 507.663 623.01 483.208 594.99 492.616L421.882 550.735C393.857 560.147 386.528 596.36 408.682 615.925Z" stroke="#003FF5" stroke-width="0.566897" stroke-miterlimit="10"/>
<path d="M407.893 619.062L550.524 737.239C573.614 756.371 608.757 743.328 613.778 713.767L644.802 531.155C649.824 501.594 620.965 477.678 592.849 488.112L419.188 552.55C391.087 562.981 384.804 599.931 407.893 619.062Z" stroke="#0843F7" stroke-width="0.566897" stroke-miterlimit="10"/>
<path d="M407.11 622.204L555.489 737.698C579.513 756.396 614.759 742.077 618.947 711.929L644.775 525.68C648.959 495.526 618.93 472.157 590.728 483.609L416.512 554.362C388.319 565.815 383.092 603.502 407.11 622.204Z" stroke="#0F47F8" stroke-width="0.566897" stroke-miterlimit="10"/>
<path d="M406.323 625.341L560.453 738.158C585.403 756.42 620.767 740.823 624.111 710.086L644.745 520.191C648.085 489.449 616.896 466.627 588.603 479.102L413.84 556.17C385.55 568.65 381.373 607.078 406.323 625.341Z" stroke="#174CFA" stroke-width="0.566897" stroke-miterlimit="10"/>
<path d="M405.536 628.475L565.414 738.609C591.299 756.439 626.771 739.562 629.272 708.236L644.714 514.71C647.215 483.384 614.864 461.095 586.478 474.592L411.164 557.98C382.783 571.482 379.657 610.642 405.536 628.475Z" stroke="#1E50FC" stroke-width="0.566897" stroke-miterlimit="10"/>
<path d="M404.75 631.611L570.37 739.067C597.18 756.461 632.77 738.305 634.427 706.391L644.684 509.229C646.34 477.314 612.826 455.569 584.359 470.089L408.492 559.796C380.01 574.32 377.94 614.217 404.75 631.611Z" stroke="#2554FD" stroke-width="0.566897" stroke-miterlimit="10"/>
<path d="M403.96 634.749L575.331 739.527C603.077 756.487 638.77 737.056 639.593 704.554L644.644 503.755C645.463 471.247 610.784 450.044 582.22 465.59L405.798 561.612C377.239 577.155 376.219 617.793 403.96 634.749Z" stroke="#2D58FF" stroke-width="0.566897" stroke-miterlimit="10"/>
<path d="M403.981 638.929L581.066 739.707C609.733 756.018 645.31 735.186 645.105 702.204L643.832 498.457C643.626 465.476 607.79 445.081 579.328 461.752L403.51 564.725C375.055 581.382 375.314 622.61 403.981 638.929Z" stroke="#4167FF" stroke-width="0.566897" stroke-miterlimit="10"/>
<path d="M403.997 643.105L586.797 739.873C616.392 755.538 651.843 733.295 650.619 699.835L643.027 493.146C641.798 459.681 604.808 440.099 576.443 457.899L401.235 567.82C372.87 585.61 374.408 627.435 403.997 643.105Z" stroke="#5576FF" stroke-width="0.566897" stroke-miterlimit="10"/>
<path d="M404.018 647.284L592.531 740.053C623.052 755.073 658.383 731.424 656.13 697.485L642.215 487.839C639.962 453.9 601.816 435.126 573.552 454.05L398.949 570.923C370.69 589.843 373.502 632.261 404.018 647.284Z" stroke="#6A85FF" stroke-width="0.566897" stroke-miterlimit="10"/>
<path d="M404.036 651.465L598.263 740.234C629.706 754.603 664.916 729.548 661.639 695.136L641.4 482.542C638.123 448.129 598.819 430.163 570.652 450.207L396.66 574.026C368.497 594.075 372.592 637.096 404.036 651.465Z" stroke="#7E95FF" stroke-width="0.566897" stroke-miterlimit="10"/>
<path d="M404.05 655.642L603.991 740.411C636.361 754.134 671.44 727.672 667.144 692.782L640.582 477.24C636.282 442.344 595.824 425.191 567.754 446.364L394.366 577.135C366.311 598.304 371.684 641.923 404.05 655.642Z" stroke="#92A4FF" stroke-width="0.566897" stroke-miterlimit="10"/>
<path d="M404.748 660.689L610.407 741.454C643.701 754.527 678.663 726.664 673.338 691.295L640.452 472.805C635.127 437.436 593.513 421.091 565.544 443.388L392.767 581.107C364.804 603.399 371.451 647.611 404.748 660.689Z" stroke="#A6B3FF" stroke-width="0.566897" stroke-miterlimit="10"/>
<path d="M405.705 666.224L617.356 741.681C651.402 753.852 685.858 724.604 679.373 689.033L638.892 468.013C632.407 432.442 589.854 417.231 562.29 440.626L391.119 586.188C363.553 609.592 371.659 654.052 405.705 666.224Z" stroke="#9DAFFF" stroke-width="0.566897" stroke-miterlimit="10"/>
<path d="M406.657 671.77L624.295 741.914C659.094 753.183 693.039 722.555 685.403 686.784L637.333 463.228C629.691 427.461 586.192 413.373 559.04 437.876L389.471 591.287C362.309 615.789 371.858 660.5 406.657 671.77Z" stroke="#94AAFF" stroke-width="0.566897" stroke-miterlimit="10"/>
<path d="M407.617 677.31L631.253 742.142C666.804 752.51 700.244 720.497 691.441 684.528L635.772 458.437C626.97 422.468 582.533 409.514 555.779 435.119L387.818 596.374C361.063 621.979 372.066 666.942 407.617 677.31Z" stroke="#8BA6FF" stroke-width="0.566897" stroke-miterlimit="10"/>
<path d="M408.574 682.843L638.198 742.362C674.503 751.819 707.43 718.434 697.477 682.266L634.213 453.643C624.251 417.473 578.872 405.647 552.53 432.361L386.17 601.464C359.824 628.173 372.27 673.387 408.574 682.843Z" stroke="#81A2FF" stroke-width="0.566897" stroke-miterlimit="10"/>
<path d="M409.53 688.388L645.151 742.596C682.208 751.15 714.63 716.381 703.511 680.015L632.648 448.856C621.529 412.49 575.208 401.793 549.27 429.605L384.517 606.552C358.577 634.373 372.478 679.83 409.53 688.388Z" stroke="#789DFF" stroke-width="0.566897" stroke-miterlimit="10"/>
<path d="M410.487 693.929L652.096 742.823C689.906 750.475 721.817 714.326 709.542 677.754L631.085 444.065C618.805 407.497 571.546 397.933 546.016 426.848L382.86 611.638C357.329 640.563 372.677 686.276 410.487 693.929Z" stroke="#6F99FF" stroke-width="0.566897" stroke-miterlimit="10"/>
<path d="M411.535 700.867L660.943 742.824C698.875 749.36 729.668 712.383 716.358 676.262L627.989 439.286C614.685 403.16 567.269 394.993 542.637 424.577L381.598 619.595C356.971 649.175 373.598 694.326 411.535 700.867Z" stroke="#639CFA" stroke-width="0.566897" stroke-miterlimit="10"/>
<path d="M412.587 707.801L669.8 742.817C707.859 748.242 737.52 710.43 723.19 674.756L624.909 434.495C610.58 398.821 562.998 392.039 539.273 422.293L380.342 627.539C356.608 657.782 374.524 702.371 412.587 707.801Z" stroke="#589FF5" stroke-width="0.566897" stroke-miterlimit="10"/>
<path d="M413.63 714.732L678.646 742.807C716.832 747.121 745.362 708.474 730.007 673.252L621.814 429.704C606.455 394.477 558.722 389.087 535.895 420.001L379.071 635.474C356.248 666.392 375.448 710.424 413.63 714.732Z" stroke="#4CA2F1" stroke-width="0.566897" stroke-miterlimit="10"/>
<path d="M414.677 721.67L687.498 742.803C725.807 746.001 753.218 706.526 736.829 671.745L618.725 424.911C602.34 390.136 554.446 386.137 532.522 417.715L377.805 643.415C355.885 674.998 376.368 718.472 414.677 721.67Z" stroke="#40A5EC" stroke-width="0.566897" stroke-miterlimit="10"/>
<path d="M415.724 728.608L696.344 742.804C734.78 744.891 761.06 704.581 743.645 670.253L615.63 420.123C598.215 385.794 550.17 383.187 529.143 415.434L376.534 651.362C355.521 683.615 377.289 726.522 415.724 728.608Z" stroke="#35A8E7" stroke-width="0.566897" stroke-miterlimit="10"/>
<path d="M416.776 735.541L705.2 742.796C743.764 743.762 768.916 702.623 750.476 668.746L612.549 415.331C594.105 381.449 545.902 380.238 525.778 413.149L375.277 659.304C355.157 692.221 378.212 734.576 416.776 735.541Z" stroke="#29ABE2" stroke-width="0.566897" stroke-miterlimit="10"/>
<path d="M418.38 743.468L713.902 741.211C752.397 741.061 776.293 699.297 756.92 666.036L607.207 411.235C587.834 377.973 539.715 378.154 520.597 411.571L374.789 668.629C355.672 702.036 379.891 743.613 418.38 743.468Z" stroke="#22A1DC" stroke-width="0.566897" stroke-miterlimit="10"/>
<path d="M419.992 751.396L722.609 739.627C761.036 738.362 783.677 695.974 763.366 663.331L601.866 407.144C581.555 374.502 533.528 376.086 515.412 409.993L374.294 677.949C356.179 711.856 381.565 752.661 419.992 751.396Z" stroke="#1B98D5" stroke-width="0.566897" stroke-miterlimit="10"/>
<path d="M421.598 759.318L731.313 738.037C769.667 735.651 791.057 692.644 769.813 660.617L596.527 403.034C575.288 371.013 527.339 373.992 510.229 408.405L373.799 687.268C356.691 721.671 383.245 761.704 421.598 759.318Z" stroke="#158ECF" stroke-width="0.566897" stroke-miterlimit="10"/>
<path d="M423.206 767.24L740.017 736.448C778.302 732.947 798.437 689.314 776.26 657.902L591.188 398.934C569.01 367.532 521.158 371.909 505.046 406.817L373.306 696.578C357.198 731.491 384.921 770.742 423.206 767.24Z" stroke="#0E84C9" stroke-width="0.566897" stroke-miterlimit="10"/>
<path d="M424.807 775.166L748.715 734.862C786.928 730.24 805.812 685.979 782.7 655.201L585.847 394.843C562.736 364.056 514.967 369.835 499.865 405.244L372.816 705.902C357.704 741.31 386.595 779.789 424.807 775.166Z" stroke="#077BC2" stroke-width="0.566897" stroke-miterlimit="10"/>
<path d="M425.107 784.119L756.106 734.307C794.255 728.565 811.878 683.684 787.834 653.521L579.19 391.772C555.145 361.609 507.464 368.785 493.359 404.69L371.004 716.251C356.905 752.151 386.963 789.857 425.107 784.119Z" stroke="white" stroke-width="0.566897" stroke-miterlimit="10"/>
<path d="M426.904 793.236L763.654 731.273C801.536 724.44 817.822 679.164 792.962 649.769L570.919 389.114C546.064 359.724 498.711 368.258 485.684 404.481L370.971 727.102C357.954 763.326 389.022 800.069 426.904 793.236Z" stroke="white" stroke-width="0.566897" stroke-miterlimit="10"/>
<path d="M428.706 802.358L771.207 728.245C808.826 720.326 823.769 674.65 798.1 646.027L562.663 386.464C536.994 357.84 489.967 367.742 478.017 404.283L370.953 737.96C359.004 774.502 391.088 810.277 428.706 802.358Z" stroke="white" stroke-width="0.566897" stroke-miterlimit="10"/>
<path d="M430.512 811.478L778.764 725.214C816.125 716.206 829.721 670.133 803.236 642.286L554.399 383.819C527.92 355.968 481.225 367.232 470.344 404.092L370.924 748.818C360.052 785.679 393.151 820.487 430.512 811.478Z" stroke="white" stroke-width="0.566897" stroke-miterlimit="10"/>
<path d="M432.309 820.595L786.312 722.179C823.405 712.08 835.664 665.613 808.369 638.539L546.132 381.166C518.837 354.092 472.47 366.714 462.672 403.888L370.895 759.675C361.097 796.848 395.216 830.694 432.309 820.595Z" stroke="white" stroke-width="0.566897" stroke-miterlimit="10"/>
<path d="M434.111 829.718L793.869 719.157C830.704 707.968 841.606 661.104 813.506 634.798L537.876 378.516C509.771 352.214 463.731 366.195 455.005 403.691L370.877 770.534C362.147 808.025 397.281 840.903 434.111 829.718Z" stroke="white" stroke-width="0.566897" stroke-miterlimit="10"/>
<path d="M435.913 838.839L801.423 716.127C837.99 703.848 847.554 656.589 818.639 631.059L529.615 375.868C500.7 350.338 454.987 365.687 447.334 403.496L370.854 781.395C363.198 819.199 399.341 851.114 435.913 838.839Z" stroke="white" stroke-width="0.566897" stroke-miterlimit="10"/>
<path d="M438.196 848.756L807.411 711.32C843.537 698.016 851.704 650.6 822.12 625.967L518.487 374.937C488.903 350.304 443.752 366.941 437.216 404.873L371.628 793.344C365.092 831.277 402.074 862.065 438.196 848.756Z" stroke="#0866B5" stroke-width="0.566897" stroke-miterlimit="10"/>
<path d="M440.475 858.675L813.397 706.515C849.071 692.185 855.853 644.604 825.599 620.878L507.364 373.994C477.115 350.264 432.526 368.18 427.096 406.244L372.409 805.289C366.994 843.349 404.806 873.01 440.475 858.675Z" stroke="#0F5CAE" stroke-width="0.566897" stroke-miterlimit="10"/>
<path d="M442.755 868.601L819.388 701.722C854.615 686.363 860.005 638.63 829.092 615.803L496.248 373.069C465.335 350.242 421.304 369.441 416.99 407.627L373.195 817.245C368.887 855.427 407.528 883.961 442.755 868.601Z" stroke="#1751A7" stroke-width="0.566897" stroke-miterlimit="10"/>
<path d="M445.04 878.516L825.384 696.909C860.16 680.524 864.159 632.63 832.581 610.706L485.135 372.117C453.557 350.193 410.083 370.676 406.886 408.985L373.988 829.171C370.788 867.499 410.259 894.905 445.04 878.516Z" stroke="#1F46A0" stroke-width="0.566897" stroke-miterlimit="10"/>
<path d="M447.318 888.436L831.369 692.104C865.698 674.69 868.305 626.644 836.059 605.618L474.009 371.185C441.763 350.158 398.85 371.93 396.764 410.365L374.762 841.13C372.684 879.576 412.99 905.851 447.318 888.436Z" stroke="#263C99" stroke-width="0.566897" stroke-miterlimit="10"/>
<path d="M449.598 898.362L837.36 687.312C871.242 668.868 872.453 620.665 839.542 600.541L462.884 370.258C429.973 350.135 387.618 373.189 386.652 411.753L375.548 853.086C374.573 891.649 415.716 916.806 449.598 898.362Z" stroke="#2E3192" stroke-width="0.566897" stroke-miterlimit="10"/>
<path d="M453.631 907.706L842.318 679.576C875.579 660.203 875.398 612.084 841.982 592.966L450.08 370.419C416.673 351.302 375.095 375.52 375.241 414.01L378.462 864.683C378.606 903.182 420.37 927.079 453.631 907.706Z" stroke="#2B2C8A" stroke-width="0.566897" stroke-miterlimit="10"/>
<path d="M457.67 917.051L847.281 671.842C879.923 651.531 878.34 603.503 844.433 585.388L437.271 370.58C403.363 352.464 362.558 377.85 363.824 416.277L381.374 876.295C382.64 914.711 425.023 937.357 457.67 917.051Z" stroke="#282783" stroke-width="0.566897" stroke-miterlimit="10"/>
<path d="M461.71 926.39L852.25 664.106C884.272 642.867 881.293 594.918 846.88 577.808L424.464 370.734C390.056 353.62 350.028 380.18 352.414 418.533L384.289 887.89C386.675 926.244 429.683 947.634 461.71 926.39Z" stroke="#25237B" stroke-width="0.566897" stroke-miterlimit="10"/>
<path d="M465.747 935.739L857.212 656.376C888.614 634.198 884.237 586.346 849.329 570.234L411.663 370.9C376.759 354.793 337.499 382.514 341.006 420.795L387.207 899.492C390.703 937.781 434.341 957.911 465.747 935.739Z" stroke="#211E73" stroke-width="0.566897" stroke-miterlimit="10"/>
<path d="M469.779 945.081L862.169 648.639C892.956 625.528 887.178 577.759 851.768 562.657L398.847 371.058C363.443 355.953 324.961 384.838 329.582 423.06L390.109 911.096C394.735 949.313 438.992 968.192 469.779 945.081Z" stroke="#1E196C" stroke-width="0.566897" stroke-miterlimit="10"/>
<path d="M472.274 952.451L865.593 638.934C895.755 614.889 888.579 567.208 852.675 553.103L384.504 369.245C348.6 355.14 310.894 385.199 316.632 423.342L391.488 920.723C397.23 958.872 442.111 976.496 472.274 952.451Z" stroke="#1B1464" stroke-width="0.566897" stroke-miterlimit="10"/>
<path d="M477.761 959.881L868.475 627.322C897.865 602.467 889.331 555.114 853.108 542.087L369.749 370.002C333.526 356.976 296.788 388.049 303.611 425.93L396.257 930.573C403.09 968.455 448.371 984.736 477.761 959.881Z" stroke="#273276" stroke-width="0.566897" stroke-miterlimit="10"/>
<path d="M483.249 967.311L871.357 615.71C899.98 590.041 890.079 543.014 853.537 531.065L354.99 370.754C318.448 358.805 282.673 390.889 290.596 428.512L401.035 940.423C408.954 978.042 454.635 992.981 483.249 967.311Z" stroke="#345088" stroke-width="0.566897" stroke-miterlimit="10"/>
<path d="M488.737 974.741L874.234 604.103C902.085 577.624 890.82 530.928 853.961 520.047L340.231 371.517C303.376 360.641 268.563 393.744 277.576 431.1L405.814 950.275C414.818 987.63 460.891 1001.23 488.737 974.741Z" stroke="#406E9A" stroke-width="0.566897" stroke-miterlimit="10"/>
<path d="M494.227 982.171L877.114 592.485C904.189 565.19 891.566 518.822 854.392 509.024L325.469 372.272C288.295 362.474 254.451 396.583 264.549 433.686L410.581 960.118C420.69 997.212 467.153 1009.47 494.227 982.171Z" stroke="#4C8CAC" stroke-width="0.566897" stroke-miterlimit="10"/>
<path d="M499.715 989.601L879.996 580.873C906.299 552.768 892.318 506.728 854.821 498.002L310.714 373.03C273.223 364.3 240.345 399.434 251.534 436.269L415.36 969.969C426.55 1006.79 473.413 1017.71 499.715 989.601Z" stroke="#59AABE" stroke-width="0.566897" stroke-miterlimit="10"/>
<path d="M505.203 997.03L882.879 569.26C908.409 540.345 893.06 494.632 855.25 486.979L295.95 373.785C258.14 366.132 226.23 402.282 238.504 438.854L420.129 979.818C432.414 1016.38 479.673 1025.95 505.203 997.03Z" stroke="#65C8D0" stroke-width="0.566897" stroke-miterlimit="10"/>
<path d="M512.572 1002.11L883.385 553.912C908.017 524.328 891.38 479.177 853.448 472.641L279.89 375.606C241.957 369.07 211.164 406.048 224.474 442.169L427.22 987.401C440.52 1023.52 487.94 1031.69 512.572 1002.11Z" stroke="#54D1D8" stroke-width="0.566897" stroke-miterlimit="10"/>
<path d="M519.934 1007.19L883.878 538.558C907.608 508.309 889.692 463.721 851.628 458.29L263.807 377.42C225.748 371.995 196.087 409.807 210.416 445.481L434.293 994.981C448.632 1030.66 496.204 1037.44 519.934 1007.19Z" stroke="#43DAE0" stroke-width="0.566897" stroke-miterlimit="10"/>
<path d="M527.302 1012.27L884.384 523.209C907.21 492.296 888.011 448.265 849.825 443.951L247.746 379.241C209.56 374.927 181.031 413.573 196.386 448.795L441.383 1002.56C456.743 1037.79 504.475 1043.18 527.302 1012.27Z" stroke="#33E3E8" stroke-width="0.566897" stroke-miterlimit="10"/>
<path d="M534.664 1017.34L884.877 507.853C906.801 476.276 886.319 432.802 848.01 429.604L231.673 381.054C193.365 377.856 165.953 417.331 182.342 452.112L448.47 1010.15C464.85 1044.93 512.744 1048.93 534.664 1017.34Z" stroke="#22EDEF" stroke-width="0.566897" stroke-miterlimit="10"/>
<path d="M542.031 1022.43L885.381 492.508C906.408 460.261 884.637 417.349 846.201 415.262L215.601 382.876C177.166 380.79 150.886 421.1 168.3 455.428L455.55 1017.73C472.959 1052.07 521.004 1054.67 542.031 1022.43Z" stroke="white" stroke-width="0.566897" stroke-miterlimit="10"/>
<path d="M549.395 1027.51L885.873 477.162C905.996 444.251 882.942 401.896 844.378 400.93L199.521 384.704C160.957 383.738 135.805 424.877 154.245 458.754L462.625 1025.33C481.069 1059.21 529.272 1060.42 549.395 1027.51Z" stroke="#00FFFF" stroke-width="0.566897" stroke-miterlimit="10"/>
<path d="M560.159 1031.1L884.848 459.704C903.965 426.297 879.746 384.719 841.257 384.865L184.067 389.375C145.572 389.525 121.676 431.288 141.048 464.55L473.549 1031.44C492.921 1064.7 541.042 1064.51 560.159 1031.1Z" stroke="#00D4FF" stroke-width="0.566897" stroke-miterlimit="10"/>
<path d="M570.918 1034.69L883.814 442.253C901.929 408.346 876.543 367.541 838.117 368.806L168.6 394.049C130.174 395.314 107.533 437.702 127.844 470.344L484.465 1037.54C504.77 1070.19 552.807 1068.61 570.918 1034.69Z" stroke="#00AAFF" stroke-width="0.566897" stroke-miterlimit="10"/>
<path d="M581.685 1038.29L882.787 424.804C899.901 390.397 873.342 350.368 834.988 352.754L153.145 398.73C114.791 401.116 93.4015 444.123 114.645 476.15L495.387 1043.66C516.626 1075.68 564.571 1072.7 581.685 1038.29Z" stroke="#0080FF" stroke-width="0.566897" stroke-miterlimit="10"/>
<path d="M592.444 1041.88L881.752 407.352C897.859 372.449 870.138 333.188 831.857 336.695L137.682 403.407C99.397 406.909 79.2627 450.541 101.439 481.953L506.297 1049.77C528.479 1081.17 576.336 1076.79 592.444 1041.88Z" stroke="#0055FF" stroke-width="0.566897" stroke-miterlimit="10"/>
<path d="M603.209 1045.48L880.729 389.901C895.834 354.497 866.95 316.015 828.728 320.636L122.226 408.08C84.0133 412.703 65.1292 456.964 88.2411 487.741L517.224 1055.86C540.334 1086.66 588.103 1080.88 603.209 1045.48Z" stroke="white" stroke-width="0.566897" stroke-miterlimit="10"/>
<path d="M616.814 1046.85L882.54 370.227C896.645 334.323 866.587 296.617 828.443 302.355L109.609 410.536C71.4649 416.274 53.8363 461.16 77.8812 491.322L530.985 1059.75C555.033 1089.93 602.714 1082.76 616.814 1046.85Z" stroke="#0000FF" stroke-width="0.566897" stroke-miterlimit="10"/>
</g>
<g opacity="0.3">
<path d="M464.032 1430.31L493.927 1485.23C505.607 1506.69 536.132 1507.46 548.878 1486.62L581.498 1433.27C594.245 1412.43 579.64 1385.61 555.219 1384.99L492.708 1383.42C468.278 1382.8 452.353 1408.86 464.032 1430.31Z" stroke="#293DFF" stroke-width="0.566897" stroke-miterlimit="10"/>
<path d="M453.279 1430.53L495.433 1497.93C507.954 1519.31 538.931 1519.12 551.189 1497.58L588.484 1427.38C600.738 1405.84 585.083 1379.11 560.303 1379.26L480.849 1382.07C456.075 1382.22 440.754 1409.14 453.279 1430.53Z" stroke="#4051FF" stroke-width="0.566897" stroke-miterlimit="10"/>
<path d="M442.53 1430.74L496.953 1510.62C510.326 1531.93 541.744 1530.77 553.52 1508.54L595.494 1421.48C607.266 1399.24 590.556 1372.6 565.412 1373.53L469.025 1380.72C443.866 1381.63 429.158 1409.43 442.53 1430.74Z" stroke="#5764FF" stroke-width="0.566897" stroke-miterlimit="10"/>
<path d="M431.773 1430.95L498.455 1523.31C512.669 1544.55 544.543 1542.43 555.823 1519.5L602.471 1415.57C613.755 1392.64 595.986 1366.1 570.487 1367.79L457.157 1379.36C431.664 1381.05 417.563 1409.71 431.773 1430.95Z" stroke="#6E78FF" stroke-width="0.566897" stroke-miterlimit="10"/>
<path d="M421.024 1431.16L499.969 1536.01C515.03 1557.17 547.35 1554.1 558.148 1530.47L609.475 1409.68C620.271 1386.06 601.448 1359.6 575.59 1362.07L445.321 1378.01C419.454 1380.47 405.963 1410 421.024 1431.16Z" stroke="#848CFF" stroke-width="0.566897" stroke-miterlimit="10"/>
<path d="M410.268 1431.37L501.478 1548.7C517.381 1569.79 550.152 1565.75 560.461 1541.43L616.469 1403.78C626.778 1379.46 606.899 1353.1 580.677 1356.33L433.466 1376.65C407.249 1379.89 394.365 1410.29 410.268 1431.37Z" stroke="#9B9FFF" stroke-width="0.566897" stroke-miterlimit="10"/>
<path d="M400.17 1431.08L503.643 1560.89C520.393 1581.9 553.611 1576.9 563.432 1551.89L624.114 1397.38C633.935 1372.37 613.002 1346.1 586.426 1350.09L422.272 1374.8C395.701 1378.8 383.416 1410.06 400.17 1431.08Z" stroke="#B2B3FF" stroke-width="0.566897" stroke-miterlimit="10"/>
<path d="M398.256 1433.72L507.296 1562.03C524.948 1582.8 558.465 1576.68 567.628 1551L624.236 1392.42C633.399 1366.74 611.336 1340.78 584.517 1345.68L418.869 1375.95C392.06 1380.86 380.604 1412.95 398.256 1433.72Z" stroke="#94A0FD" stroke-width="0.566897" stroke-miterlimit="10"/>
<path d="M396.342 1436.36L510.953 1563.19C529.507 1583.72 563.33 1576.47 571.829 1550.13L624.359 1387.46C632.863 1361.13 609.671 1335.46 582.614 1341.27L415.478 1377.11C388.421 1382.91 377.784 1415.83 396.342 1436.36Z" stroke="#778CFC" stroke-width="0.566897" stroke-miterlimit="10"/>
<path d="M394.426 1439L514.605 1564.33C534.06 1584.62 568.182 1576.25 576.028 1549.25L624.479 1382.51C632.325 1355.51 608.003 1330.16 580.703 1336.86L412.074 1378.27C384.778 1384.97 374.971 1418.72 394.426 1439Z" stroke="#5979FA" stroke-width="0.566897" stroke-miterlimit="10"/>
<path d="M392.509 1441.64L518.259 1565.48C538.616 1585.53 573.04 1576.02 580.227 1548.37L624.604 1377.55C631.786 1349.9 606.344 1324.84 578.801 1332.44L408.679 1379.43C381.135 1387.03 372.158 1421.59 392.509 1441.64Z" stroke="#3B66F8" stroke-width="0.566897" stroke-miterlimit="10"/>
<path d="M390.599 1444.29L521.916 1566.63C543.174 1586.43 577.898 1575.8 584.427 1547.49L624.73 1372.59C631.253 1344.29 604.682 1319.52 576.901 1328.03L405.286 1380.58C377.499 1389.09 369.342 1424.47 390.599 1444.29Z" stroke="#1E52F7" stroke-width="0.566897" stroke-miterlimit="10"/>
<path d="M388.682 1446.93L525.571 1567.78C547.731 1587.34 582.76 1575.58 588.625 1546.61L624.845 1367.64C630.71 1338.66 603.01 1314.21 574.99 1323.62L401.882 1381.73C373.857 1391.15 366.528 1427.36 388.682 1446.93Z" stroke="#003FF5" stroke-width="0.566897" stroke-miterlimit="10"/>
<path d="M387.893 1450.06L530.524 1568.24C553.614 1587.37 588.757 1574.33 593.778 1544.77L624.802 1362.16C629.824 1332.59 600.965 1308.68 572.849 1319.11L399.188 1383.55C371.087 1393.98 364.804 1430.93 387.893 1450.06Z" stroke="#0843F7" stroke-width="0.566897" stroke-miterlimit="10"/>
<path d="M387.11 1453.2L535.489 1568.7C559.513 1587.4 594.759 1573.08 598.947 1542.93L624.775 1356.68C628.959 1326.53 598.93 1303.16 570.728 1314.61L396.512 1385.36C368.319 1396.82 363.092 1434.5 387.11 1453.2Z" stroke="#0F47F8" stroke-width="0.566897" stroke-miterlimit="10"/>
<path d="M386.323 1456.34L540.453 1569.16C565.403 1587.42 600.767 1571.82 604.111 1541.09L624.745 1351.19C628.085 1320.45 596.896 1297.63 568.603 1310.1L393.84 1387.17C365.55 1399.65 361.373 1438.08 386.323 1456.34Z" stroke="#174CFA" stroke-width="0.566897" stroke-miterlimit="10"/>
<path d="M385.536 1459.48L545.414 1569.61C571.299 1587.44 606.771 1570.56 609.272 1539.24L624.714 1345.71C627.215 1314.38 594.864 1292.1 566.478 1305.59L391.164 1388.98C362.783 1402.48 359.657 1441.64 385.536 1459.48Z" stroke="#1E50FC" stroke-width="0.566897" stroke-miterlimit="10"/>
<path d="M384.75 1462.61L550.37 1570.07C577.18 1587.46 612.77 1569.31 614.427 1537.39L624.684 1340.23C626.34 1308.31 592.826 1286.57 564.359 1301.09L388.492 1390.8C360.01 1405.32 357.94 1445.22 384.75 1462.61Z" stroke="#2554FD" stroke-width="0.566897" stroke-miterlimit="10"/>
<path d="M383.96 1465.75L555.331 1570.53C583.077 1587.49 618.77 1568.06 619.593 1535.55L624.644 1334.75C625.463 1302.25 590.784 1281.04 562.22 1296.59L385.798 1392.61C357.239 1408.15 356.219 1448.79 383.96 1465.75Z" stroke="#2D58FF" stroke-width="0.566897" stroke-miterlimit="10"/>
<path d="M383.981 1469.93L561.066 1570.71C589.733 1587.02 625.31 1566.19 625.105 1533.2L623.832 1329.46C623.626 1296.48 587.79 1276.08 559.328 1292.75L383.51 1395.73C355.055 1412.38 355.314 1453.61 383.981 1469.93Z" stroke="#4167FF" stroke-width="0.566897" stroke-miterlimit="10"/>
<path d="M383.997 1474.1L566.797 1570.87C596.392 1586.54 631.843 1564.29 630.619 1530.84L623.027 1324.15C621.798 1290.68 584.808 1271.1 556.443 1288.9L381.235 1398.82C352.87 1416.61 354.408 1458.44 383.997 1474.1Z" stroke="#5576FF" stroke-width="0.566897" stroke-miterlimit="10"/>
<path d="M384.018 1478.28L572.531 1571.05C603.052 1586.07 638.383 1562.42 636.13 1528.49L622.215 1318.84C619.962 1284.9 581.816 1266.13 553.552 1285.05L378.949 1401.92C350.69 1420.84 353.502 1463.26 384.018 1478.28Z" stroke="#6A85FF" stroke-width="0.566897" stroke-miterlimit="10"/>
<path d="M384.036 1482.47L578.263 1571.23C609.706 1585.6 644.916 1560.55 641.639 1526.14L621.4 1313.54C618.123 1279.13 578.819 1261.16 550.652 1281.21L376.66 1405.03C348.497 1425.08 352.592 1468.1 384.036 1482.47Z" stroke="#7E95FF" stroke-width="0.566897" stroke-miterlimit="10"/>
<path d="M384.05 1486.64L583.991 1571.41C616.361 1585.13 651.44 1558.67 647.144 1523.78L620.582 1308.24C616.282 1273.34 575.824 1256.19 547.754 1277.36L374.366 1408.13C346.311 1429.3 351.684 1472.92 384.05 1486.64Z" stroke="#92A4FF" stroke-width="0.566897" stroke-miterlimit="10"/>
<path d="M384.748 1491.69L590.407 1572.45C623.701 1585.53 658.663 1557.66 653.338 1522.29L620.452 1303.81C615.127 1268.44 573.513 1252.09 545.544 1274.39L372.767 1412.11C344.804 1434.4 351.451 1478.61 384.748 1491.69Z" stroke="#A6B3FF" stroke-width="0.566897" stroke-miterlimit="10"/>
<path d="M385.705 1497.22L597.356 1572.68C631.402 1584.85 665.858 1555.6 659.373 1520.03L618.892 1299.01C612.407 1263.44 569.854 1248.23 542.29 1271.63L371.119 1417.19C343.553 1440.59 351.659 1485.05 385.705 1497.22Z" stroke="#9DAFFF" stroke-width="0.566897" stroke-miterlimit="10"/>
<path d="M386.657 1502.77L604.295 1572.91C639.094 1584.18 673.039 1553.55 665.403 1517.78L617.333 1294.23C609.691 1258.46 566.192 1244.37 539.04 1268.88L369.471 1422.29C342.309 1446.79 351.858 1491.5 386.657 1502.77Z" stroke="#94AAFF" stroke-width="0.566897" stroke-miterlimit="10"/>
<path d="M387.617 1508.31L611.253 1573.14C646.804 1583.51 680.244 1551.5 671.441 1515.53L615.772 1289.44C606.97 1253.47 562.533 1240.51 535.779 1266.12L367.818 1427.37C341.063 1452.98 352.066 1497.94 387.617 1508.31Z" stroke="#8BA6FF" stroke-width="0.566897" stroke-miterlimit="10"/>
<path d="M388.574 1513.84L618.198 1573.36C654.503 1582.82 687.43 1549.43 677.477 1513.27L614.213 1284.64C604.251 1248.47 558.872 1236.65 532.53 1263.36L366.17 1432.46C339.824 1459.17 352.27 1504.39 388.574 1513.84Z" stroke="#81A2FF" stroke-width="0.566897" stroke-miterlimit="10"/>
<path d="M389.53 1519.39L625.151 1573.6C662.208 1582.15 694.63 1547.38 683.511 1511.02L612.648 1279.86C601.529 1243.49 555.208 1232.79 529.27 1260.6L364.517 1437.55C338.577 1465.37 352.478 1510.83 389.53 1519.39Z" stroke="#789DFF" stroke-width="0.566897" stroke-miterlimit="10"/>
<path d="M390.487 1524.93L632.096 1573.82C669.906 1581.48 701.817 1545.33 689.542 1508.75L611.085 1275.06C598.805 1238.5 551.546 1228.93 526.016 1257.85L362.86 1442.64C337.329 1471.56 352.677 1517.28 390.487 1524.93Z" stroke="#6F99FF" stroke-width="0.566897" stroke-miterlimit="10"/>
<path d="M391.535 1531.87L640.943 1573.82C678.875 1580.36 709.668 1543.38 696.358 1507.26L607.989 1270.29C594.685 1234.16 547.269 1225.99 522.637 1255.58L361.598 1450.6C336.971 1480.18 353.598 1525.33 391.535 1531.87Z" stroke="#639CFA" stroke-width="0.566897" stroke-miterlimit="10"/>
<path d="M392.587 1538.8L649.8 1573.82C687.859 1579.24 717.52 1541.43 703.19 1505.76L604.909 1265.49C590.58 1229.82 542.998 1223.04 519.273 1253.29L360.342 1458.54C336.608 1488.78 354.524 1533.37 392.587 1538.8Z" stroke="#589FF5" stroke-width="0.566897" stroke-miterlimit="10"/>
<path d="M393.63 1545.73L658.646 1573.81C696.832 1578.12 725.362 1539.47 710.007 1504.25L601.814 1260.7C586.455 1225.48 538.722 1220.09 515.895 1251L359.071 1466.47C336.248 1497.39 355.448 1541.42 393.63 1545.73Z" stroke="#4CA2F1" stroke-width="0.566897" stroke-miterlimit="10"/>
<path d="M394.677 1552.67L667.498 1573.8C705.807 1577 733.218 1537.53 716.829 1502.75L598.725 1255.91C582.34 1221.14 534.446 1217.14 512.522 1248.71L357.805 1474.42C335.885 1506 356.368 1549.47 394.677 1552.67Z" stroke="#40A5EC" stroke-width="0.566897" stroke-miterlimit="10"/>
<path d="M395.724 1559.61L676.344 1573.8C714.78 1575.89 741.06 1535.58 723.645 1501.25L595.63 1251.12C578.215 1216.79 530.17 1214.19 509.143 1246.43L356.534 1482.36C335.521 1514.61 357.289 1557.52 395.724 1559.61Z" stroke="#35A8E7" stroke-width="0.566897" stroke-miterlimit="10"/>
<path d="M396.776 1566.54L685.2 1573.8C723.764 1574.76 748.916 1533.62 730.476 1499.75L592.549 1246.33C574.105 1212.45 525.902 1211.24 505.778 1244.15L355.277 1490.3C335.157 1523.22 358.212 1565.58 396.776 1566.54Z" stroke="#29ABE2" stroke-width="0.566897" stroke-miterlimit="10"/>
<path d="M398.38 1574.47L693.902 1572.21C732.397 1572.06 756.293 1530.3 736.92 1497.04L587.207 1242.23C567.834 1208.97 519.715 1209.15 500.597 1242.57L354.789 1499.63C335.672 1533.04 359.891 1574.61 398.38 1574.47Z" stroke="#22A1DC" stroke-width="0.566897" stroke-miterlimit="10"/>
<path d="M399.992 1582.4L702.609 1570.63C741.036 1569.36 763.677 1526.97 743.366 1494.33L581.866 1238.14C561.555 1205.5 513.528 1207.09 495.412 1240.99L354.294 1508.95C336.179 1542.86 361.565 1583.66 399.992 1582.4Z" stroke="#1B98D5" stroke-width="0.566897" stroke-miterlimit="10"/>
<path d="M401.598 1590.32L711.313 1569.04C749.667 1566.65 771.057 1523.64 749.813 1491.62L576.527 1234.03C555.288 1202.01 507.339 1204.99 490.229 1239.41L353.799 1518.27C336.691 1552.67 363.245 1592.7 401.598 1590.32Z" stroke="#158ECF" stroke-width="0.566897" stroke-miterlimit="10"/>
<path d="M403.206 1598.24L720.017 1567.45C758.302 1563.95 778.437 1520.31 756.26 1488.9L571.188 1229.93C549.01 1198.53 501.158 1202.91 485.046 1237.82L353.306 1527.58C337.198 1562.49 364.921 1601.74 403.206 1598.24Z" stroke="#0E84C9" stroke-width="0.566897" stroke-miterlimit="10"/>
<path d="M404.807 1606.17L728.715 1565.86C766.928 1561.24 785.812 1516.98 762.7 1486.2L565.847 1225.84C542.736 1195.06 494.967 1200.83 479.865 1236.24L352.816 1536.9C337.704 1572.31 366.595 1610.79 404.807 1606.17Z" stroke="#077BC2" stroke-width="0.566897" stroke-miterlimit="10"/>
<path d="M405.107 1615.12L736.106 1565.31C774.255 1559.57 791.878 1514.68 767.834 1484.52L559.19 1222.77C535.145 1192.61 487.464 1199.79 473.359 1235.69L351.004 1547.25C336.905 1583.15 366.963 1620.86 405.107 1615.12Z" stroke="white" stroke-width="0.566897" stroke-miterlimit="10"/>
<path d="M406.904 1624.24L743.654 1562.27C781.536 1555.44 797.822 1510.16 772.962 1480.77L550.919 1220.11C526.064 1190.72 478.711 1199.26 465.684 1235.48L350.971 1558.1C337.954 1594.33 369.022 1631.07 406.904 1624.24Z" stroke="white" stroke-width="0.566897" stroke-miterlimit="10"/>
<path d="M408.706 1633.36L751.207 1559.24C788.826 1551.33 803.769 1505.65 778.1 1477.03L542.663 1217.46C516.994 1188.84 469.967 1198.74 458.017 1235.28L350.953 1568.96C339.004 1605.5 371.088 1641.28 408.706 1633.36Z" stroke="white" stroke-width="0.566897" stroke-miterlimit="10"/>
<path d="M410.512 1642.48L758.764 1556.21C796.125 1547.21 809.721 1501.13 783.236 1473.29L534.399 1214.82C507.92 1186.97 461.225 1198.23 450.344 1235.09L350.924 1579.82C340.052 1616.68 373.151 1651.49 410.512 1642.48Z" stroke="white" stroke-width="0.566897" stroke-miterlimit="10"/>
<path d="M412.309 1651.59L766.312 1553.18C803.405 1543.08 815.664 1496.61 788.369 1469.54L526.132 1212.17C498.837 1185.09 452.47 1197.71 442.672 1234.89L350.895 1590.67C341.097 1627.85 375.216 1661.69 412.309 1651.59Z" stroke="white" stroke-width="0.566897" stroke-miterlimit="10"/>
<path d="M414.111 1660.72L773.869 1550.16C810.704 1538.97 821.606 1492.1 793.506 1465.8L517.876 1209.52C489.771 1183.21 443.731 1197.19 435.005 1234.69L350.877 1601.53C342.147 1639.03 377.281 1671.9 414.111 1660.72Z" stroke="white" stroke-width="0.566897" stroke-miterlimit="10"/>
<path d="M415.913 1669.84L781.423 1547.13C817.99 1534.85 827.554 1487.59 798.639 1462.06L509.615 1206.87C480.7 1181.34 434.987 1196.69 427.334 1234.5L350.854 1612.39C343.198 1650.2 379.341 1682.11 415.913 1669.84Z" stroke="white" stroke-width="0.566897" stroke-miterlimit="10"/>
<path d="M418.196 1679.76L787.411 1542.32C823.537 1529.02 831.704 1481.6 802.12 1456.97L498.487 1205.94C468.903 1181.3 423.752 1197.94 417.216 1235.87L351.628 1624.34C345.092 1662.28 382.074 1693.07 418.196 1679.76Z" stroke="#0866B5" stroke-width="0.566897" stroke-miterlimit="10"/>
<path d="M420.475 1689.68L793.397 1537.51C829.071 1523.19 835.853 1475.6 805.599 1451.88L487.364 1204.99C457.115 1181.26 412.526 1199.18 407.096 1237.24L352.409 1636.29C346.994 1674.35 384.806 1704.01 420.475 1689.68Z" stroke="#0F5CAE" stroke-width="0.566897" stroke-miterlimit="10"/>
<path d="M422.755 1699.6L799.388 1532.72C834.615 1517.36 840.005 1469.63 809.092 1446.8L476.248 1204.07C445.335 1181.24 401.304 1200.44 396.99 1238.63L353.195 1648.25C348.887 1686.43 387.528 1714.96 422.755 1699.6Z" stroke="#1751A7" stroke-width="0.566897" stroke-miterlimit="10"/>
<path d="M425.04 1709.52L805.384 1527.91C840.16 1511.52 844.159 1463.63 812.581 1441.71L465.135 1203.12C433.557 1181.19 390.083 1201.68 386.886 1239.98L353.988 1660.17C350.788 1698.5 390.259 1725.91 425.04 1709.52Z" stroke="#1F46A0" stroke-width="0.566897" stroke-miterlimit="10"/>
<path d="M427.318 1719.44L811.369 1523.1C845.698 1505.69 848.305 1457.64 816.059 1436.62L454.009 1202.18C421.763 1181.16 378.85 1202.93 376.764 1241.37L354.762 1672.13C352.684 1710.58 392.99 1736.85 427.318 1719.44Z" stroke="#263C99" stroke-width="0.566897" stroke-miterlimit="10"/>
<path d="M429.598 1729.36L817.36 1518.31C851.242 1499.87 852.453 1451.66 819.542 1431.54L442.884 1201.26C409.973 1181.13 367.618 1204.19 366.652 1242.75L355.548 1684.09C354.573 1722.65 395.716 1747.81 429.598 1729.36Z" stroke="#2E3192" stroke-width="0.566897" stroke-miterlimit="10"/>
<path d="M433.631 1738.71L822.318 1510.58C855.579 1491.2 855.398 1443.08 821.982 1423.97L430.08 1201.42C396.673 1182.3 355.095 1206.52 355.241 1245.01L358.462 1695.68C358.606 1734.18 400.37 1758.08 433.631 1738.71Z" stroke="#2B2C8A" stroke-width="0.566897" stroke-miterlimit="10"/>
<path d="M437.67 1748.05L827.281 1502.84C859.923 1482.53 858.34 1434.5 824.433 1416.39L417.271 1201.58C383.363 1183.46 342.558 1208.85 343.824 1247.28L361.374 1707.29C362.64 1745.71 405.023 1768.36 437.67 1748.05Z" stroke="#282783" stroke-width="0.566897" stroke-miterlimit="10"/>
<path d="M441.71 1757.39L832.25 1495.11C864.272 1473.87 861.293 1425.92 826.88 1408.81L404.464 1201.73C370.056 1184.62 330.028 1211.18 332.414 1249.53L364.289 1718.89C366.675 1757.24 409.683 1778.63 441.71 1757.39Z" stroke="#25237B" stroke-width="0.566897" stroke-miterlimit="10"/>
<path d="M445.747 1766.74L837.212 1487.38C868.614 1465.2 864.237 1417.35 829.329 1401.23L391.663 1201.9C356.759 1185.79 317.499 1213.51 321.006 1251.8L367.207 1730.49C370.703 1768.78 414.341 1788.91 445.747 1766.74Z" stroke="#211E73" stroke-width="0.566897" stroke-miterlimit="10"/>
<path d="M449.779 1776.08L842.169 1479.64C872.956 1456.53 867.178 1408.76 831.768 1393.66L378.847 1202.06C343.443 1186.95 304.961 1215.84 309.582 1254.06L370.109 1742.1C374.735 1780.31 418.992 1799.19 449.779 1776.08Z" stroke="#1E196C" stroke-width="0.566897" stroke-miterlimit="10"/>
<path d="M452.274 1783.45L845.593 1469.93C875.755 1445.89 868.579 1398.21 832.675 1384.1L364.504 1200.24C328.6 1186.14 290.894 1216.2 296.632 1254.34L371.488 1751.72C377.23 1789.87 422.111 1807.5 452.274 1783.45Z" stroke="#1B1464" stroke-width="0.566897" stroke-miterlimit="10"/>
<path d="M457.761 1790.88L848.475 1458.32C877.865 1433.47 869.331 1386.11 833.108 1373.09L349.749 1201C313.526 1187.98 276.788 1219.05 283.611 1256.93L376.257 1761.57C383.09 1799.45 428.371 1815.74 457.761 1790.88Z" stroke="#273276" stroke-width="0.566897" stroke-miterlimit="10"/>
<path d="M463.249 1798.31L851.357 1446.71C879.98 1421.04 870.079 1374.01 833.537 1362.06L334.99 1201.75C298.448 1189.81 262.673 1221.89 270.596 1259.51L381.035 1771.42C388.954 1809.04 434.635 1823.98 463.249 1798.31Z" stroke="#345088" stroke-width="0.566897" stroke-miterlimit="10"/>
<path d="M468.737 1805.74L854.234 1435.1C882.085 1408.62 870.82 1361.93 833.961 1351.05L320.231 1202.52C283.376 1191.64 248.563 1224.74 257.576 1262.1L385.814 1781.27C394.818 1818.63 440.891 1832.23 468.737 1805.74Z" stroke="#406E9A" stroke-width="0.566897" stroke-miterlimit="10"/>
<path d="M474.227 1813.17L857.114 1423.48C884.189 1396.19 871.566 1349.82 834.392 1340.02L305.469 1203.27C268.295 1193.47 234.451 1227.58 244.549 1264.69L390.581 1791.12C400.69 1828.21 447.153 1840.47 474.227 1813.17Z" stroke="#4C8CAC" stroke-width="0.566897" stroke-miterlimit="10"/>
<path d="M479.715 1820.6L859.996 1411.87C886.299 1383.77 872.318 1337.73 834.821 1329L290.714 1204.03C253.223 1195.3 220.345 1230.43 231.534 1267.27L395.36 1800.97C406.55 1837.79 453.413 1848.71 479.715 1820.6Z" stroke="#59AABE" stroke-width="0.566897" stroke-miterlimit="10"/>
<path d="M485.203 1828.03L862.879 1400.26C888.409 1371.34 873.06 1325.63 835.25 1317.98L275.95 1204.78C238.14 1197.13 206.23 1233.28 218.504 1269.85L400.129 1810.82C412.414 1847.38 459.673 1856.95 485.203 1828.03Z" stroke="#65C8D0" stroke-width="0.566897" stroke-miterlimit="10"/>
<path d="M492.572 1833.11L863.385 1384.91C888.017 1355.33 871.38 1310.18 833.448 1303.64L259.89 1206.61C221.957 1200.07 191.164 1237.05 204.474 1273.17L407.22 1818.4C420.52 1854.52 467.94 1862.69 492.572 1833.11Z" stroke="#54D1D8" stroke-width="0.566897" stroke-miterlimit="10"/>
<path d="M499.934 1838.19L863.878 1369.56C887.608 1339.31 869.692 1294.72 831.628 1289.29L243.807 1208.42C205.748 1203 176.087 1240.81 190.416 1276.48L414.293 1825.98C428.632 1861.66 476.204 1868.44 499.934 1838.19Z" stroke="#43DAE0" stroke-width="0.566897" stroke-miterlimit="10"/>
<path d="M507.302 1843.27L864.384 1354.21C887.21 1323.3 868.011 1279.26 829.825 1274.95L227.746 1210.24C189.56 1205.93 161.031 1244.57 176.386 1279.8L421.383 1833.56C436.743 1868.79 484.475 1874.18 507.302 1843.27Z" stroke="#33E3E8" stroke-width="0.566897" stroke-miterlimit="10"/>
<path d="M514.664 1848.34L864.877 1338.85C886.801 1307.28 866.319 1263.8 828.01 1260.6L211.673 1212.05C173.365 1208.86 145.953 1248.33 162.342 1283.11L428.47 1841.15C444.85 1875.93 492.744 1879.93 514.664 1848.34Z" stroke="#22EDEF" stroke-width="0.566897" stroke-miterlimit="10"/>
<path d="M522.031 1853.43L865.381 1323.51C886.408 1291.26 864.637 1248.35 826.201 1246.26L195.601 1213.88C157.166 1211.79 130.886 1252.1 148.3 1286.43L435.55 1848.73C452.959 1883.07 501.004 1885.67 522.031 1853.43Z" stroke="white" stroke-width="0.566897" stroke-miterlimit="10"/>
<path d="M529.395 1858.51L865.873 1308.16C885.996 1275.25 862.942 1232.9 824.378 1231.93L179.521 1215.7C140.957 1214.74 115.805 1255.88 134.245 1289.75L442.625 1856.33C461.069 1890.21 509.272 1891.42 529.395 1858.51Z" stroke="#00FFFF" stroke-width="0.566897" stroke-miterlimit="10"/>
<path d="M540.159 1862.1L864.848 1290.7C883.965 1257.3 859.746 1215.72 821.257 1215.86L164.067 1220.38C125.572 1220.52 101.676 1262.29 121.048 1295.55L453.549 1862.44C472.921 1895.7 521.042 1895.51 540.159 1862.1Z" stroke="#00D4FF" stroke-width="0.566897" stroke-miterlimit="10"/>
<path d="M550.918 1865.69L863.814 1273.25C881.929 1239.35 856.543 1198.54 818.117 1199.81L148.6 1225.05C110.174 1226.31 87.5329 1268.7 107.844 1301.34L464.465 1868.54C484.77 1901.19 532.807 1899.61 550.918 1865.69Z" stroke="#00AAFF" stroke-width="0.566897" stroke-miterlimit="10"/>
<path d="M561.685 1869.29L862.787 1255.8C879.901 1221.4 853.342 1181.37 814.988 1183.75L133.145 1229.73C94.7913 1232.12 73.4015 1275.12 94.6453 1307.15L475.387 1874.66C496.626 1906.68 544.571 1903.7 561.685 1869.29Z" stroke="#0080FF" stroke-width="0.566897" stroke-miterlimit="10"/>
<path d="M572.444 1872.88L861.752 1238.35C877.859 1203.45 850.138 1164.19 811.857 1167.7L117.682 1234.41C79.397 1237.91 59.2627 1281.54 81.4394 1312.95L486.297 1880.77C508.479 1912.17 556.336 1907.79 572.444 1872.88Z" stroke="#0055FF" stroke-width="0.566897" stroke-miterlimit="10"/>
<path d="M583.209 1876.48L860.729 1220.9C875.834 1185.5 846.95 1147.01 808.728 1151.64L102.226 1239.08C64.0133 1243.7 45.1292 1287.96 68.2411 1318.74L497.224 1886.86C520.334 1917.66 568.103 1911.88 583.209 1876.48Z" stroke="white" stroke-width="0.566897" stroke-miterlimit="10"/>
<path d="M596.814 1877.85L862.54 1201.23C876.645 1165.32 846.587 1127.62 808.443 1133.35L89.6087 1241.54C51.4649 1247.27 33.8363 1292.16 57.8812 1322.32L510.985 1890.75C535.033 1920.93 582.714 1913.76 596.814 1877.85Z" stroke="#0000FF" stroke-width="0.566897" stroke-miterlimit="10"/>
</g>
</svg>
