<svg width="1114" height="1125" viewBox="0 0 1114 1125" fill="none" xmlns="http://www.w3.org/2000/svg">
<g opacity="0.6">
<path d="M464.031 599.311L493.926 654.234C505.606 675.69 536.131 676.461 548.877 655.618L581.497 602.27C594.244 581.427 579.639 554.606 555.218 553.988L492.707 552.419C468.277 551.8 452.352 577.855 464.031 599.311Z" stroke="#293DFF" stroke-width="0.566897" stroke-miterlimit="10"/>
<path d="M453.279 599.526L495.433 666.929C507.954 688.312 538.93 688.119 551.189 666.585L588.483 596.378C600.738 574.838 585.082 548.113 560.303 548.264L480.849 551.072C456.074 551.219 440.753 578.137 453.279 599.526Z" stroke="#4051FF" stroke-width="0.566897" stroke-miterlimit="10"/>
<path d="M442.529 599.737L496.952 679.621C510.325 700.932 541.743 699.775 553.519 677.545L595.493 590.475C607.265 568.239 590.555 541.604 565.411 542.529L469.024 549.715C443.865 550.633 429.157 578.425 442.529 599.737Z" stroke="#5764FF" stroke-width="0.566897" stroke-miterlimit="10"/>
<path d="M431.773 599.946L498.455 692.31C512.669 713.549 544.543 711.434 555.823 688.5L602.471 584.573C613.755 561.645 595.986 535.095 570.487 536.794L457.157 548.358C431.664 550.053 417.563 578.713 431.773 599.946Z" stroke="#6E78FF" stroke-width="0.566897" stroke-miterlimit="10"/>
<path d="M421.023 600.159L499.968 705.009C515.029 726.17 547.349 723.096 558.147 699.467L609.474 578.676C620.27 555.057 601.447 528.598 575.589 531.066L445.32 547.012C419.453 549.469 405.962 578.998 421.023 600.159Z" stroke="#848CFF" stroke-width="0.566897" stroke-miterlimit="10"/>
<path d="M410.267 600.375L501.477 717.7C517.38 738.788 550.152 734.751 560.461 710.429L616.468 572.776C626.777 548.455 606.899 522.097 580.677 525.328L433.465 545.652C407.248 548.889 394.365 579.286 410.267 600.375Z" stroke="#9B9FFF" stroke-width="0.566897" stroke-miterlimit="10"/>
<path d="M400.171 600.079L503.644 729.889C520.394 750.9 553.612 745.904 563.433 720.891L624.114 566.379C633.935 541.366 613.002 515.098 586.427 519.095L422.272 543.796C395.701 547.797 383.417 579.062 400.171 600.079Z" stroke="#B2B3FF" stroke-width="0.566897" stroke-miterlimit="10"/>
<path d="M398.256 602.717L507.296 731.032C524.948 751.802 558.465 745.681 567.628 720.004L624.236 561.416C633.399 535.739 611.336 509.778 584.517 514.679L418.869 544.953C392.06 549.856 380.604 581.947 398.256 602.717Z" stroke="#94A0FD" stroke-width="0.566897" stroke-miterlimit="10"/>
<path d="M396.342 605.362L510.954 732.188C529.507 752.716 563.33 745.467 571.83 719.13L624.359 556.46C632.863 530.129 609.671 504.465 582.614 510.268L415.478 546.109C388.421 551.912 377.785 584.829 396.342 605.362Z" stroke="#778CFC" stroke-width="0.566897" stroke-miterlimit="10"/>
<path d="M394.426 608.003L514.605 733.334C534.06 753.62 568.183 745.247 576.029 718.252L624.479 551.509C632.325 524.514 608.003 499.157 580.704 505.856L412.074 547.269C384.779 553.973 374.972 587.717 394.426 608.003Z" stroke="#5979FA" stroke-width="0.566897" stroke-miterlimit="10"/>
<path d="M392.509 610.641L518.259 734.482C538.616 754.526 573.04 745.02 580.227 717.371L624.604 546.551C631.786 518.896 606.344 493.837 578.801 501.442L408.679 548.427C381.135 556.032 372.158 590.593 392.509 610.641Z" stroke="#3B66F8" stroke-width="0.566897" stroke-miterlimit="10"/>
<path d="M390.599 613.286L521.916 735.632C543.174 755.434 577.898 744.804 584.427 716.491L624.73 541.594C631.253 513.285 604.682 488.524 576.901 497.03L405.286 549.577C377.499 558.087 369.342 593.474 390.599 613.286Z" stroke="#1E52F7" stroke-width="0.566897" stroke-miterlimit="10"/>
<path d="M388.683 615.925L525.572 736.781C547.731 756.342 582.76 744.583 588.626 715.61L624.845 536.636C630.711 507.663 603.01 483.208 574.991 492.616L401.882 550.735C373.857 560.147 366.528 596.36 388.683 615.925Z" stroke="#003FF5" stroke-width="0.566897" stroke-miterlimit="10"/>
<path d="M387.893 619.062L530.524 737.239C553.614 756.371 588.757 743.328 593.778 713.767L624.802 531.155C629.824 501.594 600.965 477.678 572.849 488.112L399.188 552.55C371.087 562.981 364.804 599.931 387.893 619.062Z" stroke="#0843F7" stroke-width="0.566897" stroke-miterlimit="10"/>
<path d="M387.11 622.204L535.488 737.698C559.512 756.396 594.758 742.077 598.946 711.929L624.774 525.68C628.958 495.526 598.929 472.157 570.727 483.609L396.511 554.362C368.318 565.815 363.091 603.502 387.11 622.204Z" stroke="#0F47F8" stroke-width="0.566897" stroke-miterlimit="10"/>
<path d="M386.323 625.341L540.453 738.158C565.403 756.42 600.767 740.823 604.111 710.086L624.745 520.191C628.085 489.449 596.897 466.627 568.603 479.102L393.84 556.17C365.551 568.65 361.373 607.078 386.323 625.341Z" stroke="#174CFA" stroke-width="0.566897" stroke-miterlimit="10"/>
<path d="M385.537 628.475L545.414 738.609C571.299 756.439 606.772 739.562 609.272 708.236L624.715 514.71C627.215 483.384 594.864 461.095 566.479 474.592L391.164 557.98C362.783 571.482 359.657 610.642 385.537 628.475Z" stroke="#1E50FC" stroke-width="0.566897" stroke-miterlimit="10"/>
<path d="M384.75 631.612L550.37 739.067C577.18 756.462 612.771 738.306 614.428 706.391L624.684 509.23C626.341 477.315 592.826 455.569 564.359 470.089L388.492 559.797C360.01 574.32 357.94 614.217 384.75 631.612Z" stroke="#2554FD" stroke-width="0.566897" stroke-miterlimit="10"/>
<path d="M383.959 634.749L555.33 739.527C583.076 756.487 618.769 737.056 619.592 704.554L624.643 503.755C625.462 471.247 590.783 450.044 562.219 465.59L385.797 561.612C357.238 577.155 356.218 617.793 383.959 634.749Z" stroke="#2D58FF" stroke-width="0.566897" stroke-miterlimit="10"/>
<path d="M383.981 638.929L561.066 739.707C589.734 756.018 625.311 735.186 625.105 702.204L623.832 498.457C623.627 465.476 587.791 445.081 559.329 461.752L383.511 564.725C355.055 581.382 355.315 622.61 383.981 638.929Z" stroke="#4167FF" stroke-width="0.566897" stroke-miterlimit="10"/>
<path d="M383.997 643.105L566.797 739.873C596.392 755.538 631.843 733.295 630.619 699.835L623.027 493.146C621.798 459.681 584.808 440.099 556.443 457.899L381.235 567.82C352.87 585.61 354.408 627.435 383.997 643.105Z" stroke="#5576FF" stroke-width="0.566897" stroke-miterlimit="10"/>
<path d="M384.018 647.284L572.532 740.053C603.053 755.073 638.383 731.424 636.13 697.485L622.216 487.839C619.963 453.9 581.816 435.126 553.552 454.05L378.949 570.923C350.691 589.843 353.503 632.261 384.018 647.284Z" stroke="#6A85FF" stroke-width="0.566897" stroke-miterlimit="10"/>
<path d="M384.036 651.465L578.263 740.234C609.707 754.603 644.916 729.548 641.639 695.136L621.401 482.542C618.123 448.129 578.819 430.163 550.653 450.207L376.66 574.026C348.498 594.075 352.593 637.096 384.036 651.465Z" stroke="#7E95FF" stroke-width="0.566897" stroke-miterlimit="10"/>
<path d="M384.05 655.642L583.99 740.411C616.361 754.134 651.44 727.672 647.144 692.782L620.581 477.24C616.281 442.344 575.824 425.191 547.754 446.364L374.366 577.135C346.311 598.304 351.684 641.923 384.05 655.642Z" stroke="#92A4FF" stroke-width="0.566897" stroke-miterlimit="10"/>
<path d="M384.749 660.689L590.408 741.454C623.702 754.527 658.664 726.664 653.339 691.295L620.453 472.805C615.128 437.436 573.514 421.091 545.545 443.388L372.768 581.107C344.804 603.399 351.452 647.611 384.749 660.689Z" stroke="#A6B3FF" stroke-width="0.566897" stroke-miterlimit="10"/>
<path d="M385.704 666.224L597.355 741.681C631.401 753.852 665.857 724.604 659.372 689.033L618.891 468.013C612.406 432.442 569.853 417.231 542.289 440.626L371.118 586.188C343.552 609.592 351.658 654.052 385.704 666.224Z" stroke="#9DAFFF" stroke-width="0.566897" stroke-miterlimit="10"/>
<path d="M386.656 671.77L604.294 741.914C639.093 753.183 673.038 722.555 665.402 686.784L617.332 463.228C609.69 427.461 566.191 413.373 539.039 437.876L369.47 591.287C342.308 615.789 351.857 660.5 386.656 671.77Z" stroke="#94AAFF" stroke-width="0.566897" stroke-miterlimit="10"/>
<path d="M387.617 677.31L611.253 742.142C646.804 752.51 680.244 720.497 671.441 684.528L615.772 458.437C606.97 422.468 562.533 409.514 535.779 435.119L367.818 596.374C341.063 621.979 352.066 666.942 387.617 677.31Z" stroke="#8BA6FF" stroke-width="0.566897" stroke-miterlimit="10"/>
<path d="M388.575 682.843L618.199 742.362C654.503 751.819 687.431 718.434 677.478 682.266L614.214 453.643C604.251 417.473 558.872 405.647 532.53 432.361L366.17 601.464C339.824 628.173 352.27 673.387 388.575 682.843Z" stroke="#81A2FF" stroke-width="0.566897" stroke-miterlimit="10"/>
<path d="M389.53 688.388L625.151 742.596C662.209 751.15 694.63 716.381 683.511 680.015L612.649 448.856C601.529 412.49 555.208 401.793 529.27 429.605L364.517 606.552C338.578 634.373 352.478 679.83 389.53 688.388Z" stroke="#789DFF" stroke-width="0.566897" stroke-miterlimit="10"/>
<path d="M390.486 693.929L632.095 742.823C669.905 750.475 701.816 714.326 689.541 677.754L611.084 444.065C598.804 407.497 551.545 397.933 526.015 426.848L362.859 611.638C337.328 640.563 352.677 686.276 390.486 693.929Z" stroke="#6F99FF" stroke-width="0.566897" stroke-miterlimit="10"/>
<path d="M391.535 700.867L640.943 742.824C678.876 749.36 709.669 712.383 696.359 676.262L607.99 439.286C594.686 403.16 547.27 394.993 522.637 424.577L361.598 619.595C336.971 649.175 353.599 694.326 391.535 700.867Z" stroke="#639CFA" stroke-width="0.566897" stroke-miterlimit="10"/>
<path d="M392.587 707.801L649.8 742.817C687.859 748.242 717.52 710.43 703.19 674.756L604.909 434.495C590.58 398.821 542.998 392.039 519.273 422.293L360.342 627.539C336.608 657.782 354.524 702.371 392.587 707.801Z" stroke="#589FF5" stroke-width="0.566897" stroke-miterlimit="10"/>
<path d="M393.63 714.732L658.646 742.807C696.832 747.121 725.362 708.474 710.007 673.252L601.814 429.704C586.455 394.477 538.722 389.087 515.895 420.001L359.071 635.474C336.248 666.392 355.448 710.424 393.63 714.732Z" stroke="#4CA2F1" stroke-width="0.566897" stroke-miterlimit="10"/>
<path d="M394.678 721.67L667.499 742.803C705.808 746.001 733.219 706.526 716.83 671.745L598.726 424.911C582.341 390.136 534.447 386.137 512.523 417.715L357.806 643.415C335.886 674.998 356.369 718.472 394.678 721.67Z" stroke="#40A5EC" stroke-width="0.566897" stroke-miterlimit="10"/>
<path d="M395.724 728.608L676.344 742.804C714.78 744.891 741.06 704.581 723.645 670.253L595.63 420.123C578.215 385.794 530.17 383.187 509.143 415.434L356.534 651.362C335.521 683.615 357.289 726.522 395.724 728.608Z" stroke="#35A8E7" stroke-width="0.566897" stroke-miterlimit="10"/>
<path d="M396.775 735.541L685.199 742.796C723.763 743.762 748.915 702.623 730.475 668.746L592.548 415.331C574.104 381.449 525.901 380.238 505.777 413.149L355.276 659.304C335.156 692.221 358.211 734.576 396.775 735.541Z" stroke="#29ABE2" stroke-width="0.566897" stroke-miterlimit="10"/>
<path d="M398.381 743.468L693.902 741.211C732.397 741.061 756.294 699.297 736.921 666.036L587.207 411.235C567.835 377.973 519.715 378.154 500.597 411.571L354.79 668.629C335.673 702.036 359.891 743.613 398.381 743.468Z" stroke="#22A1DC" stroke-width="0.566897" stroke-miterlimit="10"/>
<path d="M399.992 751.396L702.61 739.627C741.036 738.362 763.678 695.974 743.367 663.331L581.866 407.144C561.555 374.502 513.528 376.086 495.413 409.993L354.295 677.949C336.18 711.856 361.566 752.661 399.992 751.396Z" stroke="#1B98D5" stroke-width="0.566897" stroke-miterlimit="10"/>
<path d="M401.598 759.318L711.313 738.037C749.666 735.651 771.056 692.644 749.812 660.617L576.527 403.034C555.287 371.013 507.338 373.992 490.228 408.405L353.799 687.268C336.69 721.671 363.244 761.704 401.598 759.318Z" stroke="#158ECF" stroke-width="0.566897" stroke-miterlimit="10"/>
<path d="M403.205 767.24L720.017 736.448C758.302 732.946 778.436 689.314 756.259 657.902L571.187 398.934C549.01 367.531 501.158 371.909 485.045 406.817L353.306 696.577C337.197 731.491 364.92 770.741 403.205 767.24Z" stroke="#0E84C9" stroke-width="0.566897" stroke-miterlimit="10"/>
<path d="M404.806 775.166L728.714 734.862C766.927 730.24 785.811 685.979 762.699 655.201L565.846 394.843C542.735 364.056 494.966 369.835 479.864 405.244L352.815 705.902C337.703 741.31 366.594 779.789 404.806 775.166Z" stroke="#077BC2" stroke-width="0.566897" stroke-miterlimit="10"/>
<path d="M405.107 784.119L736.106 734.307C774.255 728.565 791.878 683.684 767.834 653.521L559.19 391.772C535.145 361.609 487.464 368.785 473.359 404.69L351.004 716.251C336.905 752.151 366.963 789.857 405.107 784.119Z" stroke="white" stroke-width="0.566897" stroke-miterlimit="10"/>
<path d="M406.904 793.236L743.655 731.273C781.537 724.44 797.822 679.164 772.963 649.769L550.92 389.114C526.065 359.724 478.711 368.258 465.684 404.481L350.972 727.102C337.955 763.326 369.023 800.069 406.904 793.236Z" stroke="white" stroke-width="0.566897" stroke-miterlimit="10"/>
<path d="M408.707 802.358L751.208 728.245C788.827 720.326 803.77 674.65 778.101 646.027L542.664 386.464C516.995 357.84 469.968 367.742 458.018 404.283L350.954 737.96C339.005 774.502 371.089 810.277 408.707 802.358Z" stroke="white" stroke-width="0.566897" stroke-miterlimit="10"/>
<path d="M410.511 811.479L758.763 725.214C796.124 716.206 809.72 670.134 783.235 642.287L534.398 383.819C507.919 355.968 461.224 367.233 450.343 404.092L350.923 748.819C340.051 785.679 373.15 820.487 410.511 811.479Z" stroke="white" stroke-width="0.566897" stroke-miterlimit="10"/>
<path d="M412.309 820.595L766.312 722.179C803.405 712.08 815.664 665.613 788.369 638.539L526.133 381.166C498.838 354.092 452.471 366.714 442.673 403.888L350.896 759.675C341.097 796.848 375.216 830.694 412.309 820.595Z" stroke="white" stroke-width="0.566897" stroke-miterlimit="10"/>
<path d="M414.11 829.718L773.869 719.157C810.704 707.968 821.605 661.104 793.506 634.798L517.876 378.516C489.77 352.214 443.731 366.195 435.005 403.691L350.876 770.534C342.146 808.025 377.28 840.903 414.11 829.718Z" stroke="white" stroke-width="0.566897" stroke-miterlimit="10"/>
<path d="M415.913 838.839L781.422 716.127C817.99 703.848 827.554 656.589 798.639 631.059L509.615 375.868C480.699 350.338 434.986 365.687 427.334 403.496L350.854 781.395C343.197 819.199 379.341 851.114 415.913 838.839Z" stroke="white" stroke-width="0.566897" stroke-miterlimit="10"/>
<path d="M418.196 848.756L787.412 711.32C823.537 698.016 831.705 650.6 802.121 625.967L498.488 374.937C468.904 350.304 423.752 366.941 417.216 404.873L351.628 793.344C345.092 831.277 382.075 862.065 418.196 848.756Z" stroke="#0866B5" stroke-width="0.566897" stroke-miterlimit="10"/>
<path d="M420.476 858.675L793.398 706.515C829.072 692.185 835.854 644.604 805.6 620.878L487.364 373.994C457.116 350.264 412.527 368.18 407.097 406.244L352.41 805.289C346.995 843.349 384.807 873.01 420.476 858.675Z" stroke="#0F5CAE" stroke-width="0.566897" stroke-miterlimit="10"/>
<path d="M422.754 868.601L799.387 701.722C834.614 686.363 840.004 638.63 809.091 615.803L476.247 373.069C445.334 350.242 401.303 369.441 396.989 407.627L353.194 817.245C348.886 855.427 387.527 883.961 422.754 868.601Z" stroke="#1751A7" stroke-width="0.566897" stroke-miterlimit="10"/>
<path d="M425.04 878.516L805.385 696.909C840.16 680.524 844.159 632.63 812.581 610.706L465.136 372.117C433.558 350.193 390.084 370.676 386.886 408.985L353.989 829.171C350.789 867.499 390.26 894.905 425.04 878.516Z" stroke="#1F46A0" stroke-width="0.566897" stroke-miterlimit="10"/>
<path d="M427.318 888.436L811.369 692.104C845.698 674.69 848.305 626.644 816.058 605.618L454.009 371.185C421.762 350.158 378.85 371.93 376.763 410.365L354.762 841.13C352.684 879.576 392.989 905.851 427.318 888.436Z" stroke="#263C99" stroke-width="0.566897" stroke-miterlimit="10"/>
<path d="M429.599 898.362L817.361 687.312C851.243 668.868 852.454 620.665 819.543 600.541L442.885 370.258C409.974 350.135 367.619 373.189 366.653 411.753L355.549 853.086C354.573 891.649 395.717 916.806 429.599 898.362Z" stroke="#2E3192" stroke-width="0.566897" stroke-miterlimit="10"/>
<path d="M433.631 907.706L822.317 679.576C855.579 660.203 855.398 612.084 821.981 592.966L430.079 370.419C396.672 351.302 355.095 375.52 355.24 414.01L358.461 864.683C358.605 903.182 400.369 927.079 433.631 907.706Z" stroke="#2B2C8A" stroke-width="0.566897" stroke-miterlimit="10"/>
<path d="M437.669 917.051L827.281 671.842C859.923 651.531 858.339 603.503 824.432 585.388L417.27 370.58C383.363 352.464 342.558 377.85 343.823 416.277L361.374 876.295C362.64 914.711 405.023 937.357 437.669 917.051Z" stroke="#282783" stroke-width="0.566897" stroke-miterlimit="10"/>
<path d="M441.711 926.39L832.251 664.106C864.273 642.867 861.294 594.918 826.881 577.808L404.465 370.734C370.057 353.62 330.028 380.18 332.414 418.533L364.29 887.89C366.676 926.244 409.684 947.634 441.711 926.39Z" stroke="#25237B" stroke-width="0.566897" stroke-miterlimit="10"/>
<path d="M445.747 935.739L837.212 656.376C868.614 634.198 864.237 586.346 829.328 570.234L391.662 370.9C356.758 354.793 317.498 382.514 321.005 420.795L367.206 899.492C370.702 937.781 414.34 957.911 445.747 935.739Z" stroke="#211E73" stroke-width="0.566897" stroke-miterlimit="10"/>
<path d="M449.779 945.081L842.169 648.639C872.956 625.528 867.178 577.759 831.768 562.657L378.847 371.058C343.443 355.953 304.961 384.838 309.582 423.06L370.109 911.096C374.735 949.313 418.992 968.192 449.779 945.081Z" stroke="#1E196C" stroke-width="0.566897" stroke-miterlimit="10"/>
<path d="M452.274 952.451L845.593 638.934C875.755 614.889 868.579 567.208 832.675 553.103L364.504 369.245C328.6 355.14 290.894 385.199 296.632 423.342L371.488 920.723C377.23 958.872 422.111 976.496 452.274 952.451Z" stroke="#1B1464" stroke-width="0.566897" stroke-miterlimit="10"/>
<path d="M457.761 959.881L848.475 627.322C877.865 602.467 869.331 555.114 833.108 542.087L349.749 370.002C313.526 356.976 276.788 388.049 283.611 425.93L376.257 930.573C383.09 968.455 428.371 984.736 457.761 959.881Z" stroke="#273276" stroke-width="0.566897" stroke-miterlimit="10"/>
<path d="M463.249 967.311L851.357 615.71C879.98 590.041 870.079 543.014 833.537 531.065L334.99 370.754C298.448 358.805 262.673 390.889 270.596 428.512L381.035 940.423C388.954 978.042 434.635 992.981 463.249 967.311Z" stroke="#345088" stroke-width="0.566897" stroke-miterlimit="10"/>
<path d="M468.738 974.741L854.234 604.103C882.085 577.624 870.821 530.928 833.961 520.047L320.231 371.517C283.376 360.641 248.563 393.744 257.577 431.1L385.815 950.275C394.819 987.63 440.891 1001.23 468.738 974.741Z" stroke="#406E9A" stroke-width="0.566897" stroke-miterlimit="10"/>
<path d="M474.227 982.171L857.114 592.485C884.189 565.19 871.566 518.822 834.392 509.024L305.469 372.272C268.295 362.474 234.451 396.583 244.549 433.686L390.581 960.118C400.69 997.212 447.153 1009.47 474.227 982.171Z" stroke="#4C8CAC" stroke-width="0.566897" stroke-miterlimit="10"/>
<path d="M479.715 989.601L859.996 580.873C886.298 552.768 872.317 506.728 834.821 498.002L290.714 373.03C253.222 364.3 220.344 399.434 231.533 436.269L395.359 969.969C406.55 1006.79 453.412 1017.71 479.715 989.601Z" stroke="#59AABE" stroke-width="0.566897" stroke-miterlimit="10"/>
<path d="M485.202 997.03L862.878 569.26C888.408 540.345 873.059 494.632 835.249 486.979L275.949 373.785C238.139 366.132 206.229 402.282 218.503 438.854L400.128 979.818C412.413 1016.38 459.672 1025.95 485.202 997.03Z" stroke="#65C8D0" stroke-width="0.566897" stroke-miterlimit="10"/>
<path d="M492.572 1002.11L863.384 553.912C888.017 524.328 871.38 479.177 833.447 472.641L259.889 375.606C221.957 369.07 191.164 406.048 204.474 442.169L407.219 987.401C420.519 1023.52 467.939 1031.69 492.572 1002.11Z" stroke="#54D1D8" stroke-width="0.566897" stroke-miterlimit="10"/>
<path d="M499.934 1007.19L863.878 538.558C887.608 508.309 869.692 463.721 831.628 458.29L243.807 377.42C205.748 371.995 176.087 409.807 190.416 445.481L414.293 994.981C428.632 1030.66 476.204 1037.44 499.934 1007.19Z" stroke="#43DAE0" stroke-width="0.566897" stroke-miterlimit="10"/>
<path d="M507.303 1012.27L864.384 523.209C887.211 492.296 868.011 448.265 829.825 443.951L227.746 379.241C189.56 374.927 161.031 413.573 176.386 448.795L421.384 1002.56C436.743 1037.79 484.476 1043.18 507.303 1012.27Z" stroke="#33E3E8" stroke-width="0.566897" stroke-miterlimit="10"/>
<path d="M514.664 1017.34L864.878 507.853C886.802 476.276 866.319 432.802 828.01 429.604L211.674 381.054C173.365 377.856 145.954 417.331 162.343 452.112L428.471 1010.15C444.85 1044.93 492.744 1048.93 514.664 1017.34Z" stroke="#22EDEF" stroke-width="0.566897" stroke-miterlimit="10"/>
<path d="M522.031 1022.43L865.381 492.508C886.408 460.261 864.637 417.349 826.201 415.262L195.601 382.876C157.166 380.79 130.886 421.1 148.3 455.428L435.55 1017.73C452.959 1052.07 501.004 1054.67 522.031 1022.43Z" stroke="white" stroke-width="0.566897" stroke-miterlimit="10"/>
<path d="M529.395 1027.51L865.872 477.162C885.995 444.251 862.941 401.896 824.377 400.93L179.52 384.704C140.956 383.738 115.804 424.877 134.244 458.754L442.624 1025.33C461.068 1059.21 509.271 1060.42 529.395 1027.51Z" stroke="#00FFFF" stroke-width="0.566897" stroke-miterlimit="10"/>
<path d="M540.159 1031.1L864.848 459.704C883.965 426.297 859.747 384.719 821.257 384.865L164.068 389.375C125.573 389.525 101.676 431.288 121.049 464.55L453.549 1031.44C472.922 1064.7 521.042 1064.51 540.159 1031.1Z" stroke="#00D4FF" stroke-width="0.566897" stroke-miterlimit="10"/>
<path d="M550.919 1034.69L863.814 442.253C881.93 408.346 856.544 367.541 818.117 368.806L148.601 394.049C110.174 395.314 87.5334 437.702 107.844 470.344L464.465 1037.54C484.771 1070.19 532.808 1068.61 550.919 1034.69Z" stroke="#00AAFF" stroke-width="0.566897" stroke-miterlimit="10"/>
<path d="M561.685 1038.29L862.787 424.804C879.901 390.397 853.342 350.368 814.988 352.754L133.145 398.73C94.7918 401.116 73.402 444.123 94.6458 476.15L475.387 1043.66C496.627 1075.68 544.571 1072.7 561.685 1038.29Z" stroke="#0080FF" stroke-width="0.566897" stroke-miterlimit="10"/>
<path d="M572.445 1041.88L861.753 407.352C877.86 372.449 850.138 333.188 811.858 336.695L117.683 403.407C79.3975 406.909 59.2632 450.541 81.4399 481.953L486.297 1049.77C508.48 1081.17 556.336 1076.79 572.445 1041.88Z" stroke="#0055FF" stroke-width="0.566897" stroke-miterlimit="10"/>
<path d="M583.208 1045.48L860.728 389.901C875.834 354.497 846.949 316.015 808.727 320.636L102.225 408.08C64.0128 412.703 45.1287 456.964 68.2406 487.741L497.224 1055.86C520.334 1086.66 568.103 1080.88 583.208 1045.48Z" stroke="white" stroke-width="0.566897" stroke-miterlimit="10"/>
<path d="M596.814 1046.85L862.54 370.227C876.645 334.323 846.587 296.617 808.443 302.355L89.6087 410.536C51.4649 416.274 33.8363 461.16 57.8812 491.322L510.985 1059.75C535.033 1089.93 582.714 1082.76 596.814 1046.85Z" stroke="#0000FF" stroke-width="0.566897" stroke-miterlimit="10"/>
</g>
</svg>
